<svg width="106" height="51" viewBox="0 0 106 51" fill="none" xmlns="http://www.w3.org/2000/svg">
<path fill-rule="evenodd" clip-rule="evenodd" d="M50.9679 25.0667C50.9495 38.8735 39.7407 50.0517 25.9339 50.0333C12.1265 50.0149 0.948248 38.8068 0.966661 25C0.985073 11.1932 12.1932 0.014927 26.0006 0.0333403C39.8081 0.0517537 50.9863 11.2599 50.9679 25.0667ZM26.8661 33.8327L32.0433 33.8396L32.0408 35.7577L26.8635 35.7508L26.8635 35.7635L24.9435 35.7609L24.9722 14.2627L26.8922 14.2653L26.8661 33.8327ZM44.9761 25.8593L32.084 25.8421L32.0866 23.9221L46.867 23.9418C46.8862 24.3131 46.8952 24.6849 46.8947 25.0612C46.8793 36.6199 37.4967 45.9768 25.9386 45.9614C14.3806 45.946 5.02301 36.564 5.03843 25.0054C5.05384 13.4467 14.4364 4.08973 25.9951 4.10515C26.2998 4.10555 26.6038 4.11229 26.906 4.126L26.9009 6.03143C26.5983 6.01706 26.2955 6.00969 25.9926 6.00932C15.4861 5.9953 6.95661 14.5014 6.9426 25.0079C6.92858 35.515 15.4347 44.0432 25.9418 44.0572C36.162 44.0709 44.5103 36.0231 44.971 25.9131L44.9761 25.8593ZM20.248 19.1872C19.6958 19.738 18.9474 20.0468 18.1674 20.0458C17.3875 20.0448 16.6399 19.7339 16.0891 19.1817C15.5383 18.6294 15.2295 17.881 15.2305 17.1011C15.2316 16.3211 15.5424 15.5735 16.0946 15.0227C16.6469 14.472 17.3953 14.1631 18.1753 14.1642C18.9552 14.1652 19.7028 14.476 20.2536 15.0283C20.8044 15.5805 21.1132 16.329 21.1122 17.1089C21.1111 17.8889 20.8003 18.6365 20.248 19.1872Z" fill="#B3B3B3"/>
<path d="M63.3656 37.3545L81.2297 37.3783L81.2369 31.9832L69.9316 31.9681L69.9574 12.649L63.3985 12.6402L63.3656 37.3545ZM102.844 14.4329C100.798 12.8434 98.1622 12.0354 95.0152 12.0312C91.2785 12.0262 88.1546 13.1699 85.9809 15.3359C83.712 17.6 82.5078 20.938 82.5024 24.989C82.4966 29.3167 83.7599 32.9703 86.0594 35.2741C87.8649 37.0837 90.272 38.0403 93.0282 38.044C99.0783 38.052 100.475 34.4274 100.475 34.4274L100.471 37.4027L105.934 37.41L105.953 23.4524L95.0773 23.4379L95.0715 27.8056L100.077 27.8123C100.077 27.8123 100.118 33.3114 94.9514 33.3045C93.6388 33.3027 92.4701 32.8248 91.5718 31.9241C90.1718 30.5217 89.4338 28.1604 89.4379 25.1008C89.4447 20.0332 91.4631 17.0105 94.8356 17.015C96.9425 17.0178 98.5244 18.3134 98.9279 20.2745L105.886 20.2838C105.529 17.4346 104.749 15.9488 102.844 14.4329Z" fill="#B3B3B3"/>
</svg>
