<svg width="165" height="31" viewBox="0 0 165 31" fill="none" xmlns="http://www.w3.org/2000/svg">
<path fill-rule="evenodd" clip-rule="evenodd" d="M149.245 0.23948L139.825 14.4331L132.448 0.175297L114.775 0.151728L114.741 25.6391L99.5242 0.13139L79.9277 0.105257L66.0656 24.0283L66.0975 0.0868128L10.5264 0.0127043C10.5264 0.0127043 1.66809 0.335153 1.19642 9.40135C1.19642 9.40135 1.06103 16.9221 8.3701 19.1046C8.3701 19.1046 15.1786 20.6178 18.6032 21.8341C18.6032 21.8341 20.3574 22.3796 20.1463 24.0507C20.1463 24.0507 20.0604 25.7218 17.8874 25.9279L0.965732 25.6964L0.960104 29.9165L35.1383 30.0456C35.1383 30.0456 43.7048 29.2213 44.2598 20.3642C44.2598 20.3642 44.6454 13.2616 38.0464 11.2472C38.0464 11.2472 33.8277 10.1553 27.5622 8.72624C27.5622 8.72624 23.9281 8.01109 24.2655 5.62992C24.2655 5.62992 23.8916 4.04168 27.9444 4.08887L50.2565 4.11862L50.2219 30.0657L68.4809 30.09L72.3752 23.7442L94.9792 23.7744L98.606 30.1302L118.035 30.1561L118.059 11.8553L129.901 30.0466L136.337 30.0551L148.394 11.8957L148.37 30.0712L164.874 30.0932L164.914 0.260375L149.245 0.23948ZM75.0968 19.4024L83.6397 5.04058L92.7288 19.4259L75.0968 19.4024Z" fill="#B3B3B3"/>
</svg>
