<svg width="131" height="31" viewBox="0 0 131 31" fill="none" xmlns="http://www.w3.org/2000/svg">
<path d="M130.48 26.9348L118.355 1.21377C118.092 0.618707 117.366 0.155183 116.507 0.154037L106.727 0.140995C105.868 0.13985 105.206 0.535444 104.875 1.1958L94.8028 22.3938L94.8325 0.125133L85.4493 0.11262C84.6563 0.111562 83.9288 0.573148 83.5314 1.29949L76.3746 16.4882C76.1759 16.8183 75.7133 16.8177 75.5155 16.4871L68.3992 1.27931C68.0698 0.551999 67.3436 0.0884745 66.4845 0.0873289L33.8414 0.0437966C32.6519 0.10829 31.7253 1.2304 31.6576 2.41974L31.6501 8.03648L39.3153 8.0467C39.4475 8.04687 39.5794 8.17921 39.5793 8.31137L39.5526 28.3334L26.8356 1.09172C26.5721 0.496658 25.8458 0.0331339 24.9868 0.0319883L15.207 0.0189462C14.348 0.0178006 13.6867 0.413395 13.3554 1.07375L1.22863 26.7624C1.09603 27.0927 0.963429 27.4229 0.962901 27.8194C0.961314 29.0088 1.95118 30.0013 3.14061 30.0029C4.33003 30.0045 22.1053 30.0282 22.1053 30.0282C22.9644 30.0293 23.758 29.5017 24.0895 28.7092C24.0895 28.7092 26.3425 23.9545 27.1377 22.3036L13.0628 22.2848C12.8646 22.2846 12.7325 22.2183 12.6006 22.0199C12.4686 21.8876 12.4689 21.6893 12.6013 21.4913L19.8242 6.30264C19.8906 6.10449 20.0889 6.03868 20.2871 6.03894C20.4854 6.03921 20.6834 6.17163 20.7493 6.30388L31.2921 28.7188C31.6216 29.4461 32.4137 30.0419 33.2727 30.0431L45.7617 30.0597C47.0172 30.0614 48.1419 29.0717 48.1435 27.8823L48.1697 8.19067C48.1698 8.12459 48.1699 8.05851 48.3021 8.05868L52.2007 8.06388C53.1919 8.0652 54.1178 7.47172 54.5816 6.54723L57.4315 0.207415L57.3917 30.0752L63.0084 30.0827C64.2639 30.0844 65.2564 29.0945 65.2581 27.839L65.2764 14.0945L72.8559 28.8403C73.2513 29.6338 74.0436 30.0974 74.9027 30.0986L77.4137 30.1019C78.2727 30.1031 79.0663 29.6416 79.4638 28.8492L87.0165 14.1235L86.9982 27.868C86.9965 29.1235 88.0524 30.1161 89.2419 30.1177L98.6251 30.1302C99.4841 30.1314 100.212 29.6037 100.609 28.8113L111.212 6.42451C111.278 6.22637 111.476 6.16055 111.675 6.16082C111.873 6.16108 112.071 6.2935 112.137 6.42575L119.319 21.6336C119.385 21.7658 119.385 21.9641 119.319 22.1622C119.252 22.2943 119.054 22.4262 118.856 22.4259L104.781 22.4071C105.572 24.0602 107.812 28.8209 107.812 28.8209C108.141 29.5482 108.867 30.1439 109.726 30.145C109.726 30.145 128.625 30.1702 128.691 30.1703C129.881 30.1719 130.873 29.182 130.875 27.9926C130.875 27.5961 130.743 27.2656 130.612 26.935L130.48 26.9348Z" fill="#B3B3B3"/>
</svg>
