<svg width="195" height="31" viewBox="0 0 195 31" fill="none" xmlns="http://www.w3.org/2000/svg">
<mask id="mask0_2547_34" style="mask-type:luminance" maskUnits="userSpaceOnUse" x="0" y="0" width="195" height="31">
<path d="M194.112 0.258794L0.0532227 0L0.0132153 30L194.072 30.2588L194.112 0.258794Z" fill="white"/>
</mask>
<g mask="url(#mask0_2547_34)">
<path d="M52.1089 0.0694422C43.7988 0.05836 37.1 6.73933 37.0889 15.0495C37.0779 23.3072 43.7587 30.0583 52.0689 30.0694C60.3267 30.0804 67.0778 23.3996 67.0889 15.0895C67.0999 6.77934 60.3667 0.0804546 52.1089 0.0694422ZM52.0754 25.2088C46.4831 25.2013 41.9421 20.6483 41.9495 15.056C41.957 9.46354 46.5101 4.92261 52.1024 4.93007C57.6948 4.93753 62.2357 9.49058 62.2282 15.083C62.1686 20.6753 57.6677 25.2162 52.0754 25.2088Z" fill="#B3B3B3"/>
<path d="M126.032 24.5226L111.188 24.5028C110.771 24.45 110.457 24.136 110.457 23.7179L110.487 1.60986C110.487 1.19174 110.122 0.825399 109.704 0.824842L105.993 0.819893C105.575 0.819336 105.209 1.1847 105.208 1.60282L105.178 24.4948C105.178 24.4948 105.178 24.4948 105.178 24.547L105.178 24.6516C105.174 27.2648 107.262 29.3582 109.875 29.3617C109.928 29.3618 109.979 29.3619 109.979 29.3619L126.025 29.3833C126.443 29.3838 126.81 29.0185 126.81 28.6003L126.815 25.2554C126.815 24.8895 126.45 24.5232 126.032 24.5226Z" fill="#B3B3B3"/>
<path d="M95.574 14.4473C95.4697 14.3949 95.3655 14.238 95.3656 14.1334C95.3658 13.9767 95.4704 13.8723 95.5749 13.8202L95.6275 13.8202C96.6208 13.1944 98.2955 11.6809 98.2997 8.49278C98.3021 6.71578 97.8337 5.25173 96.8429 3.99605C94.3898 0.909156 90.1044 0.903441 87.4912 0.899956C87.4912 0.899956 74.5295 0.882671 73.223 0.880928C72.8048 0.880371 72.4385 1.24573 72.4379 1.66386L72.4074 24.5558C72.4074 24.5558 72.4074 24.5559 72.4073 24.6081L72.4072 24.7126C72.4038 27.2736 74.4393 29.3669 77.0002 29.4225L77.0525 29.4226L87.4532 29.4365C90.5368 29.4406 94.4044 29.4458 97.0207 27.2542C98.6951 25.8975 99.6387 23.7559 99.6419 21.3518C99.6449 19.1044 98.9687 16.1243 95.574 14.4473ZM77.7627 6.32253C77.7633 5.90441 78.1295 5.59131 78.5477 5.59187L89.8368 5.60692C91.6658 5.60936 93.5452 7.12755 93.5428 8.95681C93.5404 10.7861 91.6569 12.2992 89.8279 12.2968L78.4865 12.2817C78.0684 12.2811 77.7552 11.9672 77.7035 11.5489L77.7105 6.32246L77.7627 6.32253ZM90.8045 24.6326L78.5223 24.6162C78.1042 24.6157 77.7911 24.2494 77.7916 23.8836L77.7997 17.7686C77.8003 17.3504 78.1666 17.0374 78.5847 17.0379L90.8146 17.0542C92.9055 17.057 94.9934 18.7845 94.9907 20.8751C94.9362 22.9134 92.8954 24.6354 90.8045 24.6326Z" fill="#B3B3B3"/>
<path d="M156.24 24.5108L137.216 24.4854C136.798 24.4325 136.484 24.1186 136.485 23.7004L136.492 18.2649C136.493 17.8467 136.859 17.5337 137.278 17.4819L148.985 17.4976C149.403 17.4981 149.769 17.1328 149.77 16.7146L149.774 13.6833C149.774 13.2652 149.409 12.8988 148.991 12.8983L137.284 12.8827C136.865 12.8821 136.552 12.5158 136.553 12.0977L136.56 6.60991C136.561 6.19179 136.927 5.82642 137.345 5.82698L156.213 5.85214C156.631 5.8527 156.997 5.48734 156.998 5.06921L157.002 1.72427C157.003 1.30615 156.637 0.939809 156.22 0.939252L132.073 0.907051C131.655 0.906493 131.289 1.27186 131.289 1.68998L131.258 24.5819C131.258 24.5819 131.258 24.5819 131.258 24.6343L131.258 24.7388C131.254 27.2997 133.238 29.3407 135.746 29.4486L135.798 29.4486L156.286 29.476C156.704 29.4765 157.07 29.1112 157.071 28.693L157.075 25.2959C157.024 24.8776 156.659 24.5113 156.24 24.5108Z" fill="#B3B3B3"/>
<path d="M30.9407 0.772149L27.1254 0.767061C26.7073 0.766504 26.341 1.13187 26.3404 1.54999L26.3115 23.1876C26.3112 23.4489 26.0495 23.7099 25.7882 23.7096C25.6314 23.7094 25.4748 23.6046 25.3704 23.5C20.3616 17.0125 9.71813 3.0435 9.19639 2.41562C7.7351 0.793467 6.06276 0.686708 4.44242 0.789077C2.40395 0.890888 0.0498763 2.50796 0.0459035 5.48706L0.0153054 28.4313C0.0146782 28.9017 0.380047 29.268 0.798162 29.2686L4.61349 29.2737C5.03161 29.2742 5.39788 28.9612 5.39844 28.543L5.42751 6.74859C5.42772 6.5918 5.53245 6.43514 5.68932 6.38308C5.89858 6.22657 6.15984 6.27918 6.31636 6.48845C11.273 12.9236 21.9685 26.9972 22.5425 27.6251C24.0038 29.2472 25.7284 29.3541 27.2965 29.2516C29.2827 29.1497 31.6368 27.4805 31.6408 24.5014L31.6714 1.5571C31.7242 1.13905 31.4111 0.772777 30.9407 0.772149Z" fill="#B3B3B3"/>
<path d="M169.127 2.15863C168.658 1.53083 167.822 1.00707 167.143 1.00616L163.327 1.00107C162.805 1.00037 162.596 1.26142 162.543 1.41814C162.334 1.73146 162.438 2.14971 162.699 2.56818C162.699 2.56818 167.759 9.73517 167.759 9.78747C169.689 12.5601 174.286 14.6045 177.055 14.6082L177.108 14.6083C177.212 14.6084 177.369 14.5564 177.421 14.3997C177.474 14.2952 177.474 14.1384 177.422 14.0338L169.127 2.15863Z" fill="#B3B3B3"/>
<path d="M177.21 15.9675L177.157 15.9674C174.388 15.9637 169.786 17.996 167.848 20.7634L162.769 27.9692C162.454 28.3869 162.402 28.8049 162.61 29.1188C162.663 29.2234 162.923 29.5373 163.394 29.5379L167.209 29.543C167.889 29.5439 168.725 29.0747 169.196 28.3959L177.627 16.543C177.68 16.4386 177.68 16.334 177.627 16.1772C177.471 16.0724 177.314 15.9676 177.21 15.9675Z" fill="#B3B3B3"/>
<path d="M188.702 20.7912C186.772 18.0186 182.175 15.9741 179.405 15.9704L179.353 15.9703C179.249 15.9702 179.091 16.0223 179.039 16.179C178.987 16.2835 178.986 16.4403 179.038 16.5449L187.437 28.4202C187.907 29.0479 188.742 29.5717 189.421 29.5726L193.237 29.5777C193.76 29.5784 193.969 29.3174 194.022 29.1607C194.231 28.8473 194.127 28.4291 193.866 28.0106C193.762 27.9582 188.702 20.7912 188.702 20.7912Z" fill="#B3B3B3"/>
<path d="M179.355 14.5589L179.407 14.559C182.177 14.5627 186.779 12.5305 188.716 9.76308L193.796 2.55728C194.11 2.13957 194.162 1.72152 193.954 1.40766C193.902 1.30305 193.641 0.98912 193.171 0.988493L189.355 0.983404C188.676 0.982498 187.839 1.45177 187.368 2.13058L178.937 13.9835C178.885 14.0879 178.885 14.2448 178.936 14.3493C179.093 14.5063 179.198 14.5587 179.355 14.5589Z" fill="#B3B3B3"/>
</g>
</svg>
