<svg width="179" height="31" viewBox="0 0 179 31" fill="none" xmlns="http://www.w3.org/2000/svg">
<path d="M0.960562 29.5726C1.73246 19.7167 2.44144 9.85517 3.24479 0.0029936C5.5617 0.0375398 7.8787 0.00917365 10.1956 0.0270665C10.8267 0.0316088 11.55 0.25647 11.8471 0.865639C12.1112 1.31193 12.0568 1.85217 12.0376 2.34804C11.8323 5.01231 11.6197 7.67657 11.4255 10.3408C15.7115 10.3484 19.9975 10.3541 24.2835 10.358C24.5731 6.91854 24.7942 3.47158 25.0967 0.0339871C28.0799 0.0768233 31.065 0.0197424 34.0481 0.0755312C33.267 9.91663 32.5358 19.7615 31.7769 29.6063C28.7937 29.619 25.8105 29.6002 22.8273 29.6018C23.1385 25.2353 23.4941 20.8726 23.8182 16.508C19.5266 16.519 15.2333 16.4781 10.9417 16.5075C10.6379 20.8684 10.2657 25.2237 9.96376 29.5846C6.96208 29.5806 3.96225 29.5748 0.960562 29.5726ZM37.0349 5.66579C37.1836 3.79341 37.2805 1.91541 37.4754 0.048643C39.8534 0.0869713 42.2315 0.0475842 44.6077 0.0785086C45.3776 0.0462285 46.0892 0.64115 46.0808 1.4331C46.0734 2.84678 45.8994 4.25653 45.8124 5.66825C42.8865 5.67175 39.9607 5.65304 37.0349 5.66579ZM51.156 9.11337C53.7318 7.93442 56.6134 7.73842 59.4043 7.63482C63.2425 7.60108 67.082 7.96887 70.8508 8.6974C70.7377 10.1831 70.5618 11.6632 70.4451 13.1489C67.1093 12.5356 63.7307 12.0223 60.3292 12.1029C59.4002 12.1349 58.4508 12.1392 57.551 12.4063C57.2622 12.5114 56.8975 12.6219 56.8064 12.953C56.6262 13.4154 57.0458 13.8008 57.3767 14.0511C58.2143 14.6332 59.1854 14.975 60.112 15.3851C63.1137 16.7473 66.2953 17.8581 68.9464 19.8674C69.7801 20.5347 70.5192 21.3794 70.8491 22.4124C71.3651 24.0358 70.9129 25.9448 69.6659 27.1219C68.3836 28.3525 66.6322 28.9145 64.9291 29.2712C62.2524 29.8006 59.5042 29.8561 56.7858 29.7322C53.577 29.6114 50.3665 29.4331 47.184 28.9941C47.2473 27.3621 47.3531 25.7117 47.4737 24.0983C47.8417 24.2672 48.2469 24.3251 48.6447 24.3886C51.8401 24.8832 55.0614 25.3075 58.3018 25.2989C59.1735 25.2501 60.0747 25.2846 60.9079 24.9878C61.3411 24.8514 61.6472 24.33 61.4072 23.9078C61.0766 23.4152 60.5014 23.1757 59.9891 22.9252C57.7419 21.9527 55.4501 21.0892 53.2196 20.0777C51.5625 19.3132 49.8759 18.432 48.686 17.0075C47.6643 15.7997 47.2983 14.0839 47.7629 12.5672C48.2352 10.9358 49.6524 9.7775 51.156 9.11337ZM135.751 8.00309C140.789 7.41214 145.898 7.88154 150.867 8.80596C150.736 10.2935 150.58 11.781 150.449 13.2685C146.693 12.54 142.857 12.0149 139.024 12.2652C138.306 12.3419 137.51 12.3816 136.927 12.86C136.621 13.2038 136.824 13.7111 137.146 13.965C137.772 14.4988 138.553 14.8033 139.296 15.1392C141.812 16.2305 144.359 17.2609 146.779 18.5557C148.053 19.2679 149.344 20.069 150.216 21.2692C151.468 22.9251 151.308 25.4433 149.921 26.9717C148.793 28.2192 147.154 28.8461 145.557 29.2418C142.002 30.079 138.318 29.9335 134.7 29.751C132.191 29.6311 129.684 29.4316 127.191 29.1119C127.251 27.504 127.373 25.8998 127.477 24.2957C131.451 24.9394 135.477 25.5646 139.518 25.3498C140.162 25.2674 141.011 25.2963 141.419 24.6973C141.764 23.9984 140.986 23.5033 140.448 23.2527C137.603 21.9259 134.605 20.9412 131.814 19.4961C130.338 18.6966 128.861 17.688 128.069 16.1585C127.146 14.3365 127.568 11.9353 129.096 10.5662C130.91 8.92737 133.389 8.32191 135.751 8.00309ZM82.3289 8.21495C85.922 7.41668 89.8415 7.49963 93.1833 9.17497C95.3582 10.2289 97.2101 12.0484 98.0324 14.3495C98.7847 16.3637 98.7485 18.5712 98.4255 20.6691C92.4573 20.6944 86.4891 20.655 80.5209 20.66C80.6222 22.381 81.8824 23.8149 83.399 24.5163C85.4205 25.4627 87.7206 25.5972 89.9193 25.4798C92.5343 25.3723 95.1331 24.9983 97.6932 24.4632C97.4506 25.9599 97.2413 27.4602 96.9895 28.955C93.0111 30.0285 88.8432 30.2635 84.7445 30.0193C81.4323 29.7077 77.8984 29.1238 75.292 26.8833C73.2383 25.1652 72.2333 22.4586 72.2572 19.8219C72.1759 16.913 73.4733 14.0873 75.4451 11.9953C77.2595 10.0364 79.7428 8.78697 82.3289 8.21495ZM83.5739 12.7093C82.1294 13.4605 81.2114 14.9488 80.8854 16.512C84.3867 16.5814 87.89 16.5343 91.3932 16.5519C91.4323 14.981 90.6813 13.3109 89.2221 12.6003C87.4652 11.7579 85.3035 11.8272 83.5739 12.7093ZM158.339 9.83918C160.993 8.33466 164.097 7.81329 167.115 7.83027C170.542 7.91626 174.112 9.11636 176.433 11.7322C178.575 14.1479 179.038 17.6476 178.409 20.7202C178.196 20.8643 177.9 20.7603 177.661 20.7933C171.956 20.7727 166.248 20.7762 160.543 20.7667C160.613 22.4285 161.808 23.8308 163.256 24.5414C165.291 25.5489 167.633 25.7111 169.867 25.5883C172.505 25.4789 175.127 25.1142 177.706 24.5625C177.469 26.0518 177.234 27.541 177.025 29.0358C174.227 29.8629 171.295 30.1218 168.39 30.2104C165.594 30.2788 162.779 30.0493 160.061 29.3685C157.743 28.7548 155.461 27.5823 154.017 25.6134C152.352 23.363 151.962 20.3704 152.478 17.6695C153.193 14.3842 155.411 11.4766 158.339 9.83918ZM164.037 12.602C162.361 13.2733 161.215 14.8982 160.907 16.6464C164.414 16.653 167.923 16.6576 171.432 16.6605C171.419 15.1542 170.773 13.5713 169.414 12.8071C167.781 11.9205 165.742 11.9215 164.037 12.602ZM101.391 9.00458C105.768 8.50711 110.164 8.10589 114.57 8.0248C116.726 8.07209 118.908 8.08425 121.023 8.56076C122.409 8.86792 123.796 9.53591 124.612 10.7434C125.574 12.1677 125.735 13.9683 125.612 15.639C125.306 20.37 125.037 25.1048 124.707 29.8339C121.981 29.8247 119.255 29.8192 116.531 29.8248C116.8 25.0309 117.138 20.2407 117.423 15.4486C117.452 14.6382 117.304 13.6943 116.607 13.1845C115.795 12.6246 114.762 12.5992 113.813 12.6016C112.314 12.6015 110.817 12.7457 109.332 12.9435C108.995 18.5553 108.625 24.1651 108.322 29.7769C105.579 29.8472 102.834 29.7788 100.092 29.7992C100.486 22.8645 100.951 15.9355 101.391 9.00458ZM35.1783 29.6146C35.7264 22.4451 36.2559 15.2756 36.8133 8.10614C39.7391 8.1193 42.6649 8.11395 45.5926 8.1234C45.0611 15.2873 44.5094 22.4494 43.9779 29.6152C41.0447 29.6428 38.1115 29.6166 35.1783 29.6146Z" fill="#B3B3B3"/>
</svg>
