<svg width="256" height="50" viewBox="0 0 256 50" fill="none" xmlns="http://www.w3.org/2000/svg">
<path fill-rule="evenodd" clip-rule="evenodd" d="M40.5687 3.64537C40.5687 2.66126 39.848 1.85733 38.9055 1.70487C34.5809 0.873224 28.399 0 20.2905 0C13.8869 0 7.62185 0.609871 1.59244 1.74645C0.677632 1.9405 0.0400391 2.73056 0.0400391 3.68695C0.0400391 3.90872 0.0816212 4.14435 0.150925 4.3384C1.63402 8.51047 3.40819 12.5301 5.41799 16.3972L7.20603 6.91649H17.3659L18.849 16.1754C18.9183 16.6328 19.4173 16.5913 19.6391 16.217L24.5319 6.93035H34.775L31.8504 22.4405C35.3017 16.7576 38.1847 10.7282 40.4579 4.39384C40.5272 4.17207 40.5687 3.93644 40.5687 3.71467V3.67309V3.64537ZM26.0427 14.4567C26.0843 14.1518 25.6269 14.0409 25.3913 14.4151L19.3203 26.0997C18.946 26.7512 18.3362 26.7096 18.3362 26.7096H15.0373C15.0373 26.7096 14.3582 26.7096 14.2473 26.0304L12.4592 14.3874C12.3899 13.8884 11.8494 13.93 11.7801 14.3874L9.88114 24.2147C12.5701 28.456 15.564 32.4756 18.8629 36.2735C19.2094 36.6477 19.7361 36.8833 20.2628 36.8833C20.7895 36.8833 21.3301 36.6616 21.6627 36.2735C24.324 33.238 26.7496 30.05 29.0228 26.6819H23.6725L25.9873 14.429L26.0289 14.4706L26.0427 14.4567Z" fill="#B3B3B3"/>
<path fill-rule="evenodd" clip-rule="evenodd" d="M90.0703 11.7012C89.4208 11.7012 89.4415 12.2997 89.4415 12.2997V15.3666C89.4415 15.3666 89.4139 15.9707 90.0372 15.9707H97.7861V20.9421H90.0938C89.3974 20.9421 89.4401 21.5834 89.4401 21.5834V24.7166C89.4401 24.7166 89.4015 25.3495 90.0883 25.3495H98.3832V30.725H82.9572V6.32426H98.3832V11.6984H90.0689L90.0703 11.7012ZM116.81 17.0863H127.445C127.445 17.0863 127.641 19.3231 127.351 21.3862C127.058 23.4506 126.374 25.1441 125.185 26.7272C122.711 30.0383 119.243 31.5194 115.075 31.5194C107.223 31.5194 101.758 26.3066 101.758 18.6364C101.758 10.711 107.253 5.50098 115.3 5.50098C120.431 5.50098 124.413 7.76536 126.564 12.3328L120.402 14.8509C119.505 12.5258 117.618 10.9661 115.006 10.9661C110.734 10.9661 108.511 14.9488 108.511 18.6681C108.511 22.4632 110.837 26.3052 115.103 26.3052C117.672 26.3052 119.982 25.1413 120.791 22.8576C120.906 22.5404 120.726 22.0702 120.168 22.0702H116.843C116.082 22.0702 116.063 21.3062 116.063 21.3062V17.7965C116.063 17.7965 116.027 17.0849 116.81 17.0849V17.0863ZM52.5949 6.32702H59.6004L64.045 18.2488C64.2298 18.6543 64.758 18.6281 64.9331 18.2488L69.6178 6.32702H76.6964L79.6461 30.7278H73.1522L71.9111 18.2006C71.8601 17.7331 71.2533 17.7565 71.0809 18.2006L65.9261 30.1624C65.9261 30.1624 65.7247 30.7292 65.1372 30.7292H63.6644C63.1018 30.7292 62.8577 30.1403 62.8577 30.1403L57.9745 18.1068C57.758 17.631 57.2146 17.7331 57.1443 18.1482L55.6356 30.7278H49.1831L52.5976 6.32702H52.5949ZM235.471 11.7012C234.816 11.7012 234.837 12.2997 234.837 12.2997V15.3666C234.837 15.3666 234.801 15.9707 235.432 15.9707H243.183V20.9421H235.49C234.79 20.9421 234.837 21.5834 234.837 21.5834V24.7166C234.837 24.7166 234.79 25.3495 235.49 25.3495H243.782V30.725H228.347V6.32426H243.782V11.6984H235.471V11.7012ZM201.382 6.32702H207.867L217.288 19.6375C217.571 20.0747 218.179 20.0747 218.179 19.5713V6.3284H224.669V30.7292H218.179L208.667 17.2421C208.385 16.8767 207.865 17.0394 207.865 17.5262V30.7292H201.381V6.3284L201.382 6.32702ZM177.503 18.1054C177.503 22.3143 180.682 25.384 184.56 25.384C188.426 25.384 191.605 22.3156 191.605 18.1054C191.605 14.7406 188.426 11.6584 184.56 11.6584C180.682 11.6584 177.503 14.7406 177.503 18.1054ZM198.362 18.0737C198.362 25.9729 192.57 31.5345 184.56 31.5345C176.549 31.5345 170.74 25.9729 170.74 18.0737C170.74 10.6889 177.372 5.51339 184.56 5.51339C191.736 5.51339 198.362 10.6889 198.362 18.0737ZM163.471 30.7264H156.98V12.5051C156.98 11.7149 156.233 11.6998 156.233 11.6998H151.205V6.32564H169.243V11.6998H164.289C163.427 11.6998 163.471 12.4541 163.471 12.4541V30.725V30.7264ZM142.688 20.5463L140.866 15.1198C140.685 14.6233 139.943 14.6399 139.763 15.1612L137.948 20.4691C137.789 20.9862 138.065 21.4303 138.669 21.4303H141.975C142.584 21.4303 142.855 20.9862 142.686 20.5449L142.688 20.5463ZM136.162 26.49C135.776 26.49 135.688 26.8099 135.688 26.8099L134.089 30.7264H127.201L136.803 6.32564H143.892L153.29 30.7264H146.375L144.873 26.8099C144.873 26.8099 144.796 26.49 144.429 26.49H136.162Z" fill="#B3B3B3"/>
<path d="M212.805 49.272C212.328 49.7381 211.761 49.9711 211.106 49.9711C210.45 49.9711 209.884 49.7381 209.407 49.272C208.93 48.8059 208.691 48.2515 208.691 47.6116C208.691 46.9703 208.93 46.4174 209.407 45.9512C209.884 45.4851 210.45 45.2521 211.106 45.2521C211.763 45.2521 212.328 45.4851 212.805 45.9512C213.282 46.4174 213.521 46.9703 213.521 47.6116C213.521 48.2529 213.282 48.8059 212.805 49.272ZM252.782 50.0001C251.45 50.0001 250.436 49.6705 249.741 49.01C249.046 48.3494 248.699 47.3979 248.699 46.154V38.8119H246.314V35.5781H248.699V31.7319H252.515V35.5781H255.437V38.8119H252.515V45.1638C252.515 45.6106 252.635 45.9802 252.872 46.2712C253.11 46.5622 253.429 46.7083 253.826 46.7083C254.422 46.7083 254.859 46.5732 255.138 46.3001L255.943 49.0968C255.248 49.6981 254.194 50.0001 252.784 50.0001H252.782ZM241.042 49.6581C238.892 50.2208 236.937 50.0291 235.176 49.083C233.415 48.137 232.24 46.5939 231.654 44.455C231.104 42.4471 231.317 40.5812 232.295 38.8574C233.273 37.1336 234.808 35.9973 236.9 35.4498C238.972 34.9065 240.841 35.1561 242.506 36.1987C244.17 37.2412 245.308 38.8781 245.92 41.1108L246.137 41.8982L235.799 44.6053C236.162 45.4755 236.78 46.1181 237.655 46.5318C238.53 46.9469 239.534 47.0048 240.666 46.7097C241.28 46.5484 241.914 46.2519 242.566 45.8188C243.218 45.3872 243.7 44.9087 244.01 44.386L246.255 46.2712C245.199 47.8957 243.461 49.0237 241.042 49.6581ZM241.932 40.4061C241.663 39.6518 241.161 39.0395 240.426 38.5692C239.69 38.099 238.775 38.0066 237.68 38.2934C236.643 38.5651 235.921 39.0808 235.512 39.8407C235.104 40.6006 234.959 41.388 235.079 42.2016L241.932 40.4061ZM229.44 49.6498H225.655V41.1425C225.655 39.3953 224.771 38.521 223.002 38.521C221.631 38.521 220.537 39.0753 219.722 40.1827V49.6512H215.937V35.5795H219.722V37.415C220.975 35.9587 222.654 35.2306 224.76 35.2306C226.31 35.2306 227.478 35.6291 228.263 36.4248C229.047 37.2219 229.44 38.3182 229.44 39.718V49.6526V49.6498Z" fill="#B3B3B3"/>
</svg>
