<svg width="220" height="31" viewBox="0 0 220 31" fill="none" xmlns="http://www.w3.org/2000/svg">
<path d="M101.045 2.79348L105.478 2.79939L105.445 27.627L101.012 27.621L87.1449 8.98185L87.1201 27.6025L82.6866 27.5966L82.7197 2.76904L87.8921 2.77594L101.021 20.3797L101.045 2.79348Z" fill="#B3B3B3"/>
<path d="M127.623 19.8243L113.141 19.805C113.433 22.1699 115.499 24.0939 118.307 24.0976C120.376 24.1004 122.151 23.216 122.892 21.7392L127.325 21.7451C126.138 25.7337 122.588 28.0935 118.154 28.0876C113.721 28.0817 108.554 23.6413 108.561 18.3211C108.568 13.0009 112.417 8.57251 118.18 8.58019C123.944 8.58788 128.075 13.4702 127.623 19.8243ZM113.145 16.406L123.194 16.4194C122.606 14.0541 120.687 12.5737 118.175 12.5703C115.662 12.567 113.739 14.0423 113.145 16.406Z" fill="#B3B3B3"/>
<path d="M152.17 9.21679L156.603 9.2227L150.519 27.6875L146.381 27.682L142.408 15.1151L138.549 27.6715L134.411 27.666L128.376 9.18506L132.81 9.19097L136.636 21.6099L140.495 9.20122L144.485 9.20654L148.311 21.6254L152.022 9.21659L152.17 9.21679Z" fill="#B3B3B3"/>
<path d="M173.746 9.24533L173.741 13.3833L163.692 13.3699C162.953 13.3689 162.509 13.8116 162.508 14.5505C162.507 15.2895 162.95 15.5856 163.393 15.734L170.632 17.3693C173.291 17.9639 175.062 19.8875 175.059 22.3998C175.056 24.9121 172.687 27.7168 169.436 27.7125L158.796 27.6983L158.801 23.5604L169.442 23.5746C170.18 23.5756 170.624 23.1328 170.626 22.2461C170.627 21.3594 170.331 21.2112 169.593 21.0625L162.353 19.4272C159.694 18.8325 158.071 16.9092 158.074 14.3969C158.078 11.8845 160.446 9.07981 163.697 9.08415L173.894 9.09775L173.746 9.24533Z" fill="#B3B3B3"/>
<path d="M192.662 9.27049L196.948 9.2762L196.923 27.7491L192.638 27.7434L192.641 25.0833L192.493 25.0831C191.309 27.0027 189.09 28.3298 186.282 28.326C181.11 28.3191 177.273 24.3239 177.28 18.5603C177.288 12.7968 181.136 8.81176 186.308 8.81866C189.116 8.82241 191.331 10.1554 192.511 11.9304L192.659 11.9306L192.662 9.41827L192.662 9.27049ZM192.65 18.433C192.654 15.3296 190.441 12.8143 187.042 12.8098C183.643 12.8053 181.423 15.3146 181.419 18.4181C181.414 21.5215 183.628 24.0368 187.027 24.0413C190.426 24.0458 192.646 21.5365 192.65 18.433Z" fill="#B3B3B3"/>
<path d="M219.253 17.1384L219.238 27.7787L214.953 27.773L214.966 17.8716C214.97 14.9159 213.199 12.9923 210.539 12.9888C207.879 12.9853 205.511 15.1988 205.507 18.3023L205.495 27.6126L201.209 27.6069L201.234 9.28181L205.372 9.28732L205.368 11.6519L205.516 11.6521C206.849 9.88043 209.067 8.70112 211.431 8.70427C216.013 8.71038 218.964 11.8178 218.957 16.9902L219.253 17.1384Z" fill="#B3B3B3"/>
<path d="M69.1245 2.75095C66.7599 2.7478 64.5416 3.92711 63.209 5.84651L52.1042 21.6445C50.3272 24.3023 47.6671 24.2987 45.7491 21.9316L45.7495 21.6361C45.6017 21.6359 58.7796 2.73715 58.7796 2.73715L54.7895 2.73183C52.425 2.72868 50.2067 3.90799 48.874 5.8274L41.7667 16.1628L33.8013 4.92059C31.5887 1.81419 28.6354 0.0368541 25.3842 0.0325183C22.133 0.0281825 19.0272 1.79744 16.9541 4.89813L0.963343 27.4877L4.95349 27.493C7.31802 27.4961 9.53634 26.3168 10.8689 24.3974L22.1217 8.45182C24.0465 5.79429 26.7066 5.79783 28.6242 8.46049L15.2983 27.5068L19.2884 27.5121C21.653 27.5153 23.8713 26.3359 25.2039 24.4165L32.4593 13.9336L40.4246 25.1758C42.6372 28.2822 45.5905 30.0595 48.8417 30.0638C52.0929 30.0682 55.1988 28.2989 57.2719 25.1982L73.1148 2.60849L69.1247 2.60317L69.1245 2.75095Z" fill="#B3B3B3"/>
</svg>
