<svg width="176" height="31" viewBox="0 0 176 31" fill="none" xmlns="http://www.w3.org/2000/svg">
<mask id="mask0_2547_46" style="mask-type:luminance" maskUnits="userSpaceOnUse" x="0" y="0" width="176" height="31">
<path d="M175.221 0.233601L0.0532227 0L0.0132153 30L175.181 30.2336L175.221 0.233601Z" fill="white"/>
</mask>
<g mask="url(#mask0_2547_46)">
<path d="M16.6104 1.02916L4.42793 1.01292L0.0522461 1.00708L0.041625 8.9714L0.0157231 28.3942C0.0151354 28.8349 0.376642 29.1817 0.801705 29.1823L3.44592 29.1858L7.8216 29.1917L7.82906 23.6041L16.5646 23.6157C24.5132 23.6263 29.4613 19.2887 29.4706 12.316C29.4956 5.35905 24.559 1.03976 16.6104 1.02916ZM16.4485 16.2178L7.85467 16.2064L7.86504 8.43094L16.4747 8.44242C19.6383 8.44664 21.4623 9.8499 21.459 12.3211C21.44 14.7922 19.628 16.2221 16.4485 16.2178Z" fill="#B3B3B3"/>
<path d="M59.36 1.08622L56.7158 1.08269L52.3401 1.07686L52.3417 11.6855L39.9545 11.669L39.9676 1.84734C39.9682 1.40663 39.6066 1.05988 39.1816 1.05931L36.5531 1.0558L32.1617 1.04995L32.1608 1.75824C32.1608 1.78972 32.145 1.82117 32.1449 1.83691L32.1095 28.4371C32.1089 28.8778 32.4704 29.2246 32.8955 29.2252L35.5239 29.2287L39.8996 29.2345L39.9006 28.4632C39.9007 28.4475 39.9007 28.4475 39.9007 28.4317L39.9131 19.0981L52.3003 19.1146L52.2879 28.4482C52.2873 28.8889 52.6489 29.2357 53.0738 29.2363L55.7338 29.2399L60.1095 29.2457L60.1104 28.5217C60.1105 28.4902 60.1263 28.4744 60.1263 28.443L60.1618 1.84279C60.1623 1.4493 59.8007 1.08681 59.36 1.08622Z" fill="#B3B3B3"/>
<path d="M72.0296 1.89007C72.0302 1.44936 71.6686 1.1026 71.2437 1.10203L68.5837 1.09849L64.208 1.09265L64.1974 9.05697L64.2289 9.05701L64.203 28.4798C64.2024 28.9206 64.5639 29.2673 64.9889 29.2679L67.6489 29.2715L72.0246 29.2773L72.0352 21.313L72.0195 21.3129L72.0454 1.89009L72.0296 1.89007Z" fill="#B3B3B3"/>
<path d="M94.1634 21.9091L84.1846 21.8958L84.2113 1.9063C84.2119 1.46559 83.8505 1.11884 83.4248 1.11827L80.781 1.11474L76.3896 1.10889L76.379 9.0732L76.3531 28.496C76.3525 28.9367 76.714 29.2835 77.139 29.2841L90.5497 29.302L94.9251 29.3078L94.9261 28.5208L94.9339 22.6971C94.9504 22.2565 94.604 21.9097 94.1634 21.9091Z" fill="#B3B3B3"/>
<path d="M124.654 20.5964L118.659 19.0459L118.312 19.5177C118.312 19.5177 115.994 23.1348 111.618 23.1289C107.006 23.1228 103.91 19.9077 103.916 15.1228C103.923 10.2907 107.027 7.06819 111.64 7.07434C115.748 7.07982 117.852 10.0732 117.852 10.0732L118.261 10.5144L124.245 8.94844C124.48 8.88579 124.67 8.71291 124.78 8.49271C124.875 8.27247 124.859 8.00487 124.75 7.80012C122.096 3.01168 117.205 0.156256 111.649 0.148847C103.118 0.13747 96.6872 6.58221 96.6758 15.1289C96.6644 23.6756 103.094 30.1375 111.609 30.1488C117.526 30.1567 122.725 26.9212 125.172 21.7147C125.267 21.4944 125.267 21.2583 125.173 21.0378C125.078 20.8174 124.89 20.6597 124.654 20.5964Z" fill="#B3B3B3"/>
<path d="M142.31 0.189741C133.778 0.178364 127.348 6.6231 127.336 15.1698C127.325 23.7165 133.754 30.1784 142.27 30.1897C150.674 30.2009 157.278 23.6148 157.29 15.2097C157.301 6.8047 150.73 0.200971 142.31 0.189741ZM142.279 23.2485C137.73 23.2424 134.57 19.9171 134.577 15.1794C134.583 10.3474 137.688 7.12482 142.3 7.13098C146.943 7.13717 150.056 10.3837 150.049 15.2001C150.043 19.9535 146.844 23.2546 142.279 23.2485Z" fill="#B3B3B3"/>
<path d="M175.201 15.5326C175.186 15.1549 175.028 14.8241 174.746 14.5876L162.482 4.57649C162.105 4.27694 161.602 4.2133 161.16 4.41733C161.082 4.44871 161.018 4.49584 160.939 4.54296C160.814 4.65297 160.656 4.85737 160.655 5.20365C160.639 5.45547 160.875 5.95945 160.969 6.14846C162.429 8.90486 163.259 12.0539 163.255 15.3908C163.255 15.4223 163.254 15.4537 163.254 15.4852L163.254 15.5009L163.254 15.5167C163.254 15.5482 163.254 15.5797 163.254 15.6111C163.25 18.9479 162.411 22.0947 160.944 24.8473C160.849 25.036 160.612 25.5393 160.628 25.7913C160.643 26.1375 160.801 26.3424 160.91 26.4527C160.974 26.5 161.052 26.5473 161.13 26.5789C161.572 26.7841 162.075 26.7218 162.453 26.4232L174.743 16.4449C175.027 16.2407 175.184 15.9103 175.201 15.5326Z" fill="#B3B3B3"/>
</g>
</svg>
