<?xml version="1.0" encoding="utf-8"?>
<!-- Generator: Adobe Illustrator 24.0.2, SVG Export Plug-In . SVG Version: 6.00 Build 0)  -->
<svg version="1.1" id="_x2014_ÎÓÈ_x5F_5" xmlns="http://www.w3.org/2000/svg" xmlns:xlink="http://www.w3.org/1999/xlink"
	 x="0px" y="0px" viewBox="0 0 182.5 60.8" style="enable-background:new 0 0 182.5 60.8;" xml:space="preserve">
<style type="text/css">
	.st0{fill:#A6A6A6;}
	.st1{fill:#FFFFFF;}
</style>
<path d="M175.1,50.1c0,2.7-2.2,4.9-4.9,4.9H11c-2.7,0-4.9-2.2-4.9-4.9V10.7C6.1,8,8.3,5.8,11,5.8h159.2c2.7,0,4.9,2.2,4.9,4.9
	L175.1,50.1z"/>
<path class="st0" d="M169.7,5.9c2.9,0,5.3,2.4,5.3,5.4v38.4c0,3-2.4,5.4-5.3,5.4H11.5c-2.9,0-5.3-2.4-5.3-5.4V11.2
	c0-3,2.4-5.4,5.3-5.4H169.7z M169.7,4.8H11.5c-3.5,0-6.3,2.9-6.3,6.4v38.4c0,3.5,2.8,6.4,6.3,6.4h158.2c3.5,0,6.3-2.9,6.3-6.4V11.2
	C176,7.7,173.2,4.8,169.7,4.8z"/>
<path class="st1" d="M43.3,30.2c0-4.1,3.3-6.1,3.5-6.2c-1.9-2.8-4.9-3.2-5.9-3.2c-2.5-0.3-4.9,1.5-6.2,1.5c-1.3,0-3.2-1.5-5.4-1.4
	c-2.7,0-5.2,1.6-6.6,4.1c-2.9,5-0.7,12.4,2,16.5c1.4,2,3,4.2,5.1,4.1c2.1-0.1,2.8-1.3,5.3-1.3c2.5,0,3.2,1.3,5.3,1.3
	c2.2,0,3.6-2,4.9-4c1.6-2.3,2.2-4.5,2.3-4.6C47.6,36.7,43.3,35.1,43.3,30.2z"/>
<path class="st1" d="M39.2,18c1.1-1.4,1.9-3.3,1.7-5.2c-1.6,0.1-3.6,1.1-4.8,2.5c-1,1.2-1.9,3.2-1.7,5C36.2,20.5,38.1,19.4,39.2,18z
	"/>
<path class="st1" d="M73.1,45.1h-2.9l-1.6-5h-5.5l-1.5,5h-2.8l5.4-17h3.3L73.1,45.1z M68.1,38l-1.4-4.4c-0.2-0.5-0.4-1.5-0.8-3.2
	h-0.1c-0.2,0.7-0.4,1.8-0.8,3.2L63.6,38H68.1z"/>
<path class="st1" d="M87,38.9c0,2.1-0.6,3.7-1.7,5c-1,1.1-2.2,1.6-3.7,1.6c-1.6,0-2.7-0.6-3.4-1.7h-0.1v6.5h-2.7V36.9
	c0-1.3,0-2.7-0.1-4h2.4l0.2,1.9h0.1c0.9-1.5,2.3-2.2,4.1-2.2c1.4,0,2.6,0.6,3.6,1.7C86.5,35.5,87,37,87,38.9z M84.3,39
	c0-1.2-0.3-2.2-0.8-3c-0.6-0.8-1.4-1.2-2.3-1.2c-0.7,0-1.3,0.2-1.8,0.7c-0.5,0.4-0.9,1-1.1,1.8c-0.1,0.3-0.1,0.6-0.1,0.8v2
	c0,0.9,0.3,1.6,0.8,2.3c0.5,0.6,1.2,0.9,2.1,0.9c1,0,1.8-0.4,2.4-1.2C84,41.3,84.3,40.3,84.3,39z"/>
<path class="st1" d="M101,38.9c0,2.1-0.6,3.7-1.7,5c-1,1.1-2.2,1.6-3.7,1.6c-1.6,0-2.7-0.6-3.4-1.7h-0.1v6.5h-2.7V36.9
	c0-1.3,0-2.7-0.1-4h2.4l0.2,1.9h0.1c0.9-1.5,2.3-2.2,4.1-2.2c1.4,0,2.6,0.6,3.6,1.7C100.5,35.5,101,37,101,38.9z M98.2,39
	c0-1.2-0.3-2.2-0.8-3c-0.6-0.8-1.4-1.2-2.3-1.2c-0.7,0-1.3,0.2-1.8,0.7c-0.5,0.4-0.9,1-1.1,1.8c-0.1,0.3-0.1,0.6-0.1,0.8v2
	c0,0.9,0.3,1.6,0.8,2.3c0.5,0.6,1.2,0.9,2.1,0.9c1,0,1.8-0.4,2.4-1.2C97.9,41.3,98.2,40.3,98.2,39z"/>
<path class="st1" d="M116.6,40.4c0,1.4-0.5,2.6-1.5,3.5c-1.1,1-2.6,1.5-4.6,1.5c-1.8,0-3.3-0.4-4.4-1.1l0.6-2.3
	c1.2,0.7,2.5,1.1,3.9,1.1c1,0,1.8-0.2,2.4-0.7c0.6-0.5,0.8-1.1,0.8-1.9c0-0.7-0.2-1.3-0.7-1.7c-0.5-0.5-1.2-0.9-2.3-1.3
	c-2.9-1.1-4.4-2.7-4.4-4.9c0-1.4,0.5-2.5,1.6-3.4c1-0.9,2.4-1.3,4.1-1.3c1.5,0,2.8,0.3,3.8,0.8l-0.7,2.2c-0.9-0.5-2-0.8-3.2-0.8
	c-0.9,0-1.7,0.2-2.2,0.7c-0.4,0.4-0.7,0.9-0.7,1.5c0,0.7,0.3,1.2,0.8,1.7c0.4,0.4,1.3,0.8,2.5,1.3c1.4,0.6,2.5,1.3,3.2,2.1
	C116.3,38.2,116.6,39.2,116.6,40.4z"/>
<path class="st1" d="M125.5,34.9h-3v6c0,1.5,0.5,2.3,1.6,2.3c0.5,0,0.9,0,1.2-0.1l0.1,2.1c-0.5,0.2-1.2,0.3-2.1,0.3
	c-1.1,0-1.9-0.3-2.5-1c-0.6-0.7-0.9-1.8-0.9-3.3v-6.2h-1.8v-2h1.8v-2.2l2.7-0.8v3.1h3V34.9z"/>
<path class="st1" d="M138.9,38.9c0,1.9-0.5,3.4-1.6,4.6c-1.1,1.2-2.6,1.9-4.5,1.9c-1.8,0-3.2-0.6-4.3-1.8c-1.1-1.2-1.6-2.7-1.6-4.5
	c0-1.9,0.5-3.5,1.6-4.7c1.1-1.2,2.6-1.8,4.4-1.8c1.8,0,3.2,0.6,4.3,1.8C138.4,35.6,138.9,37.1,138.9,38.9z M136.1,39
	c0-1.1-0.2-2.1-0.7-2.9c-0.6-1-1.4-1.5-2.4-1.5c-1.1,0-1.9,0.5-2.5,1.5c-0.5,0.8-0.7,1.8-0.7,3c0,1.1,0.2,2.1,0.7,2.9
	c0.6,1,1.4,1.5,2.4,1.5c1,0,1.8-0.5,2.4-1.5C135.9,41.1,136.1,40.1,136.1,39z"/>
<path class="st1" d="M147.7,35.3c-0.3,0-0.6-0.1-0.9-0.1c-0.9,0-1.7,0.4-2.2,1.1c-0.4,0.6-0.7,1.4-0.7,2.4v6.4h-2.7l0-8.4
	c0-1.4,0-2.7-0.1-3.9h2.4l0.1,2.3h0.1c0.3-0.8,0.7-1.5,1.3-1.9c0.6-0.4,1.3-0.7,1.9-0.7c0.2,0,0.5,0,0.7,0V35.3z"/>
<path class="st1" d="M159.8,38.4c0,0.5,0,0.9-0.1,1.2h-8.1c0,1.2,0.4,2.1,1.2,2.8c0.7,0.6,1.6,0.9,2.6,0.9c1.2,0,2.3-0.2,3.3-0.6
	l0.4,1.9c-1.1,0.5-2.5,0.8-4.1,0.8c-1.9,0-3.4-0.6-4.4-1.7c-1.1-1.1-1.6-2.6-1.6-4.5c0-1.9,0.5-3.4,1.5-4.6c1-1.3,2.5-2,4.2-2
	c1.8,0,3.1,0.7,4,2C159.4,35.6,159.8,36.9,159.8,38.4z M157.2,37.7c0-0.8-0.2-1.5-0.5-2.1c-0.5-0.8-1.2-1.1-2.1-1.1
	c-0.9,0-1.6,0.4-2.1,1.1c-0.5,0.6-0.7,1.3-0.8,2.1L157.2,37.7L157.2,37.7z"/>
<path class="st1" d="M67.2,17.6c0,1.5-0.4,2.6-1.3,3.4c-0.8,0.7-2,1.1-3.5,1.1c-0.8,0-1.4,0-1.9-0.1v-8.2c0.7-0.1,1.5-0.2,2.3-0.2
	c1.4,0,2.5,0.3,3.3,1C66.8,15.3,67.2,16.3,67.2,17.6z M65.8,17.7c0-1-0.3-1.7-0.8-2.2c-0.5-0.5-1.3-0.8-2.2-0.8
	c-0.4,0-0.8,0-1.1,0.1V21c0.2,0,0.5,0,0.9,0c1,0,1.8-0.3,2.4-0.9C65.6,19.6,65.8,18.8,65.8,17.7z"/>
<path class="st1" d="M74.7,19c0,0.9-0.3,1.7-0.8,2.3c-0.5,0.6-1.3,0.9-2.2,0.9c-0.9,0-1.6-0.3-2.1-0.9c-0.5-0.6-0.8-1.3-0.8-2.2
	c0-0.9,0.3-1.7,0.8-2.3c0.5-0.6,1.3-0.9,2.2-0.9c0.9,0,1.6,0.3,2.1,0.9C74.4,17.3,74.7,18.1,74.7,19z M73.3,19c0-0.6-0.1-1-0.4-1.4
	c-0.3-0.5-0.7-0.7-1.2-0.7c-0.5,0-0.9,0.2-1.2,0.7c-0.2,0.4-0.4,0.9-0.4,1.5c0,0.6,0.1,1,0.4,1.4c0.3,0.5,0.7,0.7,1.2,0.7
	c0.5,0,0.9-0.2,1.2-0.7C73.2,20,73.3,19.6,73.3,19z"/>
<path class="st1" d="M84.6,16l-1.9,6h-1.2l-0.8-2.6c-0.2-0.7-0.4-1.3-0.5-1.9h0c-0.1,0.7-0.3,1.3-0.5,1.9L78.9,22h-1.2L76,16h1.4
	l0.7,2.9c0.2,0.7,0.3,1.3,0.4,1.9h0c0.1-0.5,0.3-1.1,0.5-1.9l0.8-2.9h1.1l0.8,2.8c0.2,0.7,0.4,1.3,0.5,2h0c0.1-0.6,0.2-1.3,0.4-2
	l0.7-2.8L84.6,16L84.6,16z"/>
<path class="st1" d="M91.5,22h-1.3v-3.5c0-1.1-0.4-1.6-1.2-1.6c-0.4,0-0.7,0.1-1,0.4c-0.2,0.3-0.4,0.6-0.4,1V22h-1.3v-4.3
	c0-0.5,0-1.1,0-1.7h1.2l0.1,0.9h0c0.2-0.3,0.4-0.5,0.7-0.7c0.4-0.2,0.8-0.3,1.2-0.3c0.6,0,1,0.2,1.4,0.5c0.5,0.4,0.7,1.1,0.7,2V22z"
	/>
<path class="st1" d="M95.1,22h-1.3v-8.8h1.3V22z"/>
<path class="st1" d="M102.9,19c0,0.9-0.3,1.7-0.8,2.3c-0.5,0.6-1.3,0.9-2.2,0.9c-0.9,0-1.6-0.3-2.1-0.9c-0.5-0.6-0.8-1.3-0.8-2.2
	c0-0.9,0.3-1.7,0.8-2.3c0.5-0.6,1.3-0.9,2.2-0.9c0.9,0,1.6,0.3,2.1,0.9C102.7,17.3,102.9,18.1,102.9,19z M101.6,19
	c0-0.6-0.1-1-0.4-1.4c-0.3-0.5-0.7-0.7-1.2-0.7c-0.5,0-0.9,0.2-1.2,0.7c-0.2,0.4-0.4,0.9-0.4,1.5c0,0.6,0.1,1,0.4,1.4
	c0.3,0.5,0.7,0.7,1.2,0.7c0.5,0,0.9-0.2,1.2-0.7C101.4,20,101.6,19.6,101.6,19z"/>
<path class="st1" d="M109.4,22h-1.2l-0.1-0.7h0c-0.4,0.6-1,0.8-1.7,0.8c-0.6,0-1-0.2-1.4-0.5c-0.3-0.3-0.5-0.7-0.5-1.2
	c0-0.7,0.3-1.3,0.9-1.7c0.6-0.4,1.5-0.6,2.6-0.6V18c0-0.8-0.4-1.2-1.2-1.2c-0.6,0-1.1,0.1-1.6,0.4l-0.3-0.9c0.6-0.3,1.2-0.5,2-0.5
	c1.6,0,2.3,0.8,2.3,2.5v2.2C109.3,21.2,109.3,21.7,109.4,22z M108,20V19c-1.5,0-2.2,0.4-2.2,1.2c0,0.3,0.1,0.6,0.3,0.7
	c0.2,0.2,0.4,0.2,0.6,0.2c0.3,0,0.6-0.1,0.8-0.3c0.2-0.2,0.4-0.4,0.5-0.7C108,20.1,108,20,108,20z"/>
<path class="st1" d="M116.9,22h-1.2l-0.1-1h0c-0.4,0.7-1,1.1-1.9,1.1c-0.7,0-1.3-0.3-1.8-0.9s-0.7-1.3-0.7-2.2c0-1,0.3-1.8,0.8-2.4
	c0.5-0.6,1.1-0.8,1.8-0.8c0.8,0,1.4,0.3,1.7,0.8h0v-3.5h1.3v7.2C116.9,21,116.9,21.5,116.9,22z M115.5,19.5v-1c0-0.2,0-0.3,0-0.4
	c-0.1-0.3-0.2-0.6-0.5-0.8c-0.2-0.2-0.5-0.3-0.9-0.3c-0.5,0-0.9,0.2-1.2,0.6c-0.3,0.4-0.4,0.9-0.4,1.5c0,0.6,0.1,1.1,0.4,1.5
	c0.3,0.4,0.7,0.6,1.2,0.6c0.4,0,0.8-0.2,1-0.5C115.4,20.3,115.5,19.9,115.5,19.5z"/>
<path class="st1" d="M128.2,19c0,0.9-0.3,1.7-0.8,2.3c-0.5,0.6-1.3,0.9-2.2,0.9c-0.9,0-1.6-0.3-2.1-0.9c-0.5-0.6-0.8-1.3-0.8-2.2
	c0-0.9,0.3-1.7,0.8-2.3c0.5-0.6,1.3-0.9,2.2-0.9c0.9,0,1.6,0.3,2.1,0.9C128,17.3,128.2,18.1,128.2,19z M126.9,19
	c0-0.6-0.1-1-0.4-1.4c-0.3-0.5-0.7-0.7-1.2-0.7c-0.5,0-0.9,0.2-1.2,0.7c-0.2,0.4-0.4,0.9-0.4,1.5c0,0.6,0.1,1,0.4,1.4
	c0.3,0.5,0.7,0.7,1.2,0.7c0.5,0,0.9-0.2,1.2-0.7C126.7,20,126.9,19.6,126.9,19z"/>
<path class="st1" d="M135.4,22h-1.3v-3.5c0-1.1-0.4-1.6-1.2-1.6c-0.4,0-0.7,0.1-1,0.4c-0.2,0.3-0.4,0.6-0.4,1V22h-1.3v-4.3
	c0-0.5,0-1.1,0-1.7h1.2l0.1,0.9h0c0.2-0.3,0.4-0.5,0.7-0.7c0.4-0.2,0.8-0.3,1.2-0.3c0.6,0,1,0.2,1.4,0.5c0.5,0.4,0.7,1.1,0.7,2V22z"
	/>
<path class="st1" d="M144.3,17h-1.5v2.9c0,0.7,0.3,1.1,0.8,1.1c0.2,0,0.4,0,0.6-0.1l0,1c-0.3,0.1-0.6,0.1-1,0.1
	c-0.5,0-0.9-0.2-1.2-0.5c-0.3-0.3-0.4-0.9-0.4-1.6v-3h-0.9v-1h0.9v-1.1l1.3-0.4V16h1.5L144.3,17L144.3,17z"/>
<path class="st1" d="M151.3,22H150v-3.4c0-1.1-0.4-1.6-1.2-1.6c-0.6,0-1,0.3-1.3,0.9c0,0.1-0.1,0.3-0.1,0.5V22h-1.3v-8.8h1.3v3.6h0
	c0.4-0.7,1-1,1.8-1c0.5,0,1,0.2,1.4,0.5c0.4,0.5,0.7,1.1,0.7,2V22z"/>
<path class="st1" d="M158.6,18.7c0,0.2,0,0.4,0,0.6h-4c0,0.6,0.2,1.1,0.6,1.4c0.3,0.3,0.8,0.4,1.3,0.4c0.6,0,1.1-0.1,1.6-0.3
	l0.2,0.9c-0.6,0.2-1.2,0.4-2,0.4c-0.9,0-1.7-0.3-2.2-0.8c-0.5-0.6-0.8-1.3-0.8-2.2c0-0.9,0.2-1.7,0.7-2.3c0.5-0.6,1.2-1,2.1-1
	c0.9,0,1.5,0.3,1.9,1C158.4,17.3,158.6,18,158.6,18.7z M157.3,18.4c0-0.4-0.1-0.7-0.3-1c-0.2-0.4-0.6-0.6-1.1-0.6
	c-0.4,0-0.8,0.2-1.1,0.5c-0.2,0.3-0.4,0.6-0.4,1H157.3z"/>
</svg>
