<svg width="171" height="53" viewBox="0 0 171 53" fill="none" xmlns="http://www.w3.org/2000/svg">
<path d="M164.322 52.7671H6.3201C2.84562 52.7671 0 49.7973 0 46.1712V6.5958C0 2.9697 2.84562 -0.000102747 6.3201 -0.000102747H164.322C167.797 -0.000102747 170.643 2.9697 170.643 6.5958V46.1712C170.643 49.7973 167.797 52.7671 164.322 52.7671Z" fill="black"/>
<path d="M164.322 1.05689C167.249 1.05689 169.63 3.5419 169.63 6.5958V46.1712C169.63 49.2251 167.249 51.7101 164.322 51.7101H6.3201C3.39389 51.7101 1.0128 49.2251 1.0128 46.1712V6.5958C1.0128 3.5419 3.39389 1.05689 6.3201 1.05689H164.322ZM164.322 -0.000102747H6.3201C2.84562 -0.000102747 0 2.9697 0 6.5958V46.1712C0 49.7973 2.84562 52.7671 6.3201 52.7671H164.322C167.797 52.7671 170.643 49.7973 170.643 46.1712V6.5958C170.643 2.9697 167.797 -0.000102747 164.322 -0.000102747Z" fill="#A6A6A6"/>
<path d="M88.2486 28.6955C85.2797 28.6955 82.8544 31.0535 82.8544 34.3069C82.8544 37.534 85.2797 39.9167 88.2486 39.9167C91.2238 39.9167 93.6491 37.534 93.6491 34.3069C93.6491 31.0535 91.2238 28.6955 88.2486 28.6955ZM88.2486 37.7071C86.6196 37.7071 85.2181 36.3038 85.2181 34.3069C85.2181 32.2836 86.6196 30.9051 88.2486 30.9051C89.8776 30.9051 91.2854 32.2836 91.2854 34.3069C91.2854 36.3038 89.8776 37.7071 88.2486 37.7071V37.7071ZM76.479 28.6955C73.5038 28.6955 71.0848 31.0535 71.0848 34.3069C71.0848 37.534 73.5038 39.9167 76.479 39.9167C79.4526 39.9167 81.8732 37.534 81.8732 34.3069C81.8732 31.0535 79.4526 28.6955 76.479 28.6955ZM76.479 37.7071C74.8484 37.7071 73.4422 36.3038 73.4422 34.3069C73.4422 32.2836 74.8484 30.9051 76.479 30.9051C78.108 30.9051 79.5095 32.2836 79.5095 34.3069C79.5095 36.3038 78.108 37.7071 76.479 37.7071ZM62.4737 30.4153V32.7998H67.9295C67.7699 34.1321 67.3433 35.1116 66.6892 35.7943C65.8928 36.6188 64.6525 37.534 62.4737 37.534C59.1161 37.534 56.487 34.706 56.487 31.2019C56.487 27.6978 59.1161 24.8698 62.4737 24.8698C64.2891 24.8698 65.61 25.6102 66.5849 26.5699L68.1949 24.8896C66.8314 23.5309 65.0175 22.4871 62.4737 22.4871C57.8695 22.4871 54 26.3968 54 31.2019C54 36.007 57.8695 39.9167 62.4737 39.9167C64.9622 39.9167 66.8314 39.0659 68.3008 37.4696C69.8066 35.8982 70.2758 33.6886 70.2758 31.9044C70.2758 31.3503 70.2316 30.8408 70.1526 30.4153H62.4737ZM119.743 32.2638C119.299 31.009 117.929 28.6955 115.139 28.6955C112.374 28.6955 110.072 30.9694 110.072 34.3069C110.072 37.4499 112.35 39.9167 115.404 39.9167C117.874 39.9167 119.299 38.3453 119.885 37.4301L118.053 36.1554C117.441 37.0887 116.608 37.7071 115.404 37.7071C114.208 37.7071 113.35 37.1349 112.801 36.007L119.991 32.902L119.743 32.2638V32.2638ZM112.412 34.1321C112.35 31.9687 114.022 30.8606 115.22 30.8606C116.158 30.8606 116.954 31.3503 117.22 32.0511L112.412 34.1321V34.1321ZM106.567 39.5754H108.931V23.0856H106.567V39.5754ZM102.696 29.9454H102.617C102.086 29.2891 101.074 28.6955 99.7907 28.6955C97.0983 28.6955 94.6366 31.1623 94.6366 34.3251C94.6366 37.4697 97.0983 39.9167 99.7907 39.9167C101.074 39.9167 102.086 39.3182 102.617 38.6421H102.696V39.4468C102.696 41.5921 101.598 42.7447 99.827 42.7447C98.3829 42.7447 97.487 41.6564 97.1173 40.7412L95.0617 41.6366C95.6542 43.124 97.2231 44.9543 99.827 44.9543C102.598 44.9543 104.937 43.2526 104.937 39.112V29.0368H102.696V29.9454V29.9454ZM99.9929 37.7071C98.3639 37.7071 97.0003 36.284 97.0003 34.3251C97.0003 32.3479 98.3639 30.9051 99.9929 30.9051C101.598 30.9051 102.864 32.3479 102.864 34.3251C102.864 36.284 101.598 37.7071 99.9929 37.7071V37.7071ZM130.81 23.0856H125.156V39.5754H127.514V33.3274H130.81C133.428 33.3274 135.995 31.3503 135.995 28.2057C135.995 25.0628 133.421 23.0856 130.81 23.0856V23.0856ZM130.871 31.0337H127.514V25.3794H130.871C132.631 25.3794 133.636 26.9047 133.636 28.2057C133.636 29.482 132.631 31.0337 130.871 31.0337ZM145.444 28.6641C143.741 28.6641 141.969 29.449 141.241 31.1887L143.333 32.1039C143.783 31.1887 144.611 30.8919 145.487 30.8919C146.709 30.8919 147.95 31.6587 147.969 33.0125V33.1856C147.542 32.9284 146.629 32.5475 145.505 32.5475C143.252 32.5475 140.957 33.8419 140.957 36.2577C140.957 38.4673 142.802 39.8903 144.877 39.8903C146.463 39.8903 147.338 39.1434 147.888 38.2744H147.969V39.549H150.246V33.2235C150.246 30.2999 148.154 28.6641 145.444 28.6641ZM145.159 37.7005C144.388 37.7005 143.314 37.3015 143.314 36.3038C143.314 35.0275 144.654 34.5378 145.814 34.5378C146.852 34.5378 147.338 34.7769 147.969 35.0918C147.784 36.6188 146.525 37.7005 145.159 37.7005V37.7005ZM158.541 29.0253L155.831 36.1736H155.75L152.949 29.0253H150.407L154.616 39.0147L152.214 44.5734H154.678L161.164 29.0253H158.541V29.0253ZM137.291 39.5754H139.655V23.0856H137.291V39.5754Z" fill="white"/>
<path d="M13.1892 9.94482C12.8179 10.3505 12.603 10.982 12.603 11.7999V40.9736C12.603 41.7915 12.8179 42.423 13.1892 42.8287L13.2809 42.9177L28.9452 26.5764V26.1905L13.2809 9.84918L13.1892 9.94482Z" fill="url(#paint0_linear_788_560)"/>
<path d="M34.1615 32.0261L28.9458 26.5763V26.1904L34.1678 20.7405L34.2847 20.8114L40.4689 24.4837C42.2338 25.5259 42.2338 27.2408 40.4689 28.2895L34.2847 31.9552L34.1615 32.0261V32.0261Z" fill="url(#paint1_linear_788_560)"/>
<path d="M34.2848 31.9552L28.9459 26.3833L13.1899 42.8285C13.7761 43.4716 14.732 43.5491 15.8191 42.906L34.2848 31.9552" fill="url(#paint2_linear_788_560)"/>
<path d="M34.2848 20.8114L15.8191 9.86058C14.732 9.22407 13.7761 9.30157 13.1899 9.94467L28.9459 26.3833L34.2848 20.8114Z" fill="url(#paint3_linear_788_560)"/>
<path d="M56.77 17V9.19H59.619C60.235 9.19 60.796 9.28533 61.302 9.476C61.8153 9.65933 62.2517 9.92333 62.611 10.268C62.9777 10.6053 63.26 11.0123 63.458 11.489C63.656 11.9657 63.755 12.4973 63.755 13.084C63.755 13.6707 63.656 14.206 63.458 14.69C63.26 15.1667 62.9777 15.5773 62.611 15.922C62.2443 16.2667 61.808 16.5343 61.302 16.725C60.796 16.9083 60.235 17 59.619 17H56.77ZM58.112 15.801H59.553C60.1323 15.801 60.631 15.691 61.049 15.471C61.467 15.251 61.7897 14.9393 62.017 14.536C62.2517 14.1253 62.369 13.645 62.369 13.095C62.369 12.545 62.2517 12.0683 62.017 11.665C61.7897 11.2543 61.4633 10.939 61.038 10.719C60.62 10.499 60.125 10.389 59.553 10.389H58.112V15.801ZM66.3397 9.641C66.3397 9.78033 66.3031 9.90867 66.2297 10.026C66.1637 10.1433 66.0721 10.2387 65.9547 10.312C65.8374 10.378 65.7091 10.411 65.5697 10.411C65.4304 10.411 65.3021 10.378 65.1847 10.312C65.0674 10.2387 64.9721 10.1433 64.8987 10.026C64.8327 9.90867 64.7997 9.78033 64.7997 9.641C64.7997 9.50167 64.8327 9.37333 64.8987 9.256C64.9721 9.13867 65.0674 9.047 65.1847 8.981C65.3021 8.90767 65.4304 8.871 65.5697 8.871C65.7091 8.871 65.8374 8.90767 65.9547 8.981C66.0721 9.047 66.1637 9.13867 66.2297 9.256C66.3031 9.37333 66.3397 9.50167 66.3397 9.641ZM64.9427 17V11.247H66.2077V17H64.9427ZM69.5436 17.165C69.1696 17.165 68.8212 17.1027 68.4986 16.978C68.1832 16.8533 67.9119 16.6773 67.6846 16.45C67.4646 16.2153 67.3069 15.9403 67.2116 15.625L68.3556 15.328C68.4509 15.5773 68.6049 15.7717 68.8176 15.911C69.0302 16.0503 69.2759 16.12 69.5546 16.12C69.8406 16.12 70.0752 16.054 70.2586 15.922C70.4419 15.7827 70.5336 15.6067 70.5336 15.394C70.5336 15.2107 70.4602 15.0567 70.3136 14.932C70.1669 14.8073 69.9286 14.7157 69.5986 14.657L69.2356 14.591C68.6196 14.481 68.1539 14.283 67.8386 13.997C67.5306 13.711 67.3766 13.3443 67.3766 12.897C67.3766 12.5377 67.4682 12.2223 67.6516 11.951C67.8349 11.6797 68.0879 11.467 68.4106 11.313C68.7332 11.159 69.1036 11.082 69.5216 11.082C69.8809 11.082 70.2109 11.1443 70.5116 11.269C70.8122 11.3937 71.0652 11.5697 71.2706 11.797C71.4759 12.0243 71.6226 12.292 71.7106 12.6L70.5776 12.875C70.4896 12.6403 70.3502 12.457 70.1596 12.325C69.9762 12.1857 69.7599 12.116 69.5106 12.116C69.2539 12.116 69.0412 12.182 68.8726 12.314C68.7039 12.4387 68.6196 12.6 68.6196 12.798C68.6196 12.9667 68.6929 13.106 68.8396 13.216C68.9936 13.326 69.2502 13.414 69.6096 13.48L69.9726 13.546C70.5592 13.6487 71.0102 13.8503 71.3256 14.151C71.6409 14.4517 71.7986 14.8257 71.7986 15.273C71.7986 15.5443 71.7436 15.7973 71.6336 16.032C71.5236 16.2593 71.3659 16.461 71.1606 16.637C70.9626 16.8057 70.7242 16.934 70.4456 17.022C70.1742 17.1173 69.8736 17.165 69.5436 17.165ZM72.8383 19.178V11.247H73.9933L74.0483 12.171C74.2536 11.8337 74.5249 11.5697 74.8623 11.379C75.1996 11.181 75.5773 11.082 75.9953 11.082C76.3766 11.082 76.7286 11.159 77.0513 11.313C77.3813 11.467 77.6673 11.6797 77.9093 11.951C78.1513 12.2223 78.3383 12.5413 78.4703 12.908C78.6096 13.2747 78.6793 13.6707 78.6793 14.096C78.6793 14.5287 78.6096 14.932 78.4703 15.306C78.3309 15.68 78.1366 16.0063 77.8873 16.285C77.6379 16.5637 77.3446 16.78 77.0073 16.934C76.6773 17.088 76.3179 17.165 75.9293 17.165C75.5479 17.165 75.1996 17.0843 74.8843 16.923C74.5689 16.7617 74.3086 16.5343 74.1033 16.241V19.178H72.8383ZM75.7313 16.021C76.0466 16.021 76.3289 15.9403 76.5783 15.779C76.8276 15.6103 77.0219 15.383 77.1613 15.097C77.3079 14.811 77.3813 14.4847 77.3813 14.118C77.3813 13.7513 77.3079 13.4287 77.1613 13.15C77.0219 12.864 76.8276 12.6403 76.5783 12.479C76.3289 12.3103 76.0466 12.226 75.7313 12.226C75.4159 12.226 75.1336 12.3103 74.8843 12.479C74.6349 12.6403 74.4369 12.864 74.2903 13.15C74.1509 13.4287 74.0813 13.7513 74.0813 14.118C74.0813 14.4847 74.1509 14.811 74.2903 15.097C74.4369 15.383 74.6349 15.6103 74.8843 15.779C75.1336 15.9403 75.4159 16.021 75.7313 16.021ZM82.5152 17.165C82.0972 17.165 81.7085 17.0917 81.3492 16.945C80.9972 16.791 80.6892 16.5783 80.4252 16.307C80.1612 16.0283 79.9558 15.7057 79.8092 15.339C79.6625 14.965 79.5892 14.558 79.5892 14.118C79.5892 13.6853 79.6625 13.2857 79.8092 12.919C79.9558 12.545 80.1612 12.2223 80.4252 11.951C80.6965 11.6723 81.0118 11.4597 81.3712 11.313C81.7378 11.159 82.1338 11.082 82.5592 11.082C82.9772 11.082 83.3622 11.159 83.7142 11.313C84.0735 11.4597 84.3852 11.6723 84.6492 11.951C84.9132 12.2223 85.1185 12.5413 85.2652 12.908C85.4118 13.2747 85.4852 13.678 85.4852 14.118C85.4852 14.558 85.4118 14.965 85.2652 15.339C85.1185 15.7057 84.9095 16.0283 84.6382 16.307C84.3742 16.5783 84.0588 16.791 83.6922 16.945C83.3328 17.0917 82.9405 17.165 82.5152 17.165ZM82.5372 16.021C82.8525 16.021 83.1348 15.9403 83.3842 15.779C83.6335 15.6103 83.8278 15.383 83.9672 15.097C84.1138 14.811 84.1872 14.4847 84.1872 14.118C84.1872 13.7513 84.1138 13.4287 83.9672 13.15C83.8278 12.864 83.6335 12.6403 83.3842 12.479C83.1348 12.3103 82.8525 12.226 82.5372 12.226C82.2218 12.226 81.9395 12.3103 81.6902 12.479C81.4408 12.6403 81.2428 12.864 81.0962 13.15C80.9568 13.4287 80.8872 13.7513 80.8872 14.118C80.8872 14.4847 80.9568 14.811 81.0962 15.097C81.2428 15.383 81.4408 15.6103 81.6902 15.779C81.9395 15.9403 82.2218 16.021 82.5372 16.021ZM86.599 17V11.247H87.754L87.798 12.039C87.9667 11.7457 88.2013 11.5147 88.502 11.346C88.81 11.17 89.162 11.082 89.558 11.082C89.9907 11.082 90.3647 11.1847 90.68 11.39C91.0027 11.5953 91.252 11.885 91.428 12.259C91.604 12.633 91.692 13.073 91.692 13.579V17H90.427V13.722C90.427 13.2527 90.3207 12.886 90.108 12.622C89.9027 12.358 89.613 12.226 89.239 12.226C88.975 12.226 88.7367 12.2883 88.524 12.413C88.3187 12.5377 88.1573 12.7063 88.04 12.919C87.9227 13.1317 87.864 13.3773 87.864 13.656V17H86.599ZM94.452 9.641C94.452 9.78033 94.4154 9.90867 94.342 10.026C94.276 10.1433 94.1844 10.2387 94.067 10.312C93.9497 10.378 93.8214 10.411 93.682 10.411C93.5427 10.411 93.4144 10.378 93.297 10.312C93.1797 10.2387 93.0844 10.1433 93.011 10.026C92.945 9.90867 92.912 9.78033 92.912 9.641C92.912 9.50167 92.945 9.37333 93.011 9.256C93.0844 9.13867 93.1797 9.047 93.297 8.981C93.4144 8.90767 93.5427 8.871 93.682 8.871C93.8214 8.871 93.9497 8.90767 94.067 8.981C94.1844 9.047 94.276 9.13867 94.342 9.256C94.4154 9.37333 94.452 9.50167 94.452 9.641ZM93.055 17V11.247H94.32V17H93.055ZM95.6869 17V8.816H96.9519V12.083C97.1572 11.7677 97.4249 11.522 97.7549 11.346C98.0849 11.17 98.4479 11.082 98.8439 11.082C99.2252 11.082 99.5772 11.159 99.8999 11.313C100.23 11.467 100.516 11.6797 100.758 11.951C101 12.2223 101.187 12.5413 101.319 12.908C101.458 13.2747 101.528 13.6707 101.528 14.096C101.528 14.5287 101.458 14.932 101.319 15.306C101.18 15.68 100.985 16.0063 100.736 16.285C100.487 16.5637 100.193 16.78 99.8559 16.934C99.5259 17.088 99.1665 17.165 98.7779 17.165C98.3745 17.165 98.0079 17.077 97.6779 16.901C97.3552 16.725 97.0949 16.4757 96.8969 16.153L96.8419 17H95.6869ZM98.5799 16.021C98.8952 16.021 99.1775 15.9403 99.4269 15.779C99.6762 15.6103 99.8705 15.383 100.01 15.097C100.157 14.811 100.23 14.4847 100.23 14.118C100.23 13.7513 100.157 13.4287 100.01 13.15C99.8705 12.864 99.6762 12.6403 99.4269 12.479C99.1775 12.3103 98.8952 12.226 98.5799 12.226C98.2645 12.226 97.9822 12.3103 97.7329 12.479C97.4835 12.6403 97.2855 12.864 97.1389 13.15C96.9995 13.4287 96.9299 13.7513 96.9299 14.118C96.9299 14.4847 96.9995 14.811 97.1389 15.097C97.2855 15.383 97.4835 15.6103 97.7329 15.779C97.9822 15.9403 98.2645 16.021 98.5799 16.021ZM102.637 17V8.816H103.902V17H102.637ZM107.942 17.165C107.517 17.165 107.124 17.0917 106.765 16.945C106.413 16.791 106.105 16.5783 105.841 16.307C105.577 16.0357 105.372 15.7167 105.225 15.35C105.086 14.976 105.016 14.5653 105.016 14.118C105.016 13.6853 105.086 13.2857 105.225 12.919C105.372 12.5523 105.57 12.2333 105.819 11.962C106.076 11.6833 106.376 11.467 106.721 11.313C107.066 11.159 107.44 11.082 107.843 11.082C108.246 11.082 108.613 11.1553 108.943 11.302C109.28 11.4413 109.57 11.643 109.812 11.907C110.061 12.171 110.252 12.4863 110.384 12.853C110.516 13.2123 110.582 13.612 110.582 14.052V14.426H106.325C106.362 14.7633 106.45 15.0567 106.589 15.306C106.736 15.548 106.923 15.735 107.15 15.867C107.377 15.999 107.641 16.065 107.942 16.065C108.543 16.065 109.013 15.7973 109.35 15.262L110.461 15.691C110.329 15.9917 110.135 16.2557 109.878 16.483C109.629 16.703 109.335 16.8717 108.998 16.989C108.668 17.1063 108.316 17.165 107.942 17.165ZM107.843 12.105C107.586 12.105 107.355 12.1637 107.15 12.281C106.952 12.3983 106.783 12.5633 106.644 12.776C106.505 12.9887 106.409 13.238 106.358 13.524H109.262C109.218 13.238 109.134 12.9887 109.009 12.776C108.884 12.5633 108.719 12.3983 108.514 12.281C108.316 12.1637 108.092 12.105 107.843 12.105ZM116.675 17.165C116.25 17.165 115.858 17.0917 115.498 16.945C115.146 16.791 114.838 16.5783 114.574 16.307C114.31 16.0357 114.105 15.7167 113.958 15.35C113.819 14.976 113.749 14.5653 113.749 14.118C113.749 13.6853 113.819 13.2857 113.958 12.919C114.105 12.5523 114.303 12.2333 114.552 11.962C114.809 11.6833 115.11 11.467 115.454 11.313C115.799 11.159 116.173 11.082 116.576 11.082C116.98 11.082 117.346 11.1553 117.676 11.302C118.014 11.4413 118.303 11.643 118.545 11.907C118.795 12.171 118.985 12.4863 119.117 12.853C119.249 13.2123 119.315 13.612 119.315 14.052V14.426H115.058C115.095 14.7633 115.183 15.0567 115.322 15.306C115.469 15.548 115.656 15.735 115.883 15.867C116.111 15.999 116.375 16.065 116.675 16.065C117.277 16.065 117.746 15.7973 118.083 15.262L119.194 15.691C119.062 15.9917 118.868 16.2557 118.611 16.483C118.362 16.703 118.069 16.8717 117.731 16.989C117.401 17.1063 117.049 17.165 116.675 17.165ZM116.576 12.105C116.32 12.105 116.089 12.1637 115.883 12.281C115.685 12.3983 115.517 12.5633 115.377 12.776C115.238 12.9887 115.143 13.238 115.091 13.524H117.995C117.951 13.238 117.867 12.9887 117.742 12.776C117.618 12.5633 117.453 12.3983 117.247 12.281C117.049 12.1637 116.826 12.105 116.576 12.105ZM120.394 17V11.247H121.549L121.593 12.039C121.762 11.7457 121.996 11.5147 122.297 11.346C122.605 11.17 122.957 11.082 123.353 11.082C123.786 11.082 124.16 11.1847 124.475 11.39C124.798 11.5953 125.047 11.885 125.223 12.259C125.399 12.633 125.487 13.073 125.487 13.579V17H124.222V13.722C124.222 13.2527 124.116 12.886 123.903 12.622C123.698 12.358 123.408 12.226 123.034 12.226C122.77 12.226 122.532 12.2883 122.319 12.413C122.114 12.5377 121.952 12.7063 121.835 12.919C121.718 13.1317 121.659 13.3773 121.659 13.656V17H120.394Z" fill="white"/>
<defs>
<linearGradient id="paint0_linear_788_560" x1="27.5544" y1="41.2774" x2="5.43558" y2="20.0835" gradientUnits="userSpaceOnUse">
<stop stop-color="#00A0FF"/>
<stop offset="0.0066" stop-color="#00A1FF"/>
<stop offset="0.2601" stop-color="#00BEFF"/>
<stop offset="0.5122" stop-color="#00D2FF"/>
<stop offset="0.7604" stop-color="#00DFFF"/>
<stop offset="1" stop-color="#00E3FF"/>
</linearGradient>
<linearGradient id="paint1_linear_788_560" x1="42.7671" y1="26.3815" x2="12.1817" y2="26.3815" gradientUnits="userSpaceOnUse">
<stop stop-color="#FFE000"/>
<stop offset="0.4087" stop-color="#FFBD00"/>
<stop offset="0.7754" stop-color="#FFA500"/>
<stop offset="1" stop-color="#FF9C00"/>
</linearGradient>
<linearGradient id="paint2_linear_788_560" x1="31.3817" y1="23.3543" x2="1.38678" y2="-5.3864" gradientUnits="userSpaceOnUse">
<stop stop-color="#FF3A44"/>
<stop offset="1" stop-color="#C31162"/>
</linearGradient>
<linearGradient id="paint3_linear_788_560" x1="9.22383" y1="52.5345" x2="22.6179" y2="39.7006" gradientUnits="userSpaceOnUse">
<stop stop-color="#32A071"/>
<stop offset="0.0685" stop-color="#2DA771"/>
<stop offset="0.4762" stop-color="#15CF74"/>
<stop offset="0.8009" stop-color="#06E775"/>
<stop offset="1" stop-color="#00F076"/>
</linearGradient>
</defs>
</svg>
