<svg width="171" height="53" viewBox="0 0 171 53" fill="none" xmlns="http://www.w3.org/2000/svg">
<path d="M169.928 46.6818C169.928 49.4938 167.753 51.7716 165.062 51.7716H5.82153C3.13218 51.7716 0.949219 49.4938 0.949219 46.6818V6.09207C0.949219 3.28137 3.13218 0.995605 5.82153 0.995605H165.061C167.753 0.995605 169.927 3.28137 169.927 6.09207L169.928 46.6818Z" fill="black"/>
<path d="M164.549 1.05689C167.479 1.05689 169.863 3.5419 169.863 6.5958V46.1712C169.863 49.2251 167.479 51.7101 164.549 51.7101H6.3288C3.39856 51.7101 1.01419 49.2251 1.01419 46.1712V6.5958C1.01419 3.5419 3.39856 1.05689 6.3288 1.05689H164.549ZM164.549 -0.000102747H6.3288C2.84954 -0.000102747 0 2.9697 0 6.5958V46.1712C0 49.7973 2.84954 52.7671 6.3288 52.7671H164.549C168.028 52.7671 170.877 49.7973 170.877 46.1712V6.5958C170.877 2.9697 168.028 -0.000102747 164.549 -0.000102747Z" fill="#A6A6A6"/>
<path d="M37.7736 26.0987C37.7339 21.847 41.3926 19.7785 41.5599 19.6822C39.4878 16.7761 36.2761 16.379 35.1475 16.3474C32.4501 16.0743 29.8336 17.9 28.4595 17.9C27.058 17.9 24.942 16.3737 22.6615 16.4186C19.7268 16.4621 16.9814 18.0966 15.4757 20.6347C12.3682 25.8098 14.6858 33.4149 17.663 37.598C19.1522 39.6467 20.8925 41.9342 23.1703 41.8537C25.3987 41.7653 26.2311 40.487 28.9203 40.487C31.5848 40.487 32.3665 41.8537 34.6895 41.8022C37.0811 41.7653 38.5869 39.7443 40.024 37.6772C41.745 35.329 42.4362 33.0165 42.4636 32.8978C42.4074 32.8793 37.8189 31.1947 37.7736 26.0987Z" fill="white"/>
<path d="M33.3854 13.5955C34.5839 12.1537 35.404 10.1921 35.1763 8.20142C33.4416 8.27529 31.2721 9.3557 30.0228 10.7659C28.9175 12.0086 27.9302 14.0454 28.1853 15.9608C30.1339 16.1007 32.1347 15.015 33.3854 13.5955Z" fill="white"/>
<path d="M68.2208 41.5593H65.3463L63.7717 36.4026H58.2985L56.7986 41.5593H54L59.4225 24.0037H62.7717L68.2208 41.5593ZM63.297 34.2392L61.873 29.655C61.7224 29.1867 61.4401 28.0839 61.0237 26.3478H60.9731C60.8072 27.0945 60.5402 28.1973 60.1731 29.655L58.7744 34.2392H63.297V34.2392Z" fill="white"/>
<path d="M82.1651 35.0745C82.1651 37.2274 81.6069 38.9292 80.4905 40.1784C79.4906 41.2905 78.2489 41.8459 76.7667 41.8459C75.1668 41.8459 74.0174 41.247 73.3175 40.0491H73.2669V46.7176H70.5683V33.068C70.5683 31.7146 70.5341 30.3255 70.4683 28.9007H72.8416L72.9922 30.9072H73.0428C73.9428 29.3954 75.3085 28.6409 77.1413 28.6409C78.5742 28.6409 79.7703 29.2305 80.7272 30.4112C81.6867 31.5932 82.1651 33.1472 82.1651 35.0745ZM79.4159 35.1774C79.4159 33.9453 79.1501 32.9295 78.616 32.1301C78.0324 31.2964 77.2489 30.8795 76.2667 30.8795C75.6009 30.8795 74.9959 31.1117 74.4554 31.5694C73.9137 32.0312 73.5592 32.634 73.3934 33.3807C73.3099 33.7289 73.2681 34.0139 73.2681 34.2381V36.3488C73.2681 37.2696 73.539 38.0466 74.0807 38.6811C74.6225 39.3157 75.3262 39.6323 76.192 39.6323C77.2084 39.6323 77.9995 39.2233 78.5653 38.4081C79.1324 37.5915 79.4159 36.5151 79.4159 35.1774Z" fill="white"/>
<path d="M96.136 35.0745C96.136 37.2274 95.5778 38.9292 94.4602 40.1784C93.4615 41.2905 92.2198 41.8459 90.7376 41.8459C89.1377 41.8459 87.9884 41.247 87.2897 40.0491H87.239V46.7176H84.5404V33.068C84.5404 31.7146 84.5062 30.3255 84.4404 28.9007H86.8137L86.9644 30.9072H87.015C87.9137 29.3954 89.2794 28.6409 91.1135 28.6409C92.5451 28.6409 93.7412 29.2305 94.7007 30.4112C95.6563 31.5932 96.136 33.1472 96.136 35.0745ZM93.3868 35.1774C93.3868 33.9453 93.1197 32.9295 92.5856 32.1301C92.0021 31.2964 91.2211 30.8795 90.2376 30.8795C89.5706 30.8795 88.9668 31.1117 88.425 31.5694C87.8833 32.0312 87.5301 32.634 87.3643 33.3807C87.2821 33.7289 87.239 34.0139 87.239 34.2381V36.3488C87.239 37.2696 87.5099 38.0466 88.0491 38.6811C88.5909 39.3144 89.2946 39.6323 90.1629 39.6323C91.1793 39.6323 91.9704 39.2233 92.5362 38.4081C93.1033 37.5915 93.3868 36.5151 93.3868 35.1774Z" fill="white"/>
<path d="M111.756 36.6363C111.756 38.1296 111.258 39.3446 110.26 40.2825C109.162 41.3075 107.634 41.8193 105.671 41.8193C103.859 41.8193 102.406 41.4553 101.306 40.7257L101.931 38.3816C103.116 39.1282 104.416 39.5029 105.832 39.5029C106.848 39.5029 107.64 39.2628 108.208 38.7852C108.774 38.3077 109.056 37.6666 109.056 36.8671C109.056 36.1548 108.823 35.5546 108.356 35.0678C107.891 34.581 107.115 34.1285 106.032 33.7104C103.083 32.564 101.609 30.8847 101.609 28.6764C101.609 27.2332 102.126 26.0499 103.16 25.1291C104.19 24.207 105.565 23.7466 107.284 23.7466C108.817 23.7466 110.09 24.0249 111.106 24.5803L110.432 26.873C109.482 26.3348 108.409 26.0657 107.208 26.0657C106.259 26.0657 105.517 26.3097 104.985 26.7952C104.536 27.2292 104.311 27.7582 104.311 28.3848C104.311 29.0787 104.568 29.6526 105.084 30.1037C105.533 30.5206 106.35 30.9717 107.534 31.4585C108.984 32.0667 110.048 32.7777 110.733 33.5929C111.415 34.4056 111.756 35.4226 111.756 36.6363Z" fill="white"/>
<path d="M120.678 31.0114H117.703V37.1575C117.703 38.7207 118.227 39.5017 119.278 39.5017C119.76 39.5017 120.16 39.4581 120.477 39.3711L120.551 41.5068C120.02 41.7139 119.32 41.8182 118.453 41.8182C117.387 41.8182 116.554 41.4791 115.953 40.8024C115.354 40.1243 115.053 38.9872 115.053 37.3897V31.0088H113.281V28.8981H115.053V26.5803L117.703 25.7466V28.8981H120.678V31.0114Z" fill="white"/>
<path d="M134.099 35.1259C134.099 37.0716 133.564 38.6692 132.499 39.9184C131.381 41.2046 129.897 41.8458 128.048 41.8458C126.266 41.8458 124.847 41.2297 123.789 39.9976C122.731 38.7655 122.202 37.2102 122.202 35.3356C122.202 33.374 122.746 31.7672 123.838 30.518C124.928 29.2674 126.399 28.6421 128.248 28.6421C130.03 28.6421 131.464 29.2581 132.547 30.4916C133.582 31.6881 134.099 33.2328 134.099 35.1259ZM131.299 35.2169C131.299 34.0494 131.059 33.0482 130.575 32.2131C130.009 31.2026 129.2 30.6987 128.152 30.6987C127.067 30.6987 126.243 31.2039 125.677 32.2131C125.193 33.0495 124.953 34.0666 124.953 35.2696C124.953 36.4371 125.193 37.4384 125.677 38.2721C126.261 39.2826 127.076 39.7865 128.128 39.7865C129.158 39.7865 129.967 39.272 130.551 38.2457C131.048 37.3948 131.299 36.383 131.299 35.2169Z" fill="white"/>
<path d="M142.871 31.3742C142.603 31.3228 142.319 31.2964 142.02 31.2964C141.071 31.2964 140.336 31.6697 139.82 32.4177C139.371 33.0773 139.145 33.911 139.145 34.9175V41.5596H136.448L136.473 32.8873C136.473 31.4283 136.439 30.0999 136.372 28.9021H138.723L138.821 31.3241H138.896C139.181 30.4917 139.63 29.8215 140.245 29.3189C140.847 28.8664 141.496 28.6409 142.196 28.6409C142.445 28.6409 142.671 28.6593 142.871 28.6923V31.3742Z" fill="white"/>
<path d="M154.939 34.6311C154.939 35.135 154.907 35.5598 154.84 35.9067H146.744C146.776 37.1573 147.167 38.1137 147.919 38.7733C148.601 39.363 149.484 39.6585 150.567 39.6585C151.766 39.6585 152.859 39.4593 153.843 39.0596L154.266 41.012C153.116 41.5344 151.759 41.7942 150.194 41.7942C148.31 41.7942 146.832 41.2164 145.756 40.0621C144.682 38.9079 144.145 37.3578 144.145 35.4134C144.145 33.5045 144.645 31.9149 145.646 30.6472C146.694 29.2937 148.11 28.6169 149.892 28.6169C151.643 28.6169 152.968 29.2937 153.868 30.6472C154.581 31.7223 154.939 33.052 154.939 34.6311ZM152.366 33.9016C152.383 33.0679 152.207 32.3476 151.842 31.7394C151.375 30.9572 150.657 30.5667 149.691 30.5667C148.809 30.5667 148.091 30.9479 147.543 31.7131C147.094 32.3212 146.827 33.0507 146.744 33.9003H152.366V33.9016Z" fill="white"/>
<path d="M56.77 17V9.19H59.619C60.235 9.19 60.796 9.28533 61.302 9.476C61.8153 9.65933 62.2517 9.92333 62.611 10.268C62.9777 10.6053 63.26 11.0123 63.458 11.489C63.656 11.9657 63.755 12.4973 63.755 13.084C63.755 13.6707 63.656 14.206 63.458 14.69C63.26 15.1667 62.9777 15.5773 62.611 15.922C62.2443 16.2667 61.808 16.5343 61.302 16.725C60.796 16.9083 60.235 17 59.619 17H56.77ZM58.112 15.801H59.553C60.1323 15.801 60.631 15.691 61.049 15.471C61.467 15.251 61.7897 14.9393 62.017 14.536C62.2517 14.1253 62.369 13.645 62.369 13.095C62.369 12.545 62.2517 12.0683 62.017 11.665C61.7897 11.2543 61.4633 10.939 61.038 10.719C60.62 10.499 60.125 10.389 59.553 10.389H58.112V15.801ZM66.3397 9.641C66.3397 9.78033 66.3031 9.90867 66.2297 10.026C66.1637 10.1433 66.0721 10.2387 65.9547 10.312C65.8374 10.378 65.7091 10.411 65.5697 10.411C65.4304 10.411 65.3021 10.378 65.1847 10.312C65.0674 10.2387 64.9721 10.1433 64.8987 10.026C64.8327 9.90867 64.7997 9.78033 64.7997 9.641C64.7997 9.50167 64.8327 9.37333 64.8987 9.256C64.9721 9.13867 65.0674 9.047 65.1847 8.981C65.3021 8.90767 65.4304 8.871 65.5697 8.871C65.7091 8.871 65.8374 8.90767 65.9547 8.981C66.0721 9.047 66.1637 9.13867 66.2297 9.256C66.3031 9.37333 66.3397 9.50167 66.3397 9.641ZM64.9427 17V11.247H66.2077V17H64.9427ZM69.5436 17.165C69.1696 17.165 68.8212 17.1027 68.4986 16.978C68.1832 16.8533 67.9119 16.6773 67.6846 16.45C67.4646 16.2153 67.3069 15.9403 67.2116 15.625L68.3556 15.328C68.4509 15.5773 68.6049 15.7717 68.8176 15.911C69.0302 16.0503 69.2759 16.12 69.5546 16.12C69.8406 16.12 70.0752 16.054 70.2586 15.922C70.4419 15.7827 70.5336 15.6067 70.5336 15.394C70.5336 15.2107 70.4602 15.0567 70.3136 14.932C70.1669 14.8073 69.9286 14.7157 69.5986 14.657L69.2356 14.591C68.6196 14.481 68.1539 14.283 67.8386 13.997C67.5306 13.711 67.3766 13.3443 67.3766 12.897C67.3766 12.5377 67.4682 12.2223 67.6516 11.951C67.8349 11.6797 68.0879 11.467 68.4106 11.313C68.7332 11.159 69.1036 11.082 69.5216 11.082C69.8809 11.082 70.2109 11.1443 70.5116 11.269C70.8122 11.3937 71.0652 11.5697 71.2706 11.797C71.4759 12.0243 71.6226 12.292 71.7106 12.6L70.5776 12.875C70.4896 12.6403 70.3502 12.457 70.1596 12.325C69.9762 12.1857 69.7599 12.116 69.5106 12.116C69.2539 12.116 69.0412 12.182 68.8726 12.314C68.7039 12.4387 68.6196 12.6 68.6196 12.798C68.6196 12.9667 68.6929 13.106 68.8396 13.216C68.9936 13.326 69.2502 13.414 69.6096 13.48L69.9726 13.546C70.5592 13.6487 71.0102 13.8503 71.3256 14.151C71.6409 14.4517 71.7986 14.8257 71.7986 15.273C71.7986 15.5443 71.7436 15.7973 71.6336 16.032C71.5236 16.2593 71.3659 16.461 71.1606 16.637C70.9626 16.8057 70.7242 16.934 70.4456 17.022C70.1742 17.1173 69.8736 17.165 69.5436 17.165ZM72.8383 19.178V11.247H73.9933L74.0483 12.171C74.2536 11.8337 74.5249 11.5697 74.8623 11.379C75.1996 11.181 75.5773 11.082 75.9953 11.082C76.3766 11.082 76.7286 11.159 77.0513 11.313C77.3813 11.467 77.6673 11.6797 77.9093 11.951C78.1513 12.2223 78.3383 12.5413 78.4703 12.908C78.6096 13.2747 78.6793 13.6707 78.6793 14.096C78.6793 14.5287 78.6096 14.932 78.4703 15.306C78.3309 15.68 78.1366 16.0063 77.8873 16.285C77.6379 16.5637 77.3446 16.78 77.0073 16.934C76.6773 17.088 76.3179 17.165 75.9293 17.165C75.5479 17.165 75.1996 17.0843 74.8843 16.923C74.5689 16.7617 74.3086 16.5343 74.1033 16.241V19.178H72.8383ZM75.7313 16.021C76.0466 16.021 76.3289 15.9403 76.5783 15.779C76.8276 15.6103 77.0219 15.383 77.1613 15.097C77.3079 14.811 77.3813 14.4847 77.3813 14.118C77.3813 13.7513 77.3079 13.4287 77.1613 13.15C77.0219 12.864 76.8276 12.6403 76.5783 12.479C76.3289 12.3103 76.0466 12.226 75.7313 12.226C75.4159 12.226 75.1336 12.3103 74.8843 12.479C74.6349 12.6403 74.4369 12.864 74.2903 13.15C74.1509 13.4287 74.0813 13.7513 74.0813 14.118C74.0813 14.4847 74.1509 14.811 74.2903 15.097C74.4369 15.383 74.6349 15.6103 74.8843 15.779C75.1336 15.9403 75.4159 16.021 75.7313 16.021ZM82.5152 17.165C82.0972 17.165 81.7085 17.0917 81.3492 16.945C80.9972 16.791 80.6892 16.5783 80.4252 16.307C80.1612 16.0283 79.9558 15.7057 79.8092 15.339C79.6625 14.965 79.5892 14.558 79.5892 14.118C79.5892 13.6853 79.6625 13.2857 79.8092 12.919C79.9558 12.545 80.1612 12.2223 80.4252 11.951C80.6965 11.6723 81.0118 11.4597 81.3712 11.313C81.7378 11.159 82.1338 11.082 82.5592 11.082C82.9772 11.082 83.3622 11.159 83.7142 11.313C84.0735 11.4597 84.3852 11.6723 84.6492 11.951C84.9132 12.2223 85.1185 12.5413 85.2652 12.908C85.4118 13.2747 85.4852 13.678 85.4852 14.118C85.4852 14.558 85.4118 14.965 85.2652 15.339C85.1185 15.7057 84.9095 16.0283 84.6382 16.307C84.3742 16.5783 84.0588 16.791 83.6922 16.945C83.3328 17.0917 82.9405 17.165 82.5152 17.165ZM82.5372 16.021C82.8525 16.021 83.1348 15.9403 83.3842 15.779C83.6335 15.6103 83.8278 15.383 83.9672 15.097C84.1138 14.811 84.1872 14.4847 84.1872 14.118C84.1872 13.7513 84.1138 13.4287 83.9672 13.15C83.8278 12.864 83.6335 12.6403 83.3842 12.479C83.1348 12.3103 82.8525 12.226 82.5372 12.226C82.2218 12.226 81.9395 12.3103 81.6902 12.479C81.4408 12.6403 81.2428 12.864 81.0962 13.15C80.9568 13.4287 80.8872 13.7513 80.8872 14.118C80.8872 14.4847 80.9568 14.811 81.0962 15.097C81.2428 15.383 81.4408 15.6103 81.6902 15.779C81.9395 15.9403 82.2218 16.021 82.5372 16.021ZM86.599 17V11.247H87.754L87.798 12.039C87.9667 11.7457 88.2013 11.5147 88.502 11.346C88.81 11.17 89.162 11.082 89.558 11.082C89.9907 11.082 90.3647 11.1847 90.68 11.39C91.0027 11.5953 91.252 11.885 91.428 12.259C91.604 12.633 91.692 13.073 91.692 13.579V17H90.427V13.722C90.427 13.2527 90.3207 12.886 90.108 12.622C89.9027 12.358 89.613 12.226 89.239 12.226C88.975 12.226 88.7367 12.2883 88.524 12.413C88.3187 12.5377 88.1573 12.7063 88.04 12.919C87.9227 13.1317 87.864 13.3773 87.864 13.656V17H86.599ZM94.452 9.641C94.452 9.78033 94.4154 9.90867 94.342 10.026C94.276 10.1433 94.1844 10.2387 94.067 10.312C93.9497 10.378 93.8214 10.411 93.682 10.411C93.5427 10.411 93.4144 10.378 93.297 10.312C93.1797 10.2387 93.0844 10.1433 93.011 10.026C92.945 9.90867 92.912 9.78033 92.912 9.641C92.912 9.50167 92.945 9.37333 93.011 9.256C93.0844 9.13867 93.1797 9.047 93.297 8.981C93.4144 8.90767 93.5427 8.871 93.682 8.871C93.8214 8.871 93.9497 8.90767 94.067 8.981C94.1844 9.047 94.276 9.13867 94.342 9.256C94.4154 9.37333 94.452 9.50167 94.452 9.641ZM93.055 17V11.247H94.32V17H93.055ZM95.6869 17V8.816H96.9519V12.083C97.1572 11.7677 97.4249 11.522 97.7549 11.346C98.0849 11.17 98.4479 11.082 98.8439 11.082C99.2252 11.082 99.5772 11.159 99.8999 11.313C100.23 11.467 100.516 11.6797 100.758 11.951C101 12.2223 101.187 12.5413 101.319 12.908C101.458 13.2747 101.528 13.6707 101.528 14.096C101.528 14.5287 101.458 14.932 101.319 15.306C101.18 15.68 100.985 16.0063 100.736 16.285C100.487 16.5637 100.193 16.78 99.8559 16.934C99.5259 17.088 99.1665 17.165 98.7779 17.165C98.3745 17.165 98.0079 17.077 97.6779 16.901C97.3552 16.725 97.0949 16.4757 96.8969 16.153L96.8419 17H95.6869ZM98.5799 16.021C98.8952 16.021 99.1775 15.9403 99.4269 15.779C99.6762 15.6103 99.8705 15.383 100.01 15.097C100.157 14.811 100.23 14.4847 100.23 14.118C100.23 13.7513 100.157 13.4287 100.01 13.15C99.8705 12.864 99.6762 12.6403 99.4269 12.479C99.1775 12.3103 98.8952 12.226 98.5799 12.226C98.2645 12.226 97.9822 12.3103 97.7329 12.479C97.4835 12.6403 97.2855 12.864 97.1389 13.15C96.9995 13.4287 96.9299 13.7513 96.9299 14.118C96.9299 14.4847 96.9995 14.811 97.1389 15.097C97.2855 15.383 97.4835 15.6103 97.7329 15.779C97.9822 15.9403 98.2645 16.021 98.5799 16.021ZM102.637 17V8.816H103.902V17H102.637ZM107.942 17.165C107.517 17.165 107.124 17.0917 106.765 16.945C106.413 16.791 106.105 16.5783 105.841 16.307C105.577 16.0357 105.372 15.7167 105.225 15.35C105.086 14.976 105.016 14.5653 105.016 14.118C105.016 13.6853 105.086 13.2857 105.225 12.919C105.372 12.5523 105.57 12.2333 105.819 11.962C106.076 11.6833 106.376 11.467 106.721 11.313C107.066 11.159 107.44 11.082 107.843 11.082C108.246 11.082 108.613 11.1553 108.943 11.302C109.28 11.4413 109.57 11.643 109.812 11.907C110.061 12.171 110.252 12.4863 110.384 12.853C110.516 13.2123 110.582 13.612 110.582 14.052V14.426H106.325C106.362 14.7633 106.45 15.0567 106.589 15.306C106.736 15.548 106.923 15.735 107.15 15.867C107.377 15.999 107.641 16.065 107.942 16.065C108.543 16.065 109.013 15.7973 109.35 15.262L110.461 15.691C110.329 15.9917 110.135 16.2557 109.878 16.483C109.629 16.703 109.335 16.8717 108.998 16.989C108.668 17.1063 108.316 17.165 107.942 17.165ZM107.843 12.105C107.586 12.105 107.355 12.1637 107.15 12.281C106.952 12.3983 106.783 12.5633 106.644 12.776C106.505 12.9887 106.409 13.238 106.358 13.524H109.262C109.218 13.238 109.134 12.9887 109.009 12.776C108.884 12.5633 108.719 12.3983 108.514 12.281C108.316 12.1637 108.092 12.105 107.843 12.105ZM116.675 17.165C116.25 17.165 115.858 17.0917 115.498 16.945C115.146 16.791 114.838 16.5783 114.574 16.307C114.31 16.0357 114.105 15.7167 113.958 15.35C113.819 14.976 113.749 14.5653 113.749 14.118C113.749 13.6853 113.819 13.2857 113.958 12.919C114.105 12.5523 114.303 12.2333 114.552 11.962C114.809 11.6833 115.11 11.467 115.454 11.313C115.799 11.159 116.173 11.082 116.576 11.082C116.98 11.082 117.346 11.1553 117.676 11.302C118.014 11.4413 118.303 11.643 118.545 11.907C118.795 12.171 118.985 12.4863 119.117 12.853C119.249 13.2123 119.315 13.612 119.315 14.052V14.426H115.058C115.095 14.7633 115.183 15.0567 115.322 15.306C115.469 15.548 115.656 15.735 115.883 15.867C116.111 15.999 116.375 16.065 116.675 16.065C117.277 16.065 117.746 15.7973 118.083 15.262L119.194 15.691C119.062 15.9917 118.868 16.2557 118.611 16.483C118.362 16.703 118.069 16.8717 117.731 16.989C117.401 17.1063 117.049 17.165 116.675 17.165ZM116.576 12.105C116.32 12.105 116.089 12.1637 115.883 12.281C115.685 12.3983 115.517 12.5633 115.377 12.776C115.238 12.9887 115.143 13.238 115.091 13.524H117.995C117.951 13.238 117.867 12.9887 117.742 12.776C117.618 12.5633 117.453 12.3983 117.247 12.281C117.049 12.1637 116.826 12.105 116.576 12.105ZM120.394 17V11.247H121.549L121.593 12.039C121.762 11.7457 121.996 11.5147 122.297 11.346C122.605 11.17 122.957 11.082 123.353 11.082C123.786 11.082 124.16 11.1847 124.475 11.39C124.798 11.5953 125.047 11.885 125.223 12.259C125.399 12.633 125.487 13.073 125.487 13.579V17H124.222V13.722C124.222 13.2527 124.116 12.886 123.903 12.622C123.698 12.358 123.408 12.226 123.034 12.226C122.77 12.226 122.532 12.2883 122.319 12.413C122.114 12.5377 121.952 12.7063 121.835 12.919C121.718 13.1317 121.659 13.3773 121.659 13.656V17H120.394Z" fill="white"/>
</svg>
