<?xml version="1.0" encoding="utf-8"?>
<!-- Generator: Adobe Illustrator 24.0.2, SVG Export Plug-In . SVG Version: 6.00 Build 0)  -->
<svg version="1.1" id="_x2014_ÎÓÈ_x5F_5" xmlns="http://www.w3.org/2000/svg" xmlns:xlink="http://www.w3.org/1999/xlink"
	 x="0px" y="0px" viewBox="0 0 182.5 60.8" style="enable-background:new 0 0 182.5 60.8;" xml:space="preserve">
<style type="text/css">
	.st0{fill:#A6A6A6;}
	.st1{fill:#FFFFFF;stroke:#FFFFFF;stroke-width:0.16;stroke-miterlimit:10;}
	.st2{fill:#FFFFFF;}
	.st3{fill:url(#SVGID_1_);}
	.st4{fill:url(#SVGID_2_);}
	.st5{fill:url(#SVGID_3_);}
	.st6{fill:url(#SVGID_4_);}
</style>
<path d="M170.2,56h-158c-3.5,0-6.3-2.9-6.3-6.4V11.2c0-3.5,2.8-6.4,6.3-6.4h158c3.5,0,6.3,2.9,6.3,6.4v38.4
	C176.5,53.1,173.7,56,170.2,56z"/>
<path class="st0" d="M170.2,5.8c2.9,0,5.3,2.4,5.3,5.4v38.4c0,3-2.4,5.4-5.3,5.4h-158c-2.9,0-5.3-2.4-5.3-5.4V11.2
	c0-3,2.4-5.4,5.3-5.4H170.2z M170.2,4.8h-158c-3.5,0-6.3,2.9-6.3,6.4v38.4c0,3.5,2.8,6.4,6.3,6.4h158c3.5,0,6.3-2.9,6.3-6.4V11.2
	C176.5,7.7,173.7,4.8,170.2,4.8z"/>
<path class="st1" d="M65.8,17.9c0,1.1-0.3,1.9-0.9,2.6c-0.7,0.8-1.6,1.1-2.8,1.1c-1.1,0-2-0.4-2.8-1.1c-0.8-0.8-1.1-1.7-1.1-2.9
	c0-1.1,0.4-2.1,1.1-2.9c0.8-0.8,1.7-1.2,2.8-1.2c0.5,0,1.1,0.1,1.6,0.3c0.5,0.2,0.9,0.5,1.2,0.9l-0.7,0.7c-0.5-0.6-1.2-0.9-2.1-0.9
	c-0.8,0-1.5,0.3-2.1,0.8c-0.6,0.6-0.9,1.3-0.9,2.2c0,0.9,0.3,1.6,0.9,2.2c0.6,0.6,1.3,0.8,2.1,0.8c0.8,0,1.6-0.3,2.1-0.9
	c0.4-0.4,0.6-0.9,0.6-1.6h-2.8v-0.9h3.7C65.8,17.5,65.8,17.7,65.8,17.9z"/>
<path class="st1" d="M71.7,14.7h-3.4v2.4h3.1v0.9h-3.1v2.4h3.4v0.9h-4.4v-7.7h4.4V14.7z"/>
<path class="st1" d="M75.8,21.4h-1v-6.7h-2.1v-0.9h5.2v0.9h-2.1V21.4z"/>
<path class="st1" d="M81.7,21.4v-7.7h1v7.7H81.7z"/>
<path class="st1" d="M87,21.4h-1v-6.7h-2.1v-0.9h5.2v0.9H87V21.4z"/>
<path class="st1" d="M98.9,20.5c-0.7,0.8-1.7,1.2-2.8,1.2c-1.1,0-2-0.4-2.8-1.2c-0.7-0.8-1.1-1.7-1.1-2.8c0-1.1,0.4-2.1,1.1-2.8
	c0.7-0.8,1.7-1.2,2.8-1.2c1.1,0,2,0.4,2.8,1.2c0.8,0.8,1.1,1.7,1.1,2.8C100.1,18.7,99.7,19.7,98.9,20.5z M94.1,19.8
	c0.6,0.6,1.2,0.9,2.1,0.9c0.8,0,1.5-0.3,2.1-0.9c0.6-0.6,0.8-1.3,0.8-2.2s-0.3-1.6-0.8-2.2c-0.6-0.6-1.2-0.9-2.1-0.9
	c-0.8,0-1.5,0.3-2.1,0.9c-0.6,0.6-0.8,1.3-0.8,2.2S93.5,19.2,94.1,19.8z"/>
<path class="st1" d="M101.4,21.4v-7.7h1.2l3.7,6h0l0-1.5v-4.5h1v7.7h-1l-3.9-6.3h0l0,1.5v4.8H101.4z"/>
<path class="st2" d="M92,32.7c-3,0-5.4,2.3-5.4,5.4c0,3.1,2.4,5.4,5.4,5.4c3,0,5.4-2.3,5.4-5.4C97.4,34.9,95,32.7,92,32.7z M92,41.4
	c-1.6,0-3-1.4-3-3.3c0-2,1.4-3.3,3-3.3c1.6,0,3,1.3,3,3.3C95.1,40,93.7,41.4,92,41.4z M80.3,32.7c-3,0-5.4,2.3-5.4,5.4
	c0,3.1,2.4,5.4,5.4,5.4c3,0,5.4-2.3,5.4-5.4C85.7,34.9,83.2,32.7,80.3,32.7z M80.3,41.4c-1.6,0-3-1.4-3-3.3c0-2,1.4-3.3,3-3.3
	c1.6,0,3,1.3,3,3.3C83.3,40,81.9,41.4,80.3,41.4z M66.3,34.3v2.3h5.5c-0.2,1.3-0.6,2.2-1.2,2.9c-0.8,0.8-2,1.7-4.2,1.7
	c-3.4,0-6-2.7-6-6.1s2.6-6.1,6-6.1c1.8,0,3.1,0.7,4.1,1.6L72,29c-1.4-1.3-3.2-2.3-5.7-2.3c-4.6,0-8.5,3.8-8.5,8.5s3.9,8.5,8.5,8.5
	c2.5,0,4.4-0.8,5.8-2.4c1.5-1.5,2-3.7,2-5.4c0-0.5,0-1-0.1-1.4H66.3z M123.5,36.1c-0.4-1.2-1.8-3.5-4.6-3.5c-2.8,0-5.1,2.2-5.1,5.4
	c0,3,2.3,5.4,5.3,5.4c2.5,0,3.9-1.5,4.5-2.4l-1.8-1.2c-0.6,0.9-1.4,1.5-2.6,1.5c-1.2,0-2.1-0.6-2.6-1.6l7.2-3L123.5,36.1z
	 M116.2,37.9c-0.1-2.1,1.6-3.2,2.8-3.2c0.9,0,1.7,0.5,2,1.2L116.2,37.9z M110.3,43.2h2.4v-16h-2.4V43.2z M106.5,33.9L106.5,33.9
	c-0.6-0.6-1.6-1.2-2.9-1.2c-2.7,0-5.2,2.4-5.2,5.5c0,3.1,2.5,5.4,5.2,5.4c1.3,0,2.3-0.6,2.8-1.2h0.1v0.8c0,2.1-1.1,3.2-2.9,3.2
	c-1.4,0-2.3-1.1-2.7-1.9l-2.1,0.9c0.6,1.4,2.2,3.2,4.8,3.2c2.8,0,5.1-1.7,5.1-5.7V33h-2.2V33.9z M103.8,41.4c-1.6,0-3-1.4-3-3.3
	c0-1.9,1.4-3.3,3-3.3c1.6,0,2.9,1.4,2.9,3.3C106.6,40,105.4,41.4,103.8,41.4z M134.6,27.2h-5.7v16h2.4v-6.1h3.3c2.6,0,5.2-1.9,5.2-5
	C139.8,29.1,137.2,27.2,134.6,27.2z M134.7,34.9h-3.4v-5.5h3.4c1.8,0,2.8,1.5,2.8,2.7C137.4,33.4,136.4,34.9,134.7,34.9z
	 M149.2,32.6c-1.7,0-3.5,0.8-4.2,2.4l2.1,0.9c0.5-0.9,1.3-1.2,2.2-1.2c1.2,0,2.5,0.7,2.5,2.1V37c-0.4-0.2-1.3-0.6-2.5-0.6
	c-2.3,0-4.5,1.3-4.5,3.6c0,2.1,1.8,3.5,3.9,3.5c1.6,0,2.5-0.7,3-1.6h0.1v1.2h2.3V37C154,34.2,151.9,32.6,149.2,32.6z M148.9,41.4
	c-0.8,0-1.8-0.4-1.8-1.4c0-1.2,1.3-1.7,2.5-1.7c1,0,1.5,0.2,2.2,0.5C151.6,40.3,150.3,41.4,148.9,41.4z M162.3,33l-2.7,6.9h-0.1
	l-2.8-6.9h-2.5l4.2,9.7l-2.4,5.4h2.5l6.5-15.1H162.3z M141.1,43.2h2.4v-16h-2.4V43.2z"/>
<linearGradient id="SVGID_1_" gradientUnits="userSpaceOnUse" x1="266.1313" y1="86.3233" x2="244.6585" y2="107.535" gradientTransform="matrix(1 0 0 -1 -232.5 131.0041)">
	<stop  offset="0" style="stop-color:#00A0FF"/>
	<stop  offset="6.599999e-03" style="stop-color:#00A1FF"/>
	<stop  offset="0.2601" style="stop-color:#00BEFF"/>
	<stop  offset="0.5122" style="stop-color:#00D2FF"/>
	<stop  offset="0.7604" style="stop-color:#00DFFF"/>
	<stop  offset="1" style="stop-color:#00E3FF"/>
</linearGradient>
<path class="st3" d="M19.1,14.5c-0.4,0.4-0.6,1-0.6,1.8v28.3c0,0.8,0.2,1.4,0.6,1.8l0.1,0.1l15.7-15.9v-0.4L19.1,14.5L19.1,14.5z"/>
<linearGradient id="SVGID_2_" gradientUnits="userSpaceOnUse" x1="281.1716" y1="100.5958" x2="250.5863" y2="100.5958" gradientTransform="matrix(1 0 0 -1 -232.5 131.0041)">
	<stop  offset="0" style="stop-color:#FFE000"/>
	<stop  offset="0.4087" style="stop-color:#FFBD00"/>
	<stop  offset="0.7754" style="stop-color:#FFA500"/>
	<stop  offset="1" style="stop-color:#FF9C00"/>
</linearGradient>
<path class="st4" d="M40.1,35.9l-5.2-5.3v-0.4l5.2-5.3l0.1,0.1l6.2,3.6c1.8,1,1.8,2.7,0,3.7l-6.2,3.6L40.1,35.9z"/>
<linearGradient id="SVGID_3_" gradientUnits="userSpaceOnUse" x1="259.2346" y1="92.8533" x2="230.1157" y2="121.618" gradientTransform="matrix(1 0 0 -1 -232.5 131.0041)">
	<stop  offset="0" style="stop-color:#FF3A44"/>
	<stop  offset="1" style="stop-color:#C31162"/>
</linearGradient>
<path class="st5" d="M40.2,35.8l-5.3-5.4l-15.8,16c0.6,0.6,1.5,0.7,2.6,0.1L40.2,35.8z"/>
<linearGradient id="SVGID_4_" gradientUnits="userSpaceOnUse" x1="236.8083" y1="86.182" x2="249.8113" y2="99.0266" gradientTransform="matrix(1 0 0 -1 -232.5 131.0041)">
	<stop  offset="0" style="stop-color:#32A071"/>
	<stop  offset="6.850000e-02" style="stop-color:#2DA771"/>
	<stop  offset="0.4762" style="stop-color:#15CF74"/>
	<stop  offset="0.8009" style="stop-color:#06E775"/>
	<stop  offset="1" style="stop-color:#00F076"/>
</linearGradient>
<path class="st6" d="M40.2,25L21.7,14.4c-1.1-0.6-2-0.5-2.6,0.1l15.8,15.9L40.2,25z"/>
</svg>
