<?xml version="1.0" encoding="utf-8"?>
<!-- Generator: Adobe Illustrator 24.0.2, SVG Export Plug-In . SVG Version: 6.00 Build 0)  -->
<svg version="1.1" id="_x2014_ÎÓÈ_x5F_5" xmlns="http://www.w3.org/2000/svg" xmlns:xlink="http://www.w3.org/1999/xlink"
	 x="0px" y="0px" viewBox="0 0 413 567.7" style="enable-background:new 0 0 413 567.7;" xml:space="preserve">
<style type="text/css">
	.st0{fill:#657FF6;}
	.st1{filter:url(#Adobe_OpacityMaskFilter);}
	.st2{mask:url(#mask0_217_15_1_);}
	.st3{fill:#EBEBEB;}
	.st4{fill:url(#SVGID_1_);}
	.st5{fill:url(#SVGID_2_);}
	.st6{fill:url(#SVGID_3_);}
	.st7{fill:url(#SVGID_4_);}
	.st8{fill:url(#SVGID_5_);}
	.st9{fill:url(#SVGID_6_);}
	.st10{stroke:url(#SVGID_7_);stroke-width:0.5;}
	.st11{fill:url(#SVGID_8_);}
	.st12{fill:url(#SVGID_9_);}
	.st13{fill:url(#SVGID_10_);}
	.st14{fill:url(#SVGID_11_);}
	.st15{filter:url(#Adobe_OpacityMaskFilter_1_);}
	.st16{mask:url(#mask1_217_15_1_);}
	.st17{fill:#050505;}
	.st18{fill:none;stroke:url(#SVGID_12_);stroke-width:2;}
	.st19{fill:url(#SVGID_13_);}
	.st20{fill:url(#SVGID_14_);}
	.st21{fill:url(#SVGID_15_);}
	.st22{fill:url(#SVGID_16_);}
	.st23{fill:url(#SVGID_17_);}
	.st24{fill:url(#SVGID_18_);}
	.st25{stroke:url(#SVGID_19_);stroke-width:0.5;}
	.st26{fill:url(#SVGID_20_);}
	.st27{fill:url(#SVGID_21_);}
	.st28{fill:url(#SVGID_22_);}
	.st29{fill:url(#SVGID_23_);}
	.st30{fill:#161616;filter:url(#Adobe_OpacityMaskFilter_2_);}
	.st31{mask:url(#mask2_217_15_1_);}
	.st32{fill:none;}
	.st33{fill:#F9F9F9;}
	.st34{fill:#161616;}
	.st35{fill:none;stroke:#000000;stroke-width:2;stroke-opacity:0.32;}
	.st36{fill:none;stroke:url(#SVGID_24_);}
	.st37{fill:url(#SVGID_25_);}
	.st38{fill:url(#SVGID_26_);}
	.st39{fill:url(#SVGID_27_);}
	.st40{fill:url(#SVGID_28_);}
	.st41{fill:url(#SVGID_29_);}
	.st42{fill:url(#SVGID_30_);}
	.st43{fill:url(#SVGID_31_);}
	.st44{fill:url(#SVGID_32_);}
	.st45{fill:#FFFFFF;}
	.st46{fill:none;stroke:#D2D2D2;stroke-width:0.5;}
	.st47{fill:#292929;}
</style>
<g>
	<path class="st0" d="M68.7,77.8c0-22.3,0-33.4,4.3-41.9c3.8-7.5,9.9-13.6,17.4-17.4c8.5-4.3,19.6-4.3,41.9-4.3h131.5
		c22.3,0,33.4,0,41.9,4.3c7.5,3.8,13.6,9.9,17.4,17.4c4.3,8.5,4.3,19.6,4.3,41.9v85.1h1c0.4,0,0.7,0.3,0.7,0.7v56.3
		c0,0.4-0.3,0.7-0.7,0.7h-1v262.7c0,22.3,0,33.4-4.3,41.9c-3.8,7.5-9.9,13.6-17.4,17.4c-8.5,4.3-19.6,4.3-41.9,4.3H132.3
		c-22.3,0-33.4,0-41.9-4.3c-7.5-3.8-13.6-9.9-17.4-17.4c-4.3-8.5-4.3-19.6-4.3-41.9V233.1h-1c-0.4,0-0.7-0.3-0.7-0.7v-35.8
		c0-0.4,0.3-0.7,0.7-0.7h1v-8.3h-1c-0.4,0-0.7-0.3-0.7-0.7v-35.8c0-0.4,0.3-0.7,0.7-0.7h1v-15.6h-1c-0.4,0-0.7-0.3-0.7-0.7v-17.9
		c0-0.4,0.3-0.7,0.7-0.7h1V77.8z"/>
</g>
<g>
	<defs>
		<filter id="Adobe_OpacityMaskFilter" filterUnits="userSpaceOnUse" x="67" y="12.5" width="262" height="535.6">
			<feColorMatrix  type="matrix" values="1 0 0 0 0  0 1 0 0 0  0 0 1 0 0  0 0 0 1 0"/>
		</filter>
	</defs>
	<mask maskUnits="userSpaceOnUse" x="67" y="12.5" width="262" height="535.6" id="mask0_217_15_1_">
		<path class="st1" d="M68.7,77.8c0-22.3,0-33.4,4.3-41.9c3.8-7.5,9.9-13.6,17.4-17.4c8.5-4.3,19.6-4.3,41.9-4.3h131.5
			c22.3,0,33.4,0,41.9,4.3c7.5,3.8,13.6,9.9,17.4,17.4c4.3,8.5,4.3,19.6,4.3,41.9v405.4c0,22.3,0,33.4-4.3,41.9
			c-3.8,7.5-9.9,13.6-17.4,17.4c-8.5,4.3-19.6,4.3-41.9,4.3H132.3c-22.3,0-33.4,0-41.9-4.3c-7.5-3.8-13.6-9.9-17.4-17.4
			c-4.3-8.5-4.3-19.6-4.3-41.9V77.8z"/>
	</mask>
	<g class="st2">
		<g>
			<path class="st3" d="M68.7,77.8c0-22.3,0-33.4,4.3-41.9c3.8-7.5,9.9-13.6,17.4-17.4c8.5-4.3,19.6-4.3,41.9-4.3h131.5
				c22.3,0,33.4,0,41.9,4.3c7.5,3.8,13.6,9.9,17.4,17.4c4.3,8.5,4.3,19.6,4.3,41.9v405.4c0,22.3,0,33.4-4.3,41.9
				c-3.8,7.5-9.9,13.6-17.4,17.4c-8.5,4.3-19.6,4.3-41.9,4.3H132.3c-22.3,0-33.4,0-41.9-4.3c-7.5-3.8-13.6-9.9-17.4-17.4
				c-4.3-8.5-4.3-19.6-4.3-41.9V77.8z"/>
		</g>
		
			<linearGradient id="SVGID_1_" gradientUnits="userSpaceOnUse" x1="299.501" y1="571.7961" x2="305.1318" y2="571.7961" gradientTransform="matrix(1 0 0 -1 -232.5 646.587)">
			<stop  offset="0.1094" style="stop-color:#D1D1D1"/>
			<stop  offset="0.3177" style="stop-color:#E3E3E3"/>
			<stop  offset="0.5521" style="stop-color:#D2D2D2"/>
			<stop  offset="0.8073" style="stop-color:#E6E6E6"/>
		</linearGradient>
		<rect x="67" y="72.5" class="st4" width="5.6" height="4.6"/>
		
			<linearGradient id="SVGID_2_" gradientUnits="userSpaceOnUse" x1="299.501" y1="160.4142" x2="305.1318" y2="160.4142" gradientTransform="matrix(1 0 0 -1 -232.5 646.587)">
			<stop  offset="0.1094" style="stop-color:#D1D1D1"/>
			<stop  offset="0.3177" style="stop-color:#E3E3E3"/>
			<stop  offset="0.5521" style="stop-color:#D2D2D2"/>
			<stop  offset="0.8073" style="stop-color:#E6E6E6"/>
		</linearGradient>
		<rect x="67" y="483.9" class="st5" width="5.6" height="4.6"/>
		
			<linearGradient id="SVGID_3_" gradientUnits="userSpaceOnUse" x1="555.868" y1="571.7961" x2="561.4988" y2="571.7961" gradientTransform="matrix(1 0 0 -1 -232.5 646.587)">
			<stop  offset="9.883210e-02" style="stop-color:#E6E6E6"/>
			<stop  offset="0.3688" style="stop-color:#D2D2D2"/>
			<stop  offset="0.6245" style="stop-color:#E3E3E3"/>
			<stop  offset="0.7986" style="stop-color:#D1D1D1"/>
		</linearGradient>
		<rect x="323.4" y="72.5" class="st6" width="5.6" height="4.6"/>
		
			<linearGradient id="SVGID_4_" gradientUnits="userSpaceOnUse" x1="555.868" y1="160.4142" x2="561.4988" y2="160.4142" gradientTransform="matrix(1 0 0 -1 -232.5 646.587)">
			<stop  offset="9.883210e-02" style="stop-color:#E6E6E6"/>
			<stop  offset="0.3688" style="stop-color:#D2D2D2"/>
			<stop  offset="0.6245" style="stop-color:#E3E3E3"/>
			<stop  offset="0.7986" style="stop-color:#D1D1D1"/>
		</linearGradient>
		<rect x="323.4" y="483.9" class="st7" width="5.6" height="4.6"/>
		
			<linearGradient id="SVGID_5_" gradientUnits="userSpaceOnUse" x1="-140.9094" y1="1150.396" x2="-135.2785" y2="1150.396" gradientTransform="matrix(6.123234e-17 1 1 -6.123234e-17 -883.6655 153.4297)">
			<stop  offset="0.2383" style="stop-color:#D1D1D1"/>
			<stop  offset="0.4167" style="stop-color:#E3E3E3"/>
			<stop  offset="0.7002" style="stop-color:#D2D2D2"/>
			<stop  offset="0.9264" style="stop-color:#E6E6E6"/>
		</linearGradient>
		<rect x="264.4" y="12.5" class="st8" width="4.6" height="5.6"/>
		
			<linearGradient id="SVGID_6_" gradientUnits="userSpaceOnUse" x1="-278.3684" y1="620.4351" x2="-272.7375" y2="620.4351" gradientTransform="matrix(6.123234e-17 1 1 -6.123234e-17 -491.1636 820.8497)">
			<stop  offset="9.883210e-02" style="stop-color:#E6E6E6"/>
			<stop  offset="0.3688" style="stop-color:#D2D2D2"/>
			<stop  offset="0.6245" style="stop-color:#E3E3E3"/>
			<stop  offset="0.7986" style="stop-color:#D1D1D1"/>
		</linearGradient>
		<rect x="127" y="542.5" class="st9" width="4.6" height="5.6"/>
	</g>
	
		<linearGradient id="SVGID_7_" gradientUnits="userSpaceOnUse" x1="319.8523" y1="622.9563" x2="538.2102" y2="116.0742" gradientTransform="matrix(1 0 0 -1 -232.5 646.587)">
		<stop  offset="0" style="stop-color:#FFFFFF;stop-opacity:0.16"/>
		<stop  offset="1" style="stop-color:#FFFFFF;stop-opacity:5.000000e-02"/>
	</linearGradient>
	<path class="st10" d="M71.6,76.2c0-10.4,0-18.2,0.5-24.3c0.5-6.2,1.5-10.7,3.5-14.6c3.5-6.9,9.2-12.6,16.1-16.1
		c3.9-2,8.5-3,14.6-3.5c6.2-0.5,14-0.5,24.3-0.5h134.7c10.4,0,18.2,0,24.3,0.5c6.2,0.5,10.7,1.5,14.6,3.5
		c6.9,3.5,12.6,9.2,16.1,16.1c2,3.9,3,8.5,3.5,14.6c0.5,6.2,0.5,14,0.5,24.3v408.6c0,10.4,0,18.2-0.5,24.3
		c-0.5,6.2-1.5,10.7-3.5,14.6c-3.5,6.9-9.2,12.6-16.1,16.1c-3.9,2-8.5,3-14.6,3.5c-6.2,0.5-14,0.5-24.3,0.5H130.7
		c-10.4,0-18.2,0-24.3-0.5c-6.2-0.5-10.7-1.5-14.6-3.5c-6.9-3.5-12.6-9.2-16.1-16.1c-2-3.9-3-8.5-3.5-14.6c-0.5-6.2-0.5-14-0.5-24.3
		V76.2z"/>
	<g>
		
			<linearGradient id="SVGID_8_" gradientUnits="userSpaceOnUse" x1="299.502" y1="521.1182" x2="301.1581" y2="521.1182" gradientTransform="matrix(1 0 0 -1 -232.5 646.587)">
			<stop  offset="0" style="stop-color:#000000;stop-opacity:0"/>
			<stop  offset="0.3333" style="stop-color:#D0D0D0;stop-opacity:0.42"/>
			<stop  offset="1" style="stop-color:#000000;stop-opacity:0.24"/>
		</linearGradient>
		<path class="st11" d="M67,116.5c0-0.4,0.3-0.7,0.7-0.7h1v19.2h-1c-0.4,0-0.7-0.3-0.7-0.7V116.5z"/>
	</g>
	<g>
		
			<linearGradient id="SVGID_9_" gradientUnits="userSpaceOnUse" x1="299.502" y1="477.3967" x2="301.1581" y2="477.3967" gradientTransform="matrix(1 0 0 -1 -232.5 646.587)">
			<stop  offset="0" style="stop-color:#000000;stop-opacity:0"/>
			<stop  offset="0.3333" style="stop-color:#D0D0D0;stop-opacity:0.42"/>
			<stop  offset="1" style="stop-color:#000000;stop-opacity:0.24"/>
		</linearGradient>
		<path class="st12" d="M67,151.3c0-0.4,0.3-0.7,0.7-0.7h1v37.1h-1c-0.4,0-0.7-0.3-0.7-0.7V151.3z"/>
	</g>
	<g>
		
			<linearGradient id="SVGID_10_" gradientUnits="userSpaceOnUse" x1="559.845" y1="454.8732" x2="561.501" y2="454.8732" gradientTransform="matrix(1 0 0 -1 -232.5 646.587)">
			<stop  offset="0" style="stop-color:#000000;stop-opacity:0.24"/>
			<stop  offset="0.5738" style="stop-color:#D0D0D0;stop-opacity:0.42"/>
			<stop  offset="1" style="stop-color:#000000;stop-opacity:0"/>
		</linearGradient>
		<path class="st13" d="M327.3,162.9h1c0.4,0,0.7,0.3,0.7,0.7v56.3c0,0.4-0.3,0.7-0.7,0.7h-1V162.9z"/>
	</g>
	<g>
		
			<linearGradient id="SVGID_11_" gradientUnits="userSpaceOnUse" x1="299.502" y1="432.0187" x2="301.1581" y2="432.0187" gradientTransform="matrix(1 0 0 -1 -232.5 646.587)">
			<stop  offset="0" style="stop-color:#000000;stop-opacity:0"/>
			<stop  offset="0.3333" style="stop-color:#D0D0D0;stop-opacity:0.42"/>
			<stop  offset="1" style="stop-color:#000000;stop-opacity:0.24"/>
		</linearGradient>
		<path class="st14" d="M67,196.7c0-0.4,0.3-0.7,0.7-0.7h1v37.1h-1c-0.4,0-0.7-0.3-0.7-0.7V196.7z"/>
	</g>
</g>
<g>
	<defs>
		<filter id="Adobe_OpacityMaskFilter_1_" filterUnits="userSpaceOnUse" x="67" y="12.5" width="262" height="535.6">
			<feColorMatrix  type="matrix" values="1 0 0 0 0  0 1 0 0 0  0 0 1 0 0  0 0 0 1 0"/>
		</filter>
	</defs>
	<mask maskUnits="userSpaceOnUse" x="67" y="12.5" width="262" height="535.6" id="mask1_217_15_1_">
		<path class="st15" d="M68.7,77.8c0-22.3,0-33.4,4.3-41.9c3.8-7.5,9.9-13.6,17.4-17.4c8.5-4.3,19.6-4.3,41.9-4.3h131.5
			c22.3,0,33.4,0,41.9,4.3c7.5,3.8,13.6,9.9,17.4,17.4c4.3,8.5,4.3,19.6,4.3,41.9v405.4c0,22.3,0,33.4-4.3,41.9
			c-3.8,7.5-9.9,13.6-17.4,17.4c-8.5,4.3-19.6,4.3-41.9,4.3H132.3c-22.3,0-33.4,0-41.9-4.3c-7.5-3.8-13.6-9.9-17.4-17.4
			c-4.3-8.5-4.3-19.6-4.3-41.9V77.8z"/>
	</mask>
	<g class="st16">
		<g>
			<path class="st17" d="M68.7,77.8c0-22.3,0-33.4,4.3-41.9c3.8-7.5,9.9-13.6,17.4-17.4c8.5-4.3,19.6-4.3,41.9-4.3h131.5
				c22.3,0,33.4,0,41.9,4.3c7.5,3.8,13.6,9.9,17.4,17.4c4.3,8.5,4.3,19.6,4.3,41.9v405.4c0,22.3,0,33.4-4.3,41.9
				c-3.8,7.5-9.9,13.6-17.4,17.4c-8.5,4.3-19.6,4.3-41.9,4.3H132.3c-22.3,0-33.4,0-41.9-4.3c-7.5-3.8-13.6-9.9-17.4-17.4
				c-4.3-8.5-4.3-19.6-4.3-41.9V77.8z"/>
		</g>
		
			<linearGradient id="SVGID_12_" gradientUnits="userSpaceOnUse" x1="430.4996" y1="632.4102" x2="430.4996" y2="99.7998" gradientTransform="matrix(1 0 0 -1 -232.5 646.587)">
			<stop  offset="0" style="stop-color:#FFFFFF;stop-opacity:0.64"/>
			<stop  offset="1" style="stop-color:#FFFFFF;stop-opacity:0.32"/>
		</linearGradient>
		<path class="st18" d="M69.7,77.8c0-11.1,0-19.4,0.5-26c0.5-6.6,1.6-11.3,3.7-15.4c3.7-7.3,9.6-13.2,16.9-16.9
			c4.1-2.1,8.8-3.1,15.4-3.7c6.6-0.5,14.9-0.5,26-0.5h131.5c11.1,0,19.4,0,26,0.5c6.6,0.5,11.3,1.6,15.4,3.7
			c7.3,3.7,13.2,9.6,16.9,16.9c2.1,4.1,3.1,8.8,3.7,15.4c0.5,6.6,0.5,14.9,0.5,26v405.4c0,11.1,0,19.4-0.5,26
			c-0.5,6.6-1.6,11.3-3.7,15.4c-3.7,7.3-9.6,13.2-16.9,16.9c-4.1,2.1-8.8,3.1-15.4,3.7c-6.6,0.5-14.9,0.5-26,0.5H132.3
			c-11.1,0-19.4,0-26-0.5c-6.6-0.5-11.3-1.6-15.4-3.7c-7.3-3.7-13.2-9.6-16.9-16.9c-2.1-4.1-3.1-8.8-3.7-15.4
			c-0.5-6.6-0.5-14.9-0.5-26V77.8z"/>
		
			<linearGradient id="SVGID_13_" gradientUnits="userSpaceOnUse" x1="299.501" y1="571.7961" x2="305.1318" y2="571.7961" gradientTransform="matrix(1 0 0 -1 -232.5 646.587)">
			<stop  offset="0.3016" style="stop-color:#8F8F8F"/>
			<stop  offset="0.4895" style="stop-color:#525252"/>
			<stop  offset="0.8277" style="stop-color:#141414"/>
		</linearGradient>
		<rect x="67" y="72.5" class="st19" width="5.6" height="4.6"/>
		
			<linearGradient id="SVGID_14_" gradientUnits="userSpaceOnUse" x1="299.501" y1="160.4142" x2="305.1318" y2="160.4142" gradientTransform="matrix(1 0 0 -1 -232.5 646.587)">
			<stop  offset="0.2857" style="stop-color:#8F8F8F"/>
			<stop  offset="0.4768" style="stop-color:#525252"/>
			<stop  offset="0.8277" style="stop-color:#141414"/>
		</linearGradient>
		<rect x="67" y="483.9" class="st20" width="5.6" height="4.6"/>
		
			<linearGradient id="SVGID_15_" gradientUnits="userSpaceOnUse" x1="555.868" y1="571.7961" x2="561.4988" y2="571.7961" gradientTransform="matrix(1 0 0 -1 -232.5 646.587)">
			<stop  offset="8.817599e-02" style="stop-color:#141414"/>
			<stop  offset="0.5143" style="stop-color:#525252"/>
			<stop  offset="0.7141" style="stop-color:#8F8F8F"/>
		</linearGradient>
		<rect x="323.4" y="72.5" class="st21" width="5.6" height="4.6"/>
		
			<linearGradient id="SVGID_16_" gradientUnits="userSpaceOnUse" x1="555.868" y1="160.4142" x2="561.4988" y2="160.4142" gradientTransform="matrix(1 0 0 -1 -232.5 646.587)">
			<stop  offset="8.817599e-02" style="stop-color:#141414"/>
			<stop  offset="0.5143" style="stop-color:#525252"/>
			<stop  offset="0.7141" style="stop-color:#8F8F8F"/>
		</linearGradient>
		<rect x="323.4" y="483.9" class="st22" width="5.6" height="4.6"/>
		
			<linearGradient id="SVGID_17_" gradientUnits="userSpaceOnUse" x1="-140.9094" y1="1150.396" x2="-135.2785" y2="1150.396" gradientTransform="matrix(6.123234e-17 1 1 -6.123234e-17 -883.6655 153.4297)">
			<stop  offset="0.2988" style="stop-color:#8F8F8F"/>
			<stop  offset="0.4815" style="stop-color:#525252"/>
			<stop  offset="0.9763" style="stop-color:#141414"/>
		</linearGradient>
		<rect x="264.4" y="12.5" class="st23" width="4.6" height="5.6"/>
		
			<linearGradient id="SVGID_18_" gradientUnits="userSpaceOnUse" x1="-278.3684" y1="620.4351" x2="-272.7375" y2="620.4351" gradientTransform="matrix(6.123234e-17 1 1 -6.123234e-17 -491.1636 820.8497)">
			<stop  offset="0.1229" style="stop-color:#000000"/>
			<stop  offset="0.5846" style="stop-color:#292929"/>
			<stop  offset="0.8759" style="stop-color:#7A7A7A"/>
		</linearGradient>
		<rect x="127" y="542.5" class="st24" width="4.6" height="5.6"/>
	</g>
	
		<linearGradient id="SVGID_19_" gradientUnits="userSpaceOnUse" x1="319.8523" y1="622.9563" x2="538.2102" y2="116.0742" gradientTransform="matrix(1 0 0 -1 -232.5 646.587)">
		<stop  offset="0" style="stop-color:#FFFFFF;stop-opacity:0.16"/>
		<stop  offset="1" style="stop-color:#FFFFFF;stop-opacity:5.000000e-02"/>
	</linearGradient>
	<path class="st25" d="M71.6,76.2c0-10.4,0-18.2,0.5-24.3c0.5-6.2,1.5-10.7,3.5-14.6c3.5-6.9,9.2-12.6,16.1-16.1
		c3.9-2,8.5-3,14.6-3.5c6.2-0.5,14-0.5,24.3-0.5h134.7c10.4,0,18.2,0,24.3,0.5c6.2,0.5,10.7,1.5,14.6,3.5
		c6.9,3.5,12.6,9.2,16.1,16.1c2,3.9,3,8.5,3.5,14.6c0.5,6.2,0.5,14,0.5,24.3v408.6c0,10.4,0,18.2-0.5,24.3
		c-0.5,6.2-1.5,10.7-3.5,14.6c-3.5,6.9-9.2,12.6-16.1,16.1c-3.9,2-8.5,3-14.6,3.5c-6.2,0.5-14,0.5-24.3,0.5H130.7
		c-10.4,0-18.2,0-24.3-0.5c-6.2-0.5-10.7-1.5-14.6-3.5c-6.9-3.5-12.6-9.2-16.1-16.1c-2-3.9-3-8.5-3.5-14.6c-0.5-6.2-0.5-14-0.5-24.3
		V76.2z"/>
	<g>
		
			<linearGradient id="SVGID_20_" gradientUnits="userSpaceOnUse" x1="299.502" y1="521.1182" x2="301.1581" y2="521.1182" gradientTransform="matrix(1 0 0 -1 -232.5 646.587)">
			<stop  offset="0" style="stop-color:#FFFFFF;stop-opacity:8.000000e-02"/>
			<stop  offset="0.276" style="stop-color:#FFFFFF;stop-opacity:0.24"/>
			<stop  offset="1" style="stop-color:#FFFFFF;stop-opacity:0"/>
		</linearGradient>
		<path class="st26" d="M67,116.5c0-0.4,0.3-0.7,0.7-0.7h1v19.2h-1c-0.4,0-0.7-0.3-0.7-0.7V116.5z"/>
	</g>
	<g>
		
			<linearGradient id="SVGID_21_" gradientUnits="userSpaceOnUse" x1="299.502" y1="477.3967" x2="301.1581" y2="477.3967" gradientTransform="matrix(1 0 0 -1 -232.5 646.587)">
			<stop  offset="0" style="stop-color:#FFFFFF;stop-opacity:8.000000e-02"/>
			<stop  offset="0.276" style="stop-color:#FFFFFF;stop-opacity:0.24"/>
			<stop  offset="1" style="stop-color:#FFFFFF;stop-opacity:0"/>
		</linearGradient>
		<path class="st27" d="M67,151.3c0-0.4,0.3-0.7,0.7-0.7h1v37.1h-1c-0.4,0-0.7-0.3-0.7-0.7V151.3z"/>
	</g>
	<g>
		
			<linearGradient id="SVGID_22_" gradientUnits="userSpaceOnUse" x1="559.845" y1="454.8732" x2="561.501" y2="454.8732" gradientTransform="matrix(1 0 0 -1 -232.5 646.587)">
			<stop  offset="0" style="stop-color:#FFFFFF;stop-opacity:0"/>
			<stop  offset="0.6302" style="stop-color:#FFFFFF;stop-opacity:0.24"/>
			<stop  offset="1" style="stop-color:#FFFFFF;stop-opacity:8.000000e-02"/>
		</linearGradient>
		<path class="st28" d="M327.3,162.9h1c0.4,0,0.7,0.3,0.7,0.7v56.3c0,0.4-0.3,0.7-0.7,0.7h-1V162.9z"/>
	</g>
	<g>
		
			<linearGradient id="SVGID_23_" gradientUnits="userSpaceOnUse" x1="299.502" y1="432.0187" x2="301.1581" y2="432.0187" gradientTransform="matrix(1 0 0 -1 -232.5 646.587)">
			<stop  offset="0" style="stop-color:#FFFFFF;stop-opacity:8.000000e-02"/>
			<stop  offset="0.276" style="stop-color:#FFFFFF;stop-opacity:0.24"/>
			<stop  offset="1" style="stop-color:#FFFFFF;stop-opacity:0"/>
		</linearGradient>
		<path class="st29" d="M67,196.7c0-0.4,0.3-0.7,0.7-0.7h1v37.1h-1c-0.4,0-0.7-0.3-0.7-0.7V196.7z"/>
	</g>
</g>
<defs>
	<filter id="Adobe_OpacityMaskFilter_2_" filterUnits="userSpaceOnUse" x="78.8" y="22.5" width="237.2" height="512.4">
		<feColorMatrix  type="matrix" values="1 0 0 0 0  0 1 0 0 0  0 0 1 0 0  0 0 0 1 0"/>
	</filter>
</defs>
<mask maskUnits="userSpaceOnUse" x="78.8" y="22.5" width="237.2" height="512.4" id="mask2_217_15_1_">
	<path class="st30" d="M83.8,42.4c-3.2,6.4-3.2,14.7-3.2,31.4v413c0,16.7,0,25,3.2,31.4c2.9,5.6,7.4,10.2,13,13
		c6.4,3.2,14.7,3.2,31.4,3.2h139.8c16.7,0,25,0,31.4-3.2c5.6-2.9,10.2-7.4,13-13c3.2-6.4,3.2-14.7,3.2-31.4v-413
		c0-16.7,0-25-3.2-31.4c-2.9-5.6-7.4-10.2-13-13c-6.4-3.2-14.7-3.2-31.4-3.2h-10.7c-0.5,0-0.8,0-1,0.1c-0.4,0.1-0.7,0.4-0.8,0.8
		c-0.1,0.2-0.1,0.5-0.1,1c0,4.4,0,6.6-0.6,8.3c-1.1,2.9-3.4,5.3-6.3,6.3c-1.8,0.6-3.9,0.6-8.3,0.6h-84c-4.4,0-6.6,0-8.3-0.6
		c-2.9-1.1-5.3-3.4-6.3-6.3c-0.6-1.8-0.6-3.9-0.6-8.3c0-0.5,0-0.8-0.1-1c-0.1-0.4-0.4-0.7-0.8-0.8c-0.2-0.1-0.5-0.1-1-0.1h-10.7
		c-16.7,0-25,0-31.4,3.2C91.2,32.2,86.7,36.8,83.8,42.4z"/>
</mask>
<g class="st31">
	<rect x="80.6" y="25.8" class="st32" width="235.5" height="509.1"/>
	<path class="st32" d="M98.8,22.5h196.7c11,0,20,9,20,20v471.3c0,11-9,20-20,20H98.8c-11,0-20-9-20-20V42.5
		C78.8,31.4,87.8,22.5,98.8,22.5z"/>
	<rect x="261.2" y="30.7" class="st33" width="51.3" height="18.3"/>
	<rect x="93.6" y="27.9" class="st33" width="36.6" height="18.3"/>
</g>
<g>
	<path class="st34" d="M185.2,32.4c0-1.3,1-2.3,2.3-2.3h21.2c1.3,0,2.3,1,2.3,2.3c0,1.3-1,2.3-2.3,2.3h-21.2
		C186.3,34.7,185.2,33.7,185.2,32.4z"/>
</g>
<g>
	<path class="st35" d="M186.2,32.4c0-0.7,0.6-1.3,1.3-1.3h21.2c0.7,0,1.3,0.6,1.3,1.3c0,0.7-0.6,1.3-1.3,1.3h-21.2
		C186.8,33.7,186.2,33.1,186.2,32.4z"/>
</g>
<linearGradient id="SVGID_24_" gradientUnits="userSpaceOnUse" x1="430.666" y1="616.5112" x2="430.666" y2="611.874" gradientTransform="matrix(1 0 0 -1 -232.5 646.587)">
	<stop  offset="0" style="stop-color:#000000"/>
	<stop  offset="0.483" style="stop-color:#484848"/>
	<stop  offset="1" style="stop-color:#000000"/>
</linearGradient>
<path class="st36" d="M185.7,32.4c0-1,0.8-1.8,1.8-1.8h21.2c1,0,1.8,0.8,1.8,1.8c0,1-0.8,1.8-1.8,1.8h-21.2
	C186.6,34.2,185.7,33.4,185.7,32.4z"/>
<radialGradient id="SVGID_25_" cx="-418.5078" cy="463.3046" r="1" gradientTransform="matrix(-2.8154 -3.6435 -3.6435 2.8154 731.6271 -2794.6702)" gradientUnits="userSpaceOnUse">
	<stop  offset="0" style="stop-color:#242424"/>
	<stop  offset="1" style="stop-color:#161616"/>
</radialGradient>
<path class="st37" d="M216.4,32.4c0-2.6,2.1-4.6,4.6-4.6c2.6,0,4.6,2.1,4.6,4.6c0,2.6-2.1,4.6-4.6,4.6C218.5,37,216.4,35,216.4,32.4
	z"/>
<radialGradient id="SVGID_26_" cx="-365.403" cy="696.4896" r="1" gradientTransform="matrix(2.839435e-16 4.6371 4.6371 -2.839435e-16 -3008.7068 1726.8228)" gradientUnits="userSpaceOnUse">
	<stop  offset="0.4635" style="stop-color:#000000;stop-opacity:0.25"/>
	<stop  offset="0.6458" style="stop-color:#000000;stop-opacity:0"/>
</radialGradient>
<path class="st38" d="M216.4,32.4c0-2.6,2.1-4.6,4.6-4.6c2.6,0,4.6,2.1,4.6,4.6c0,2.6-2.1,4.6-4.6,4.6C218.5,37,216.4,35,216.4,32.4
	z"/>
<linearGradient id="SVGID_27_" gradientUnits="userSpaceOnUse" x1="453.5195" y1="616.5112" x2="453.5195" y2="611.874" gradientTransform="matrix(1 0 0 -1 -232.5 646.587)">
	<stop  offset="0" style="stop-color:#0B528D"/>
	<stop  offset="0.276" style="stop-color:#3625AF"/>
	<stop  offset="0.5104" style="stop-color:#070D17"/>
	<stop  offset="0.7344" style="stop-color:#16618F"/>
	<stop  offset="1" style="stop-color:#021762"/>
</linearGradient>
<path class="st39" d="M223.3,32.4c0-1.3-1-2.3-2.3-2.3c-1.3,0-2.3,1-2.3,2.3c0,1.3,1,2.3,2.3,2.3C222.3,34.7,223.3,33.7,223.3,32.4z
	"/>
<radialGradient id="SVGID_28_" cx="-252.5487" cy="779.7126" r="1" gradientTransform="matrix(1.3249 2.153 2.153 -1.3249 -1124.8949 1608.6696)" gradientUnits="userSpaceOnUse">
	<stop  offset="0" style="stop-color:#070D17"/>
	<stop  offset="1" style="stop-color:#070D17;stop-opacity:0"/>
</radialGradient>
<path class="st40" d="M223.3,32.4c0-1.3-1-2.3-2.3-2.3c-1.3,0-2.3,1-2.3,2.3c0,1.3,1,2.3,2.3,2.3C222.3,34.7,223.3,33.7,223.3,32.4z
	"/>
<radialGradient id="SVGID_29_" cx="-482.826" cy="882.6099" r="1" gradientTransform="matrix(-0.4968 1.6561 1.6561 0.4968 -1480.2506 393.8404)" gradientUnits="userSpaceOnUse">
	<stop  offset="0.1468" style="stop-color:#070D17"/>
	<stop  offset="1" style="stop-color:#070D17;stop-opacity:0"/>
</radialGradient>
<path class="st41" d="M223.3,32.4c0-1.3-1-2.3-2.3-2.3c-1.3,0-2.3,1-2.3,2.3c0,1.3,1,2.3,2.3,2.3C222.3,34.7,223.3,33.7,223.3,32.4z
	"/>
<radialGradient id="SVGID_30_" cx="-739.6375" cy="962.3223" r="1" gradientTransform="matrix(-0.6625 0.8281 0.8281 0.6625 -1065.1569 6.8687)" gradientUnits="userSpaceOnUse">
	<stop  offset="0" style="stop-color:#6356D7"/>
	<stop  offset="1" style="stop-color:#15368A;stop-opacity:0"/>
</radialGradient>
<path class="st42" d="M223.3,32.4c0-1.3-1-2.3-2.3-2.3c-1.3,0-2.3,1-2.3,2.3c0,1.3,1,2.3,2.3,2.3C222.3,34.7,223.3,33.7,223.3,32.4z
	"/>
<radialGradient id="SVGID_31_" cx="-378.7528" cy="821.6849" r="1" gradientTransform="matrix(1.419721e-16 2.3186 2.3186 -1.419721e-16 -1684.1228 910.5629)" gradientUnits="userSpaceOnUse">
	<stop  offset="0.8281" style="stop-color:#000000;stop-opacity:0"/>
	<stop  offset="1" style="stop-color:#000000;stop-opacity:0.85"/>
</radialGradient>
<path class="st43" d="M223.3,32.4c0-1.3-1-2.3-2.3-2.3c-1.3,0-2.3,1-2.3,2.3c0,1.3,1,2.3,2.3,2.3C222.3,34.7,223.3,33.7,223.3,32.4z
	"/>
<g>
	
		<linearGradient id="SVGID_32_" gradientUnits="userSpaceOnUse" x1="282.7456" y1="329.2506" x2="521.3146" y2="165.0186" gradientTransform="matrix(1 0 0 -1 -232.5 646.587)">
		<stop  offset="0" style="stop-color:#657FF6"/>
		<stop  offset="1" style="stop-color:#64D8A7"/>
	</linearGradient>
	<path class="st44" d="M10,325.4h223c5.5,0,10,4.5,10,10v62c0,5.5-4.5,10-10,10H10c-5.5,0-10-4.5-10-10v-62
		C0,329.9,4.5,325.4,10,325.4z"/>
</g>
<path class="st45" d="M61,362.4v-9.9h3c0.8,0,1.5,0.1,2,0.4c0.6,0.3,1,0.6,1.3,1.1c0.3,0.5,0.5,1,0.5,1.7c0,0.4-0.1,0.8-0.2,1.1
	c-0.1,0.3-0.3,0.7-0.6,0.9c-0.3,0.3-0.6,0.5-1,0.7l2.3,4.1h-1.9l-1.9-3.6c-0.1,0-0.2,0-0.4,0c-0.1,0-0.2,0-0.4,0
	c-0.3,0-0.7,0-1.1-0.1v3.7H61z M62.7,353.9v3.3c0.2,0,0.4,0.1,0.6,0.1c0.2,0,0.4,0,0.6,0c0.7,0,1.2-0.1,1.6-0.4
	c0.4-0.3,0.6-0.7,0.6-1.2c0-0.5-0.2-0.9-0.6-1.2c-0.4-0.3-0.9-0.4-1.6-0.4H62.7z M72.8,362.6c-0.5,0-1-0.1-1.5-0.3
	c-0.4-0.2-0.8-0.5-1.2-0.8c-0.3-0.3-0.6-0.8-0.8-1.2c-0.2-0.5-0.3-1-0.3-1.6c0-0.6,0.1-1.1,0.3-1.5c0.2-0.5,0.4-0.9,0.8-1.2
	c0.3-0.4,0.7-0.6,1.1-0.8c0.4-0.2,0.9-0.3,1.4-0.3c0.5,0,1,0.1,1.4,0.3c0.4,0.2,0.8,0.4,1.1,0.8c0.3,0.3,0.6,0.7,0.7,1.2
	c0.2,0.5,0.3,1,0.3,1.5v0.5h-5.4c0,0.4,0.2,0.8,0.3,1.1c0.2,0.3,0.4,0.5,0.7,0.7c0.3,0.2,0.6,0.3,1,0.3c0.8,0,1.4-0.3,1.8-1l1.4,0.5
	c-0.2,0.4-0.4,0.7-0.7,1c-0.3,0.3-0.7,0.5-1.1,0.6C73.7,362.5,73.2,362.6,72.8,362.6z M72.6,356.2c-0.3,0-0.6,0.1-0.9,0.2
	c-0.3,0.1-0.5,0.4-0.6,0.6c-0.2,0.3-0.3,0.6-0.4,1h3.7c-0.1-0.4-0.2-0.7-0.3-1c-0.2-0.3-0.4-0.5-0.6-0.6
	C73.2,356.2,73,356.2,72.6,356.2z M80.9,362.6c-0.5,0-1-0.1-1.4-0.3c-0.4-0.2-0.8-0.5-1.1-0.8c-0.3-0.3-0.6-0.8-0.8-1.2
	c-0.2-0.5-0.3-1-0.3-1.5s0.1-1.1,0.3-1.5c0.2-0.5,0.4-0.9,0.8-1.2c0.3-0.4,0.7-0.6,1.1-0.8c0.4-0.2,0.9-0.3,1.5-0.3
	c0.5,0,1,0.1,1.4,0.3c0.4,0.2,0.8,0.4,1.1,0.8c0.3,0.3,0.5,0.7,0.7,1.2l-1.5,0.4c-0.2-0.4-0.4-0.6-0.7-0.8c-0.3-0.2-0.6-0.3-1-0.3
	c-0.4,0-0.7,0.1-1,0.3c-0.3,0.2-0.5,0.5-0.7,0.9c-0.2,0.4-0.3,0.8-0.3,1.2c0,0.5,0.1,0.9,0.3,1.2c0.2,0.4,0.4,0.6,0.7,0.8
	c0.3,0.2,0.6,0.3,1,0.3c0.4,0,0.7-0.1,1-0.3c0.3-0.2,0.5-0.5,0.7-0.8l1.5,0.3c-0.1,0.4-0.4,0.8-0.7,1.2c-0.3,0.3-0.7,0.6-1.1,0.8
	C81.8,362.5,81.4,362.6,80.9,362.6z M87.2,353c0,0.2,0,0.3-0.1,0.5c-0.1,0.1-0.2,0.3-0.3,0.4c-0.1,0.1-0.3,0.1-0.5,0.1
	s-0.3,0-0.5-0.1c-0.1-0.1-0.3-0.2-0.4-0.4c-0.1-0.1-0.1-0.3-0.1-0.5s0-0.3,0.1-0.5c0.1-0.1,0.2-0.3,0.4-0.4c0.1-0.1,0.3-0.1,0.5-0.1
	s0.3,0,0.5,0.1c0.1,0.1,0.3,0.2,0.3,0.4C87.1,352.7,87.2,352.8,87.2,353z M85.4,362.4v-7.3H87v7.3H85.4z M88.8,362.4V352h1.6v4.2
	c0.3-0.4,0.6-0.7,1-0.9c0.4-0.2,0.9-0.3,1.4-0.3c0.5,0,0.9,0.1,1.3,0.3c0.4,0.2,0.8,0.5,1.1,0.8s0.5,0.8,0.7,1.2
	c0.2,0.5,0.3,1,0.3,1.5c0,0.6-0.1,1.1-0.3,1.5c-0.2,0.5-0.4,0.9-0.7,1.2c-0.3,0.4-0.7,0.6-1.1,0.8c-0.4,0.2-0.9,0.3-1.4,0.3
	c-0.5,0-1-0.1-1.4-0.3c-0.4-0.2-0.7-0.5-1-1l-0.1,1.1H88.8z M92.4,361.1c0.4,0,0.8-0.1,1.1-0.3c0.3-0.2,0.6-0.5,0.7-0.9
	c0.2-0.4,0.3-0.8,0.3-1.2s-0.1-0.9-0.3-1.2c-0.2-0.4-0.4-0.6-0.7-0.9c-0.3-0.2-0.7-0.3-1.1-0.3c-0.4,0-0.8,0.1-1.1,0.3
	c-0.3,0.2-0.6,0.5-0.8,0.9c-0.2,0.4-0.3,0.8-0.3,1.2s0.1,0.9,0.3,1.2c0.2,0.4,0.4,0.7,0.8,0.9C91.7,361,92,361.1,92.4,361.1z
	 M97.6,362.4v-7.3h1.6v7.3H97.6z M97.2,354l1.6-2h1.8l-1.9,2H97.2z M103.9,365.2v-10.1h1.5l0.1,1.2c0.3-0.4,0.6-0.8,1-1
	c0.4-0.3,0.9-0.4,1.4-0.4c0.5,0,0.9,0.1,1.3,0.3c0.4,0.2,0.8,0.5,1.1,0.8s0.5,0.8,0.7,1.2c0.2,0.5,0.3,1,0.3,1.5
	c0,0.6-0.1,1.1-0.3,1.5c-0.2,0.5-0.4,0.9-0.7,1.2c-0.3,0.4-0.7,0.6-1.1,0.8c-0.4,0.2-0.9,0.3-1.4,0.3c-0.5,0-0.9-0.1-1.3-0.3
	c-0.4-0.2-0.7-0.5-1-0.9v3.7H103.9z M107.6,361.1c0.4,0,0.8-0.1,1.1-0.3c0.3-0.2,0.6-0.5,0.7-0.9c0.2-0.4,0.3-0.8,0.3-1.2
	s-0.1-0.9-0.3-1.2c-0.2-0.4-0.4-0.6-0.7-0.9c-0.3-0.2-0.7-0.3-1.1-0.3c-0.4,0-0.8,0.1-1.1,0.3c-0.3,0.2-0.6,0.5-0.8,0.9
	c-0.2,0.4-0.3,0.8-0.3,1.2s0.1,0.9,0.3,1.2c0.2,0.4,0.4,0.7,0.8,0.9C106.9,361,107.2,361.1,107.6,361.1z M112.8,362.4v-7.3h1.5
	l0.1,1.2c0.2-0.4,0.4-0.7,0.8-1c0.3-0.2,0.7-0.4,1.2-0.4c0.1,0,0.3,0,0.4,0c0.1,0,0.2,0.1,0.4,0.1l-0.2,1.6c-0.1,0-0.2-0.1-0.3-0.1
	c-0.1,0-0.2,0-0.3,0c-0.6,0-1,0.2-1.3,0.6c-0.3,0.4-0.5,0.9-0.5,1.6v3.7H112.8z M121.4,362.6c-0.5,0-1-0.1-1.5-0.3
	c-0.4-0.2-0.8-0.5-1.2-0.8c-0.3-0.3-0.6-0.8-0.8-1.2c-0.2-0.5-0.3-1-0.3-1.6c0-0.6,0.1-1.1,0.3-1.5c0.2-0.5,0.4-0.9,0.8-1.2
	c0.3-0.4,0.7-0.6,1.1-0.8c0.4-0.2,0.9-0.3,1.4-0.3s1,0.1,1.4,0.3c0.4,0.2,0.8,0.4,1.1,0.8c0.3,0.3,0.6,0.7,0.7,1.2
	c0.2,0.5,0.3,1,0.3,1.5v0.5h-5.4c0,0.4,0.2,0.8,0.3,1.1c0.2,0.3,0.4,0.5,0.7,0.7c0.3,0.2,0.6,0.3,1,0.3c0.8,0,1.4-0.3,1.8-1l1.4,0.5
	c-0.2,0.4-0.4,0.7-0.7,1c-0.3,0.3-0.7,0.5-1.1,0.6C122.3,362.5,121.9,362.6,121.4,362.6z M121.3,356.2c-0.3,0-0.6,0.1-0.9,0.2
	c-0.3,0.1-0.5,0.4-0.6,0.6s-0.3,0.6-0.4,1h3.7c-0.1-0.4-0.2-0.7-0.3-1c-0.2-0.3-0.4-0.5-0.6-0.6
	C121.9,356.2,121.6,356.2,121.3,356.2z M128.7,362.6c-0.5,0-0.9-0.1-1.3-0.2c-0.4-0.2-0.7-0.4-1-0.7c-0.3-0.3-0.5-0.6-0.6-1l1.5-0.4
	c0.1,0.3,0.3,0.6,0.6,0.7c0.3,0.2,0.6,0.3,0.9,0.3c0.4,0,0.7-0.1,0.9-0.3c0.2-0.2,0.4-0.4,0.4-0.7c0-0.2-0.1-0.4-0.3-0.6
	c-0.2-0.2-0.5-0.3-0.9-0.4l-0.5-0.1c-0.8-0.1-1.4-0.4-1.8-0.8c-0.4-0.4-0.6-0.8-0.6-1.4c0-0.5,0.1-0.9,0.3-1.2
	c0.2-0.3,0.6-0.6,1-0.8c0.4-0.2,0.9-0.3,1.4-0.3c0.5,0,0.9,0.1,1.3,0.2c0.4,0.2,0.7,0.4,1,0.7c0.3,0.3,0.4,0.6,0.6,1l-1.4,0.4
	c-0.1-0.3-0.3-0.5-0.5-0.7c-0.2-0.2-0.5-0.3-0.8-0.3c-0.3,0-0.6,0.1-0.8,0.3c-0.2,0.2-0.3,0.4-0.3,0.6c0,0.2,0.1,0.4,0.3,0.5
	c0.2,0.1,0.5,0.3,1,0.3l0.5,0.1c0.7,0.1,1.3,0.4,1.7,0.8c0.4,0.4,0.6,0.9,0.6,1.4c0,0.3-0.1,0.7-0.2,1c-0.1,0.3-0.3,0.5-0.6,0.8
	c-0.3,0.2-0.6,0.4-0.9,0.5C129.5,362.5,129.1,362.6,128.7,362.6z M136.1,362.6c-0.7,0-1.2-0.1-1.7-0.4c-0.5-0.3-0.9-0.7-1.1-1.2
	c-0.3-0.5-0.4-1.1-0.4-1.8v-4.1h1.6v4.1c0,0.6,0.1,1.1,0.4,1.4c0.3,0.3,0.7,0.5,1.2,0.5s0.9-0.2,1.2-0.5c0.3-0.4,0.4-0.8,0.4-1.4
	v-4.1h1.6v4.1c0,0.7-0.1,1.3-0.4,1.8c-0.3,0.5-0.6,0.9-1.1,1.2C137.3,362.5,136.8,362.6,136.1,362.6z M141.1,365.2v-10.1h1.5
	l0.1,1.2c0.3-0.4,0.6-0.8,1-1c0.4-0.3,0.9-0.4,1.4-0.4c0.5,0,0.9,0.1,1.3,0.3c0.4,0.2,0.8,0.5,1.1,0.8s0.5,0.8,0.7,1.2
	c0.2,0.5,0.3,1,0.3,1.5c0,0.6-0.1,1.1-0.3,1.5c-0.2,0.5-0.4,0.9-0.7,1.2s-0.7,0.6-1.1,0.8c-0.4,0.2-0.9,0.3-1.4,0.3
	c-0.5,0-0.9-0.1-1.3-0.3c-0.4-0.2-0.7-0.5-1-0.9v3.7H141.1z M144.8,361.1c0.4,0,0.8-0.1,1.1-0.3c0.3-0.2,0.6-0.5,0.7-0.9
	c0.2-0.4,0.3-0.8,0.3-1.2s-0.1-0.9-0.3-1.2c-0.2-0.4-0.4-0.6-0.7-0.9c-0.3-0.2-0.7-0.3-1.1-0.3s-0.8,0.1-1.1,0.3
	c-0.3,0.2-0.6,0.5-0.8,0.9c-0.2,0.4-0.3,0.8-0.3,1.2s0.1,0.9,0.3,1.2c0.2,0.4,0.4,0.7,0.8,0.9C144,361,144.4,361.1,144.8,361.1z
	 M153.1,362.6c-0.7,0-1.2-0.1-1.7-0.4c-0.5-0.3-0.8-0.7-1.1-1.2c-0.3-0.5-0.4-1.1-0.4-1.8v-4.1h1.6v4.1c0,0.6,0.1,1.1,0.4,1.4
	c0.3,0.3,0.7,0.5,1.2,0.5s0.9-0.2,1.2-0.5c0.3-0.4,0.4-0.8,0.4-1.4v-4.1h1.6v4.1c0,0.7-0.1,1.3-0.4,1.8c-0.3,0.5-0.6,0.9-1.1,1.2
	C154.4,362.5,153.8,362.6,153.1,362.6z M161.5,362.6c-0.5,0-1-0.1-1.5-0.3c-0.4-0.2-0.8-0.5-1.2-0.8s-0.6-0.8-0.8-1.2
	c-0.2-0.5-0.3-1-0.3-1.6c0-0.6,0.1-1.1,0.3-1.5c0.2-0.5,0.4-0.9,0.8-1.2c0.3-0.4,0.7-0.6,1.1-0.8c0.4-0.2,0.9-0.3,1.4-0.3
	c0.5,0,1,0.1,1.4,0.3c0.4,0.2,0.8,0.4,1.1,0.8c0.3,0.3,0.6,0.7,0.7,1.2c0.2,0.5,0.3,1,0.3,1.5v0.5h-5.4c0,0.4,0.2,0.8,0.3,1.1
	c0.2,0.3,0.4,0.5,0.7,0.7c0.3,0.2,0.6,0.3,1,0.3c0.8,0,1.4-0.3,1.8-1l1.4,0.5c-0.2,0.4-0.4,0.7-0.7,1c-0.3,0.3-0.7,0.5-1.1,0.6
	C162.5,362.5,162,362.6,161.5,362.6z M161.4,356.2c-0.3,0-0.6,0.1-0.9,0.2c-0.3,0.1-0.5,0.4-0.6,0.6c-0.2,0.3-0.3,0.6-0.4,1h3.7
	c-0.1-0.4-0.2-0.7-0.3-1c-0.2-0.3-0.4-0.5-0.6-0.6C162,356.2,161.7,356.2,161.4,356.2z M168.8,362.6c-0.5,0-0.9-0.1-1.3-0.2
	c-0.4-0.2-0.7-0.4-1-0.7c-0.3-0.3-0.5-0.6-0.6-1l1.5-0.4c0.1,0.3,0.3,0.6,0.6,0.7c0.3,0.2,0.6,0.3,0.9,0.3c0.4,0,0.7-0.1,0.9-0.3
	c0.2-0.2,0.4-0.4,0.4-0.7c0-0.2-0.1-0.4-0.3-0.6c-0.2-0.2-0.5-0.3-0.9-0.4l-0.5-0.1c-0.8-0.1-1.4-0.4-1.8-0.8
	c-0.4-0.4-0.6-0.8-0.6-1.4c0-0.5,0.1-0.9,0.4-1.2c0.2-0.3,0.6-0.6,1-0.8c0.4-0.2,0.9-0.3,1.4-0.3c0.5,0,0.9,0.1,1.3,0.2
	c0.4,0.2,0.7,0.4,1,0.7c0.3,0.3,0.4,0.6,0.6,1l-1.4,0.4c-0.1-0.3-0.3-0.5-0.5-0.7c-0.2-0.2-0.5-0.3-0.8-0.3c-0.3,0-0.6,0.1-0.8,0.3
	c-0.2,0.2-0.3,0.4-0.3,0.6c0,0.2,0.1,0.4,0.3,0.5c0.2,0.1,0.5,0.3,1,0.3l0.5,0.1c0.7,0.1,1.3,0.4,1.7,0.8c0.4,0.4,0.6,0.9,0.6,1.4
	c0,0.3-0.1,0.7-0.2,1c-0.1,0.3-0.3,0.5-0.6,0.8c-0.3,0.2-0.6,0.4-0.9,0.5C169.6,362.5,169.2,362.6,168.8,362.6z M176,362.6
	c-0.7,0-1.3-0.2-1.7-0.6c-0.4-0.4-0.6-1-0.6-1.8v-3.8h-1.3v-1.3h1.3v-2.5h1.6v2.5h2.1v1.3h-2.1v3.6c0,0.4,0.1,0.7,0.2,0.9
	c0.2,0.2,0.4,0.3,0.7,0.3c0.2,0,0.4,0,0.5-0.1c0.2-0.1,0.4-0.1,0.5-0.2l0.4,1.2c-0.2,0.1-0.5,0.3-0.8,0.4
	C176.6,362.6,176.3,362.6,176,362.6z M182.2,362.6c-0.5,0-1-0.1-1.5-0.3c-0.4-0.2-0.8-0.5-1.2-0.8c-0.3-0.4-0.6-0.8-0.8-1.2
	c-0.2-0.5-0.3-1-0.3-1.6c0-0.6,0.1-1.1,0.3-1.5c0.2-0.5,0.4-0.9,0.8-1.2c0.3-0.4,0.7-0.6,1.2-0.8c0.5-0.2,1-0.3,1.5-0.3
	c0.5,0,1,0.1,1.5,0.3c0.5,0.2,0.9,0.5,1.2,0.8c0.3,0.3,0.6,0.8,0.8,1.2c0.2,0.5,0.3,1,0.3,1.5s-0.1,1.1-0.3,1.6
	c-0.2,0.5-0.5,0.9-0.8,1.2c-0.3,0.3-0.7,0.6-1.2,0.8C183.2,362.5,182.7,362.6,182.2,362.6z M182.2,361.1c0.4,0,0.8-0.1,1.1-0.3
	c0.3-0.2,0.6-0.5,0.7-0.9c0.2-0.4,0.3-0.8,0.3-1.2s-0.1-0.9-0.3-1.2c-0.2-0.4-0.4-0.6-0.7-0.9c-0.3-0.2-0.7-0.3-1.1-0.3
	c-0.4,0-0.8,0.1-1.1,0.3c-0.3,0.2-0.6,0.5-0.8,0.9c-0.2,0.4-0.3,0.8-0.3,1.2s0.1,0.9,0.3,1.2c0.2,0.4,0.4,0.7,0.8,0.9
	C181.4,361,181.8,361.1,182.2,361.1z M189.9,362.6c-0.5,0-0.9-0.1-1.3-0.2c-0.4-0.2-0.7-0.4-1-0.7c-0.3-0.3-0.5-0.6-0.6-1l1.5-0.4
	c0.1,0.3,0.3,0.6,0.6,0.7c0.3,0.2,0.6,0.3,0.9,0.3c0.4,0,0.7-0.1,0.9-0.3c0.2-0.2,0.4-0.4,0.4-0.7c0-0.2-0.1-0.4-0.3-0.6
	c-0.2-0.2-0.5-0.3-0.9-0.4l-0.5-0.1c-0.8-0.1-1.4-0.4-1.8-0.8c-0.4-0.4-0.6-0.8-0.6-1.4c0-0.5,0.1-0.9,0.3-1.2
	c0.2-0.3,0.6-0.6,1-0.8c0.4-0.2,0.9-0.3,1.4-0.3c0.5,0,0.9,0.1,1.3,0.2c0.4,0.2,0.7,0.4,1,0.7c0.3,0.3,0.4,0.6,0.6,1l-1.4,0.4
	c-0.1-0.3-0.3-0.5-0.5-0.7c-0.2-0.2-0.5-0.3-0.8-0.3c-0.3,0-0.6,0.1-0.8,0.3c-0.2,0.2-0.3,0.4-0.3,0.6c0,0.2,0.1,0.4,0.3,0.5
	c0.2,0.1,0.5,0.3,1,0.3l0.5,0.1c0.7,0.1,1.3,0.4,1.7,0.8c0.4,0.4,0.6,0.9,0.6,1.4c0,0.3-0.1,0.7-0.2,1c-0.1,0.3-0.3,0.5-0.6,0.8
	c-0.3,0.2-0.6,0.4-0.9,0.5C190.7,362.5,190.3,362.6,189.9,362.6z M200.1,362.6c-0.5,0-0.9-0.1-1.4-0.3c-0.4-0.2-0.8-0.5-1.1-0.8
	s-0.6-0.8-0.7-1.2c-0.2-0.5-0.3-1-0.3-1.5c0-0.6,0.1-1.1,0.3-1.5c0.2-0.5,0.4-0.9,0.7-1.2c0.3-0.4,0.7-0.6,1.1-0.8
	c0.4-0.2,0.9-0.3,1.4-0.3c0.5,0,0.9,0.1,1.3,0.3s0.7,0.5,1,0.9V352h1.6v10.4h-1.5l-0.1-1.2c-0.3,0.4-0.6,0.8-1,1
	C201.1,362.5,200.7,362.6,200.1,362.6z M200.5,361.1c0.4,0,0.8-0.1,1.1-0.3c0.3-0.2,0.6-0.5,0.7-0.9c0.2-0.4,0.3-0.8,0.3-1.2
	c0-0.5-0.1-0.9-0.3-1.2c-0.2-0.4-0.4-0.6-0.7-0.9c-0.3-0.2-0.7-0.3-1.1-0.3s-0.8,0.1-1.1,0.3c-0.3,0.2-0.6,0.5-0.8,0.9
	c-0.2,0.4-0.3,0.8-0.3,1.2c0,0.5,0.1,0.9,0.3,1.2c0.2,0.4,0.4,0.7,0.8,0.9C199.7,361,200.1,361.1,200.5,361.1z M209.3,362.6
	c-0.5,0-1-0.1-1.5-0.3c-0.4-0.2-0.8-0.5-1.2-0.8s-0.6-0.8-0.8-1.2c-0.2-0.5-0.3-1-0.3-1.6c0-0.6,0.1-1.1,0.3-1.5
	c0.2-0.5,0.4-0.9,0.8-1.2c0.3-0.4,0.7-0.6,1.1-0.8c0.4-0.2,0.9-0.3,1.4-0.3c0.5,0,1,0.1,1.4,0.3c0.4,0.2,0.8,0.4,1.1,0.8
	c0.3,0.3,0.6,0.7,0.7,1.2c0.2,0.5,0.3,1,0.3,1.5v0.5h-5.4c0,0.4,0.2,0.8,0.3,1.1c0.2,0.3,0.4,0.5,0.7,0.7c0.3,0.2,0.6,0.3,1,0.3
	c0.8,0,1.4-0.3,1.8-1l1.4,0.5c-0.2,0.4-0.4,0.7-0.7,1c-0.3,0.3-0.7,0.5-1.1,0.6C210.2,362.5,209.8,362.6,209.3,362.6z M209.2,356.2
	c-0.3,0-0.6,0.1-0.9,0.2c-0.3,0.1-0.5,0.4-0.6,0.6c-0.2,0.3-0.3,0.6-0.4,1h3.7c-0.1-0.4-0.2-0.7-0.3-1c-0.2-0.3-0.4-0.5-0.6-0.6
	C209.8,356.2,209.5,356.2,209.2,356.2z M64.3,380.6c-0.5,0-1-0.1-1.5-0.3c-0.4-0.2-0.8-0.5-1.2-0.8s-0.6-0.8-0.8-1.2
	c-0.2-0.5-0.3-1-0.3-1.6c0-0.6,0.1-1.1,0.3-1.5c0.2-0.5,0.4-0.9,0.8-1.2c0.3-0.4,0.7-0.6,1.1-0.8c0.4-0.2,0.9-0.3,1.4-0.3
	c0.5,0,1,0.1,1.4,0.3c0.4,0.2,0.8,0.4,1.1,0.8c0.3,0.3,0.6,0.7,0.7,1.2c0.2,0.5,0.3,1,0.3,1.5v0.5h-5.4c0,0.4,0.2,0.8,0.3,1.1
	c0.2,0.3,0.4,0.5,0.7,0.7s0.6,0.3,1,0.3c0.8,0,1.4-0.3,1.8-1l1.4,0.5c-0.2,0.4-0.4,0.7-0.7,1c-0.3,0.3-0.7,0.5-1.1,0.6
	C65.2,380.5,64.7,380.6,64.3,380.6z M64.1,374.2c-0.3,0-0.6,0.1-0.9,0.2c-0.3,0.1-0.5,0.4-0.6,0.6c-0.2,0.3-0.3,0.6-0.4,1h3.7
	c-0.1-0.4-0.2-0.7-0.3-1s-0.4-0.5-0.6-0.6C64.7,374.2,64.5,374.2,64.1,374.2z M68.1,380.4l2.8-3.9l-2.5-3.5h1.8l1.6,2.4l1.6-2.4h1.8
	l-2.5,3.5l2.8,3.9h-1.9l-1.8-2.8l-1.8,2.8H68.1z M76.5,383.2v-10.1H78l0.1,1.2c0.3-0.4,0.6-0.8,1-1c0.4-0.3,0.9-0.4,1.4-0.4
	c0.5,0,0.9,0.1,1.3,0.3c0.4,0.2,0.8,0.5,1.1,0.8c0.3,0.3,0.5,0.8,0.7,1.2c0.2,0.5,0.3,1,0.3,1.5c0,0.6-0.1,1.1-0.3,1.5
	c-0.2,0.5-0.4,0.9-0.7,1.2c-0.3,0.4-0.7,0.6-1.1,0.8c-0.4,0.2-0.9,0.3-1.4,0.3c-0.5,0-0.9-0.1-1.3-0.3c-0.4-0.2-0.7-0.5-1-0.9v3.7
	H76.5z M80.2,379.1c0.4,0,0.8-0.1,1.1-0.3c0.3-0.2,0.6-0.5,0.7-0.9c0.2-0.4,0.3-0.8,0.3-1.2s-0.1-0.9-0.3-1.2
	c-0.2-0.4-0.4-0.6-0.7-0.9c-0.3-0.2-0.7-0.3-1.1-0.3c-0.4,0-0.8,0.1-1.1,0.3c-0.3,0.2-0.6,0.5-0.8,0.9c-0.2,0.4-0.3,0.8-0.3,1.2
	s0.1,0.9,0.3,1.2c0.2,0.4,0.4,0.7,0.8,0.9C79.4,379,79.8,379.1,80.2,379.1z M88.8,380.6c-0.5,0-1-0.1-1.5-0.3
	c-0.4-0.2-0.8-0.5-1.2-0.8s-0.6-0.8-0.8-1.2c-0.2-0.5-0.3-1-0.3-1.6c0-0.6,0.1-1.1,0.3-1.5c0.2-0.5,0.4-0.9,0.8-1.2
	c0.3-0.4,0.7-0.6,1.1-0.8c0.4-0.2,0.9-0.3,1.4-0.3c0.5,0,1,0.1,1.4,0.3c0.4,0.2,0.8,0.4,1.1,0.8c0.3,0.3,0.6,0.7,0.7,1.2
	c0.2,0.5,0.3,1,0.3,1.5v0.5h-5.4c0,0.4,0.2,0.8,0.3,1.1c0.2,0.3,0.4,0.5,0.7,0.7s0.6,0.3,1,0.3c0.8,0,1.4-0.3,1.8-1l1.4,0.5
	c-0.2,0.4-0.4,0.7-0.7,1c-0.3,0.3-0.7,0.5-1.1,0.6C89.7,380.5,89.3,380.6,88.8,380.6z M88.7,374.2c-0.3,0-0.6,0.1-0.9,0.2
	c-0.3,0.1-0.5,0.4-0.6,0.6c-0.2,0.3-0.3,0.6-0.4,1h3.7c-0.1-0.4-0.2-0.7-0.3-1s-0.4-0.5-0.6-0.6C89.3,374.2,89,374.2,88.7,374.2z
	 M93.5,380.4v-7.3H95l0.1,1.2c0.2-0.4,0.4-0.7,0.8-1c0.3-0.2,0.7-0.4,1.2-0.4c0.1,0,0.3,0,0.4,0c0.1,0,0.2,0.1,0.4,0.1l-0.2,1.6
	c-0.1,0-0.2-0.1-0.3-0.1c-0.1,0-0.2,0-0.3,0c-0.6,0-1,0.2-1.3,0.6c-0.3,0.4-0.5,0.9-0.5,1.6v3.7H93.5z M102.2,380.6
	c-0.7,0-1.3-0.2-1.7-0.6c-0.4-0.4-0.6-1-0.6-1.8v-3.8h-1.3v-1.3h1.3v-2.5h1.6v2.5h2.1v1.3h-2.1v3.6c0,0.4,0.1,0.7,0.2,0.9
	c0.2,0.2,0.4,0.3,0.7,0.3c0.2,0,0.3,0,0.5-0.1c0.2-0.1,0.4-0.1,0.5-0.2l0.4,1.2c-0.2,0.1-0.5,0.3-0.8,0.4
	C102.8,380.6,102.5,380.6,102.2,380.6z M108.4,380.6c-0.5,0-1-0.1-1.5-0.3c-0.4-0.2-0.8-0.5-1.2-0.8c-0.3-0.4-0.6-0.8-0.8-1.2
	c-0.2-0.5-0.3-1-0.3-1.6c0-0.6,0.1-1.1,0.3-1.5c0.2-0.5,0.4-0.9,0.8-1.2c0.3-0.4,0.7-0.6,1.2-0.8c0.5-0.2,1-0.3,1.5-0.3
	c0.5,0,1,0.1,1.5,0.3c0.5,0.2,0.9,0.5,1.2,0.8c0.3,0.3,0.6,0.8,0.8,1.2c0.2,0.5,0.3,1,0.3,1.5s-0.1,1.1-0.3,1.6
	c-0.2,0.5-0.5,0.9-0.8,1.2c-0.3,0.3-0.7,0.6-1.2,0.8C109.5,380.5,109,380.6,108.4,380.6z M108.4,379.1c0.4,0,0.8-0.1,1.1-0.3
	c0.3-0.2,0.6-0.5,0.7-0.9c0.2-0.4,0.3-0.8,0.3-1.2s-0.1-0.9-0.3-1.2c-0.2-0.4-0.4-0.6-0.7-0.9c-0.3-0.2-0.7-0.3-1.1-0.3
	c-0.4,0-0.8,0.1-1.1,0.3c-0.3,0.2-0.6,0.5-0.8,0.9c-0.2,0.4-0.3,0.8-0.3,1.2s0.1,0.9,0.3,1.2c0.2,0.4,0.4,0.7,0.8,0.9
	C107.7,379,108,379.1,108.4,379.1z M116.1,380.6c-0.5,0-0.9-0.1-1.3-0.2c-0.4-0.2-0.7-0.4-1-0.7c-0.3-0.3-0.5-0.6-0.6-1l1.5-0.4
	c0.1,0.3,0.3,0.6,0.6,0.7c0.3,0.2,0.6,0.3,0.9,0.3c0.4,0,0.7-0.1,0.9-0.3c0.2-0.2,0.3-0.4,0.3-0.7c0-0.2-0.1-0.4-0.3-0.6
	c-0.2-0.2-0.5-0.3-0.9-0.4l-0.5-0.1c-0.8-0.1-1.4-0.4-1.8-0.8c-0.4-0.4-0.6-0.8-0.6-1.4c0-0.5,0.1-0.9,0.3-1.2s0.6-0.6,1-0.8
	c0.4-0.2,0.9-0.3,1.4-0.3c0.5,0,0.9,0.1,1.3,0.2c0.4,0.2,0.7,0.4,1,0.7s0.4,0.6,0.6,1l-1.4,0.4c-0.1-0.3-0.3-0.5-0.5-0.7
	c-0.2-0.2-0.5-0.3-0.8-0.3c-0.3,0-0.6,0.1-0.8,0.3c-0.2,0.2-0.3,0.4-0.3,0.6c0,0.2,0.1,0.4,0.3,0.5c0.2,0.1,0.5,0.3,1,0.3l0.5,0.1
	c0.7,0.1,1.3,0.4,1.7,0.8s0.6,0.9,0.6,1.4c0,0.3-0.1,0.7-0.2,1c-0.1,0.3-0.3,0.5-0.6,0.8c-0.3,0.2-0.6,0.4-0.9,0.5
	C116.9,380.5,116.5,380.6,116.1,380.6z M124.3,383.3c-0.2,0-0.5,0-0.7-0.1c-0.2,0-0.4-0.1-0.6-0.2l0.3-1.3c0.1,0,0.2,0.1,0.3,0.1
	c0.1,0,0.3,0.1,0.4,0.1c0.3,0,0.5-0.1,0.7-0.2c0.2-0.2,0.4-0.4,0.5-0.8l0.2-0.6l-3-7.3h1.8l2,5.5l1.8-5.5h1.7l-3.1,8.2
	c-0.3,0.7-0.6,1.2-1,1.5C125.3,383.1,124.8,383.3,124.3,383.3z M137.3,380.6c-0.5,0-1-0.1-1.5-0.3c-0.4-0.2-0.8-0.5-1.2-0.8
	s-0.6-0.8-0.8-1.2c-0.2-0.5-0.3-1-0.3-1.6c0-0.6,0.1-1.1,0.3-1.5c0.2-0.5,0.4-0.9,0.8-1.2c0.3-0.4,0.7-0.6,1.1-0.8
	c0.4-0.2,0.9-0.3,1.4-0.3s1,0.1,1.4,0.3c0.4,0.2,0.8,0.4,1.1,0.8c0.3,0.3,0.6,0.7,0.7,1.2c0.2,0.5,0.3,1,0.3,1.5v0.5h-5.4
	c0,0.4,0.2,0.8,0.3,1.1c0.2,0.3,0.4,0.5,0.7,0.7s0.6,0.3,1,0.3c0.8,0,1.4-0.3,1.8-1l1.4,0.5c-0.2,0.4-0.4,0.7-0.7,1
	c-0.3,0.3-0.7,0.5-1.1,0.6C138.2,380.5,137.8,380.6,137.3,380.6z M137.2,374.2c-0.3,0-0.6,0.1-0.9,0.2c-0.3,0.1-0.5,0.4-0.6,0.6
	s-0.3,0.6-0.4,1h3.7c-0.1-0.4-0.2-0.7-0.3-1c-0.2-0.3-0.4-0.5-0.6-0.6C137.8,374.2,137.5,374.2,137.2,374.2z M142,380.4V370h1.6
	v10.4H142z M148.8,380.6c-0.5,0-1-0.1-1.5-0.3c-0.4-0.2-0.8-0.5-1.2-0.8s-0.6-0.8-0.8-1.2c-0.2-0.5-0.3-1-0.3-1.6
	c0-0.6,0.1-1.1,0.3-1.5c0.2-0.5,0.4-0.9,0.8-1.2c0.3-0.4,0.7-0.6,1.1-0.8c0.4-0.2,0.9-0.3,1.4-0.3c0.5,0,1,0.1,1.4,0.3
	c0.4,0.2,0.8,0.4,1.1,0.8c0.3,0.3,0.6,0.7,0.7,1.2c0.2,0.5,0.3,1,0.3,1.5v0.5h-5.4c0,0.4,0.2,0.8,0.3,1.1c0.2,0.3,0.4,0.5,0.7,0.7
	c0.3,0.2,0.6,0.3,1,0.3c0.8,0,1.4-0.3,1.8-1l1.4,0.5c-0.2,0.4-0.4,0.7-0.7,1c-0.3,0.3-0.7,0.5-1.1,0.6
	C149.7,380.5,149.3,380.6,148.8,380.6z M148.7,374.2c-0.3,0-0.6,0.1-0.9,0.2c-0.3,0.1-0.5,0.4-0.6,0.6c-0.2,0.3-0.3,0.6-0.4,1h3.7
	c-0.1-0.4-0.2-0.7-0.3-1c-0.2-0.3-0.4-0.5-0.6-0.6C149.3,374.2,149,374.2,148.7,374.2z M156.6,380.2c-0.5,0-0.9-0.1-1.3-0.3
	c-0.4-0.2-0.8-0.4-1.1-0.8c-0.3-0.3-0.5-0.7-0.7-1.2c-0.2-0.4-0.3-0.9-0.3-1.5c0-0.5,0.1-1,0.3-1.5c0.2-0.5,0.4-0.9,0.7-1.2
	c0.3-0.3,0.7-0.6,1.1-0.8c0.4-0.2,0.9-0.3,1.4-0.3c0.5,0,1,0.1,1.4,0.3c0.4,0.2,0.8,0.5,1,0.9l0.1-1h1.5v6.6c0,0.6-0.1,1.1-0.3,1.5
	c-0.2,0.5-0.4,0.9-0.8,1.2c-0.3,0.3-0.7,0.6-1.2,0.8c-0.4,0.2-1,0.3-1.5,0.3c-0.7,0-1.4-0.2-2-0.5s-1-0.8-1.3-1.4l1.5-0.5
	c0.2,0.3,0.5,0.6,0.8,0.8c0.3,0.2,0.7,0.3,1,0.3c0.4,0,0.8-0.1,1.1-0.3c0.3-0.2,0.5-0.4,0.7-0.8c0.2-0.3,0.3-0.7,0.3-1.2V379
	c-0.3,0.4-0.6,0.7-1,0.9C157.6,380.1,157.1,380.2,156.6,380.2z M157,378.8c0.4,0,0.7-0.1,1.1-0.3c0.3-0.2,0.6-0.5,0.7-0.8
	c0.2-0.3,0.3-0.7,0.3-1.1c0-0.4-0.1-0.8-0.3-1.1c-0.2-0.3-0.4-0.6-0.7-0.8c-0.3-0.2-0.7-0.3-1.1-0.3s-0.7,0.1-1.1,0.3
	c-0.3,0.2-0.6,0.5-0.7,0.8c-0.2,0.3-0.3,0.7-0.3,1.1c0,0.4,0.1,0.8,0.3,1.1c0.2,0.3,0.4,0.6,0.7,0.8
	C156.2,378.7,156.6,378.8,157,378.8z M162.4,380.4v-7.3h1.6v7.3H162.4z M161.9,372l1.6-2h1.8l-1.9,2H161.9z M172.1,380.6
	c-0.5,0-1-0.1-1.5-0.3c-0.4-0.2-0.8-0.5-1.2-0.8s-0.6-0.8-0.8-1.2c-0.2-0.5-0.3-1-0.3-1.6c0-0.6,0.1-1.1,0.3-1.5
	c0.2-0.5,0.4-0.9,0.8-1.2c0.3-0.4,0.7-0.6,1.1-0.8c0.4-0.2,0.9-0.3,1.4-0.3s1,0.1,1.4,0.3c0.4,0.2,0.8,0.4,1.1,0.8
	c0.3,0.3,0.6,0.7,0.7,1.2c0.2,0.5,0.3,1,0.3,1.5v0.5H170c0,0.4,0.2,0.8,0.3,1.1c0.2,0.3,0.4,0.5,0.7,0.7s0.6,0.3,1,0.3
	c0.8,0,1.4-0.3,1.8-1l1.4,0.5c-0.2,0.4-0.4,0.7-0.7,1c-0.3,0.3-0.7,0.5-1.1,0.6C173,380.5,172.6,380.6,172.1,380.6z M172,374.2
	c-0.3,0-0.6,0.1-0.9,0.2c-0.3,0.1-0.5,0.4-0.6,0.6s-0.3,0.6-0.4,1h3.7c-0.1-0.4-0.2-0.7-0.3-1c-0.2-0.3-0.4-0.5-0.6-0.6
	C172.6,374.2,172.3,374.2,172,374.2z M176.8,380.4V370h1.6v10.4H176.8z M184.9,371c0,0.2,0,0.3-0.1,0.5c-0.1,0.1-0.2,0.3-0.3,0.4
	c-0.1,0.1-0.3,0.1-0.5,0.1s-0.3,0-0.5-0.1c-0.1-0.1-0.3-0.2-0.4-0.4c-0.1-0.1-0.1-0.3-0.1-0.5s0-0.3,0.1-0.5
	c0.1-0.1,0.2-0.3,0.4-0.4c0.1-0.1,0.3-0.1,0.5-0.1s0.3,0,0.5,0.1c0.1,0.1,0.3,0.2,0.3,0.4C184.9,370.7,184.9,370.8,184.9,371z
	 M183.2,380.4v-7.3h1.6v7.3H183.2z M189.6,380.6c-0.5,0-0.9-0.1-1.4-0.3c-0.4-0.2-0.8-0.5-1.1-0.8s-0.6-0.8-0.7-1.2
	c-0.2-0.5-0.3-1-0.3-1.5c0-0.6,0.1-1.1,0.3-1.5c0.2-0.5,0.4-0.9,0.7-1.2c0.3-0.4,0.7-0.6,1.1-0.8c0.4-0.2,0.9-0.3,1.4-0.3
	c0.5,0,0.9,0.1,1.3,0.3c0.4,0.2,0.7,0.5,1,0.9V370h1.6v10.4h-1.5l-0.1-1.2c-0.3,0.4-0.6,0.8-1,1
	C190.6,380.5,190.1,380.6,189.6,380.6z M189.9,379.1c0.4,0,0.8-0.1,1.1-0.3c0.3-0.2,0.6-0.5,0.7-0.9c0.2-0.4,0.3-0.8,0.3-1.2
	c0-0.5-0.1-0.9-0.3-1.2c-0.2-0.4-0.4-0.6-0.7-0.9c-0.3-0.2-0.7-0.3-1.1-0.3c-0.4,0-0.8,0.1-1.1,0.3c-0.3,0.2-0.6,0.5-0.8,0.9
	c-0.2,0.4-0.3,0.8-0.3,1.2c0,0.5,0.1,0.9,0.3,1.2c0.2,0.4,0.4,0.7,0.8,0.9C189.2,379,189.5,379.1,189.9,379.1z M198.8,380.6
	c-0.5,0-1-0.1-1.5-0.3c-0.4-0.2-0.8-0.5-1.2-0.8s-0.6-0.8-0.8-1.2c-0.2-0.5-0.3-1-0.3-1.6c0-0.6,0.1-1.1,0.3-1.5
	c0.2-0.5,0.4-0.9,0.8-1.2c0.3-0.4,0.7-0.6,1.1-0.8c0.4-0.2,0.9-0.3,1.4-0.3c0.5,0,1,0.1,1.4,0.3c0.4,0.2,0.8,0.4,1.1,0.8
	c0.3,0.3,0.6,0.7,0.7,1.2c0.2,0.5,0.3,1,0.3,1.5v0.5h-5.4c0,0.4,0.2,0.8,0.3,1.1c0.2,0.3,0.4,0.5,0.7,0.7c0.3,0.2,0.6,0.3,1,0.3
	c0.8,0,1.4-0.3,1.8-1l1.4,0.5c-0.2,0.4-0.4,0.7-0.7,1c-0.3,0.3-0.7,0.5-1.1,0.6C199.7,380.5,199.2,380.6,198.8,380.6z M198.6,374.2
	c-0.3,0-0.6,0.1-0.9,0.2c-0.3,0.1-0.5,0.4-0.6,0.6c-0.2,0.3-0.3,0.6-0.4,1h3.7c-0.1-0.4-0.2-0.7-0.3-1c-0.2-0.3-0.4-0.5-0.6-0.6
	C199.2,374.2,199,374.2,198.6,374.2z M205.7,380.6c-0.4,0-0.7-0.1-1-0.2c-0.3-0.1-0.6-0.3-0.8-0.5c-0.2-0.2-0.4-0.4-0.5-0.7
	c-0.1-0.3-0.2-0.6-0.2-0.9c0-0.5,0.1-0.9,0.4-1.2c0.3-0.4,0.6-0.6,1.1-0.8c0.4-0.2,1-0.3,1.6-0.3c0.3,0,0.6,0,0.9,0.1
	c0.3,0.1,0.6,0.1,0.9,0.3v-0.5c0-0.3-0.1-0.6-0.2-0.9c-0.1-0.3-0.3-0.4-0.5-0.6c-0.2-0.1-0.5-0.2-0.8-0.2c-0.3,0-0.6,0.1-0.9,0.3
	c-0.3,0.2-0.5,0.4-0.6,0.7l-1.5-0.3c0.1-0.4,0.3-0.8,0.6-1.1c0.3-0.3,0.7-0.5,1.1-0.7c0.4-0.2,0.9-0.3,1.4-0.3
	c0.5,0,0.9,0.1,1.2,0.2c0.4,0.1,0.7,0.4,1,0.6s0.5,0.6,0.6,1c0.1,0.4,0.2,0.8,0.2,1.2v4.5H208l-0.1-1c-0.2,0.4-0.5,0.6-0.9,0.9
	S206.3,380.6,205.7,380.6z M204.8,378.2c0,0.2,0.1,0.4,0.2,0.6c0.1,0.2,0.3,0.3,0.5,0.4c0.2,0.1,0.4,0.1,0.7,0.1
	c0.3,0,0.7-0.1,0.9-0.2s0.5-0.4,0.6-0.6c0.2-0.3,0.2-0.6,0.2-0.9v-0.2c-0.2-0.1-0.5-0.2-0.8-0.2c-0.3-0.1-0.5-0.1-0.8-0.1
	c-0.5,0-0.9,0.1-1.2,0.3C204.9,377.6,204.8,377.9,204.8,378.2z M211.2,380.4V370h1.6v10.4H211.2z M214.7,377.5l-0.1-7h1.7l-0.1,7
	H214.7z M215.5,380.4c-0.2,0-0.4,0-0.5-0.1c-0.2-0.1-0.3-0.2-0.4-0.4c-0.1-0.2-0.1-0.3-0.1-0.5c0-0.2,0-0.4,0.1-0.5
	c0.1-0.2,0.2-0.3,0.4-0.4c0.2-0.1,0.3-0.1,0.5-0.1s0.4,0,0.5,0.1c0.2,0.1,0.3,0.2,0.4,0.4c0.1,0.2,0.1,0.3,0.1,0.5
	c0,0.2,0,0.4-0.1,0.5c-0.1,0.2-0.2,0.3-0.4,0.4C215.8,380.4,215.7,380.4,215.5,380.4z"/>
<path class="st45" d="M33,356.4c1.4,0,2.8,0.4,3.9,1.1c-0.3,0.4-0.6,0.8-0.8,1.3c-0.9-0.6-2-0.9-3.2-0.9c-3.3,0-6,2.7-6,6v4.4
	l-1.3,3.1h14.7l-1.4-3.1l0-4.4l0-0.2c0-0.1,0-0.2,0-0.3c0.2,0,0.3,0,0.5,0c0.3,0,0.7,0,1-0.1c0,0.1,0,0.3,0,0.4l0,0.3v4.1l1.4,3.2
	c0.1,0.2,0.1,0.3,0.1,0.5c0,0.7-0.6,1.2-1.3,1.2l-4.7,0c0,1.7-1.3,3-3,3c-1.6,0-2.9-1.2-3-2.8l0-0.2l-4.7,0c-0.2,0-0.3,0-0.5-0.1
	c-0.6-0.3-0.9-1-0.6-1.6l1.4-3.2v-4.1C25.5,359.7,28.8,356.4,33,356.4z M34.5,372.9l-3,0c0,0.8,0.7,1.5,1.5,1.5
	c0.8,0,1.4-0.6,1.5-1.4L34.5,372.9z M37,359.4c0.1-0.5,0.4-1,0.7-1.4c0.5-0.4,1.1-0.7,1.7-0.7c1.4,0,2.5,1.1,2.5,2.5
	c0,1.1-0.7,2-1.7,2.4c-0.3,0.1-0.5,0.1-0.8,0.1c-0.2,0-0.5,0-0.7-0.1c-1-0.3-1.8-1.3-1.8-2.4C37,359.7,37,359.6,37,359.4z"/>
<g>
	<path class="st45" d="M211,50.4h192c5.5,0,10,4.5,10,10v34c0,5.5-4.5,10-10,10H211c-5.5,0-10-4.5-10-10v-34
		C201,54.9,205.5,50.4,211,50.4z"/>
	<path class="st46" d="M211,50.6h192c5.4,0,9.8,4.4,9.8,9.8v34c0,5.4-4.4,9.8-9.8,9.8H211c-5.4,0-9.8-4.4-9.8-9.8v-34
		C201.2,55,205.6,50.6,211,50.6z"/>
</g>
<path class="st47" d="M271,82.4v-9.9h3c0.8,0,1.5,0.1,2,0.4c0.6,0.3,1,0.6,1.3,1.1c0.3,0.5,0.5,1.1,0.5,1.8c0,0.7-0.2,1.2-0.5,1.7
	c-0.3,0.5-0.8,0.9-1.3,1.1c-0.6,0.3-1.3,0.4-2,0.4c-0.2,0-0.4,0-0.6,0c-0.2,0-0.4,0-0.7-0.1v3.5H271z M272.7,73.9v3.5
	c0.2,0,0.4,0.1,0.6,0.1s0.4,0,0.6,0c0.7,0,1.3-0.2,1.6-0.5c0.4-0.3,0.6-0.7,0.6-1.3c0-0.6-0.2-1-0.5-1.3c-0.4-0.3-0.9-0.5-1.5-0.5
	H272.7z M282.3,82.6c-0.7,0-1.2-0.1-1.7-0.4c-0.5-0.3-0.8-0.7-1.1-1.2c-0.3-0.5-0.4-1.1-0.4-1.8v-4.1h1.6v4.1c0,0.6,0.1,1.1,0.4,1.4
	c0.3,0.3,0.7,0.5,1.2,0.5s0.9-0.2,1.2-0.5c0.3-0.4,0.4-0.8,0.4-1.4v-4.1h1.6v4.1c0,0.7-0.1,1.3-0.4,1.8c-0.3,0.5-0.6,0.9-1.1,1.2
	C283.5,82.5,283,82.6,282.3,82.6z M287.3,82.4V72h1.6v4.2c0.3-0.4,0.6-0.7,1-0.9c0.4-0.2,0.9-0.3,1.4-0.3c0.5,0,0.9,0.1,1.3,0.3
	c0.4,0.2,0.8,0.5,1.1,0.8c0.3,0.3,0.5,0.8,0.7,1.2c0.2,0.5,0.3,1,0.3,1.5c0,0.6-0.1,1.1-0.3,1.5c-0.2,0.5-0.4,0.9-0.7,1.2
	c-0.3,0.4-0.7,0.6-1.1,0.8c-0.4,0.2-0.9,0.3-1.4,0.3c-0.5,0-1-0.1-1.4-0.3c-0.4-0.2-0.7-0.5-1-1l-0.1,1.1H287.3z M291,81.1
	c0.4,0,0.8-0.1,1.1-0.3c0.3-0.2,0.6-0.5,0.7-0.9c0.2-0.4,0.3-0.8,0.3-1.2s-0.1-0.9-0.3-1.2c-0.2-0.4-0.4-0.6-0.7-0.9
	c-0.3-0.2-0.7-0.3-1.1-0.3s-0.8,0.1-1.1,0.3c-0.3,0.2-0.6,0.5-0.8,0.9c-0.2,0.4-0.3,0.8-0.3,1.2s0.1,0.9,0.3,1.2
	c0.2,0.4,0.4,0.7,0.8,0.9C290.2,81,290.6,81.1,291,81.1z M296.1,82.4V72h1.6v10.4H296.1z M301.3,73c0,0.2,0,0.3-0.1,0.5
	c-0.1,0.1-0.2,0.3-0.4,0.4c-0.1,0.1-0.3,0.1-0.5,0.1c-0.2,0-0.3,0-0.5-0.1c-0.1-0.1-0.3-0.2-0.4-0.4c-0.1-0.1-0.1-0.3-0.1-0.5
	s0-0.3,0.1-0.5c0.1-0.1,0.2-0.3,0.4-0.4c0.2-0.1,0.3-0.1,0.5-0.1c0.2,0,0.3,0,0.5,0.1c0.1,0.1,0.3,0.2,0.4,0.4
	C301.2,72.7,301.3,72.8,301.3,73z M299.5,82.4v-7.3h1.6v7.3H299.5z M306.1,82.6c-0.5,0-1-0.1-1.4-0.3c-0.4-0.2-0.8-0.5-1.1-0.8
	c-0.3-0.3-0.6-0.8-0.8-1.2c-0.2-0.5-0.3-1-0.3-1.5s0.1-1.1,0.3-1.5c0.2-0.5,0.4-0.9,0.8-1.2c0.3-0.4,0.7-0.6,1.1-0.8
	c0.4-0.2,0.9-0.3,1.5-0.3c0.5,0,1,0.1,1.4,0.3c0.4,0.2,0.8,0.4,1.1,0.8c0.3,0.3,0.5,0.7,0.7,1.2l-1.5,0.4c-0.2-0.4-0.4-0.6-0.7-0.8
	c-0.3-0.2-0.6-0.3-1-0.3c-0.4,0-0.7,0.1-1,0.3s-0.5,0.5-0.7,0.9c-0.2,0.4-0.3,0.8-0.3,1.2c0,0.5,0.1,0.9,0.3,1.2
	c0.2,0.4,0.4,0.6,0.7,0.8c0.3,0.2,0.6,0.3,1,0.3c0.4,0,0.7-0.1,1-0.3c0.3-0.2,0.5-0.5,0.7-0.8l1.5,0.3c-0.1,0.4-0.4,0.8-0.7,1.2
	c-0.3,0.3-0.7,0.6-1.1,0.8C307.1,82.5,306.6,82.6,306.1,82.6z M312.9,82.6c-0.4,0-0.7-0.1-1-0.2c-0.3-0.1-0.6-0.3-0.8-0.5
	c-0.2-0.2-0.4-0.4-0.5-0.7c-0.1-0.3-0.2-0.6-0.2-0.9c0-0.5,0.1-0.9,0.4-1.2c0.3-0.4,0.6-0.6,1-0.8s1-0.3,1.6-0.3
	c0.3,0,0.6,0,0.9,0.1c0.3,0.1,0.6,0.1,0.9,0.3v-0.5c0-0.3-0.1-0.6-0.2-0.9c-0.1-0.3-0.3-0.4-0.5-0.6s-0.5-0.2-0.8-0.2
	c-0.3,0-0.6,0.1-0.9,0.3c-0.3,0.2-0.5,0.4-0.6,0.7l-1.5-0.3c0.1-0.4,0.3-0.8,0.6-1.1c0.3-0.3,0.7-0.5,1.1-0.7
	c0.4-0.2,0.9-0.3,1.4-0.3c0.5,0,0.9,0.1,1.2,0.2c0.4,0.1,0.7,0.4,1,0.6c0.3,0.3,0.5,0.6,0.6,1c0.1,0.4,0.2,0.8,0.2,1.2v4.5h-1.5
	l-0.1-1c-0.2,0.4-0.5,0.6-0.9,0.9S313.4,82.6,312.9,82.6z M312,80.2c0,0.2,0.1,0.4,0.2,0.6c0.1,0.2,0.3,0.3,0.5,0.4
	c0.2,0.1,0.4,0.1,0.7,0.1c0.3,0,0.7-0.1,0.9-0.2c0.3-0.1,0.5-0.3,0.6-0.6c0.2-0.3,0.2-0.6,0.2-0.9v-0.2c-0.2-0.1-0.5-0.2-0.8-0.2
	c-0.3-0.1-0.5-0.1-0.8-0.1c-0.5,0-0.9,0.1-1.2,0.3C312.1,79.6,312,79.9,312,80.2z M312.4,74l1.6-2h1.8l-1.9,2H312.4z M324.6,82.6
	c-0.7,0-1.2-0.1-1.7-0.4c-0.5-0.3-0.8-0.7-1.1-1.2c-0.3-0.5-0.4-1.1-0.4-1.8v-4.1h1.6v4.1c0,0.6,0.1,1.1,0.4,1.4
	c0.3,0.3,0.7,0.5,1.2,0.5s0.9-0.2,1.2-0.5c0.3-0.4,0.4-0.8,0.4-1.4v-4.1h1.6v4.1c0,0.7-0.1,1.3-0.4,1.8c-0.3,0.5-0.6,0.9-1.1,1.2
	C325.9,82.5,325.3,82.6,324.6,82.6z M329.6,82.4v-7.3h1.5l0.1,1c0.2-0.4,0.5-0.7,0.9-0.9c0.4-0.2,0.8-0.3,1.3-0.3
	c0.6,0,1,0.1,1.4,0.4c0.4,0.3,0.7,0.6,1,1.1s0.3,1,0.3,1.7v4.4h-1.6v-4.2c0-0.6-0.1-1.1-0.4-1.4c-0.3-0.3-0.6-0.5-1.1-0.5
	c-0.3,0-0.6,0.1-0.9,0.2c-0.3,0.2-0.5,0.4-0.6,0.6c-0.1,0.3-0.2,0.6-0.2,0.9v4.3H329.6z M340.1,82.6c-0.4,0-0.7-0.1-1-0.2
	c-0.3-0.1-0.6-0.3-0.8-0.5s-0.4-0.4-0.5-0.7c-0.1-0.3-0.2-0.6-0.2-0.9c0-0.5,0.1-0.9,0.4-1.2c0.3-0.4,0.6-0.6,1.1-0.8s1-0.3,1.6-0.3
	c0.3,0,0.6,0,0.9,0.1c0.3,0.1,0.6,0.1,0.9,0.3v-0.5c0-0.3-0.1-0.6-0.2-0.9c-0.1-0.3-0.3-0.4-0.5-0.6s-0.5-0.2-0.8-0.2
	c-0.3,0-0.6,0.1-0.9,0.3s-0.5,0.4-0.6,0.7l-1.5-0.3c0.1-0.4,0.3-0.8,0.6-1.1c0.3-0.3,0.7-0.5,1.1-0.7c0.4-0.2,0.9-0.3,1.4-0.3
	c0.5,0,0.9,0.1,1.2,0.2c0.4,0.1,0.7,0.4,1,0.6c0.3,0.3,0.5,0.6,0.6,1c0.1,0.4,0.2,0.8,0.2,1.2v4.5h-1.5l-0.1-1
	c-0.2,0.4-0.5,0.6-0.9,0.9S340.6,82.6,340.1,82.6z M339.1,80.2c0,0.2,0.1,0.4,0.2,0.6c0.1,0.2,0.3,0.3,0.5,0.4
	c0.2,0.1,0.4,0.1,0.7,0.1c0.3,0,0.7-0.1,0.9-0.2s0.5-0.3,0.6-0.6c0.2-0.3,0.2-0.6,0.2-0.9v-0.2c-0.2-0.1-0.5-0.2-0.8-0.2
	c-0.3-0.1-0.5-0.1-0.8-0.1c-0.5,0-0.9,0.1-1.2,0.3C339.3,79.6,339.1,79.9,339.1,80.2z M351.6,82.6c-0.7,0-1.3-0.2-1.7-0.6
	c-0.4-0.4-0.6-1-0.6-1.8v-3.8h-1.3v-1.3h1.3v-2.5h1.6v2.5h2.1v1.3h-2.1V80c0,0.4,0.1,0.7,0.2,0.9c0.2,0.2,0.4,0.3,0.7,0.3
	c0.2,0,0.3,0,0.5-0.1c0.2-0.1,0.4-0.1,0.5-0.2l0.4,1.2c-0.2,0.1-0.5,0.3-0.8,0.3C352.2,82.6,351.9,82.6,351.6,82.6z M356.7,82.6
	c-0.4,0-0.7-0.1-1-0.2c-0.3-0.1-0.6-0.3-0.8-0.5c-0.2-0.2-0.4-0.4-0.5-0.7c-0.1-0.3-0.2-0.6-0.2-0.9c0-0.5,0.1-0.9,0.4-1.2
	c0.3-0.4,0.6-0.6,1-0.8s1-0.3,1.6-0.3c0.3,0,0.6,0,0.9,0.1c0.3,0.1,0.6,0.1,0.9,0.3v-0.5c0-0.3-0.1-0.6-0.2-0.9
	c-0.1-0.3-0.3-0.4-0.5-0.6s-0.5-0.2-0.8-0.2c-0.3,0-0.6,0.1-0.9,0.3c-0.3,0.2-0.5,0.4-0.6,0.7l-1.5-0.3c0.1-0.4,0.3-0.8,0.6-1.1
	c0.3-0.3,0.7-0.5,1.1-0.7c0.4-0.2,0.9-0.3,1.4-0.3c0.5,0,0.9,0.1,1.2,0.2c0.4,0.1,0.7,0.4,1,0.6c0.3,0.3,0.5,0.6,0.6,1
	c0.2,0.4,0.2,0.8,0.2,1.2v4.5H359l-0.1-1c-0.2,0.4-0.5,0.6-0.9,0.9S357.2,82.6,356.7,82.6z M355.7,80.2c0,0.2,0.1,0.4,0.2,0.6
	c0.1,0.2,0.3,0.3,0.5,0.4c0.2,0.1,0.4,0.1,0.7,0.1c0.3,0,0.7-0.1,0.9-0.2c0.3-0.1,0.5-0.3,0.6-0.6c0.2-0.3,0.2-0.6,0.2-0.9v-0.2
	c-0.2-0.1-0.5-0.2-0.8-0.2c-0.3-0.1-0.5-0.1-0.8-0.1c-0.5,0-0.9,0.1-1.2,0.3C355.9,79.6,355.7,79.9,355.7,80.2z M362.2,82.4v-7.3
	h1.5l0.1,1.2c0.2-0.4,0.4-0.7,0.8-1c0.3-0.2,0.7-0.3,1.2-0.3c0.1,0,0.3,0,0.4,0c0.1,0,0.2,0.1,0.3,0.1l-0.2,1.6
	c-0.1,0-0.2-0.1-0.3-0.1c-0.1,0-0.2,0-0.3,0c-0.6,0-1,0.2-1.3,0.6c-0.3,0.4-0.5,0.9-0.5,1.6v3.7H362.2z M370.8,82.6
	c-0.5,0-1-0.1-1.5-0.3c-0.4-0.2-0.8-0.5-1.2-0.8c-0.3-0.3-0.6-0.8-0.8-1.2c-0.2-0.5-0.3-1-0.3-1.6c0-0.6,0.1-1.1,0.3-1.5
	c0.2-0.5,0.4-0.9,0.8-1.2c0.3-0.4,0.7-0.6,1.1-0.8s0.9-0.3,1.4-0.3s1,0.1,1.4,0.3c0.4,0.2,0.8,0.4,1.1,0.8c0.3,0.3,0.6,0.7,0.7,1.2
	c0.2,0.5,0.3,1,0.3,1.5v0.5h-5.4c0,0.4,0.2,0.8,0.3,1.1c0.2,0.3,0.4,0.5,0.7,0.7s0.6,0.3,1,0.3c0.8,0,1.4-0.3,1.8-1l1.4,0.5
	c-0.2,0.4-0.4,0.7-0.7,1c-0.3,0.3-0.7,0.5-1.1,0.6C371.7,82.5,371.3,82.6,370.8,82.6z M370.7,76.2c-0.3,0-0.6,0.1-0.9,0.2
	c-0.3,0.1-0.5,0.4-0.6,0.6s-0.3,0.6-0.4,1h3.7c-0.1-0.4-0.2-0.7-0.3-1s-0.4-0.5-0.6-0.6C371.3,76.2,371,76.2,370.7,76.2z
	 M377.8,82.6c-0.4,0-0.7-0.1-1-0.2c-0.3-0.1-0.6-0.3-0.8-0.5s-0.4-0.4-0.5-0.7c-0.1-0.3-0.2-0.6-0.2-0.9c0-0.5,0.1-0.9,0.4-1.2
	c0.3-0.4,0.6-0.6,1.1-0.8s1-0.3,1.6-0.3c0.3,0,0.6,0,0.9,0.1c0.3,0.1,0.6,0.1,0.9,0.3v-0.5c0-0.3-0.1-0.6-0.2-0.9
	c-0.1-0.3-0.3-0.4-0.5-0.6s-0.5-0.2-0.8-0.2c-0.3,0-0.6,0.1-0.9,0.3s-0.5,0.4-0.6,0.7l-1.5-0.3c0.1-0.4,0.3-0.8,0.6-1.1
	c0.3-0.3,0.7-0.5,1.1-0.7c0.4-0.2,0.9-0.3,1.4-0.3c0.5,0,0.9,0.1,1.2,0.2c0.4,0.1,0.7,0.4,1,0.6c0.3,0.3,0.5,0.6,0.6,1
	s0.2,0.8,0.2,1.2v4.5h-1.5l-0.1-1c-0.2,0.4-0.5,0.6-0.9,0.9S378.3,82.6,377.8,82.6z M376.8,80.2c0,0.2,0.1,0.4,0.2,0.6
	c0.1,0.2,0.3,0.3,0.5,0.4c0.2,0.1,0.4,0.1,0.7,0.1c0.3,0,0.7-0.1,0.9-0.2s0.5-0.3,0.6-0.6c0.2-0.3,0.2-0.6,0.2-0.9v-0.2
	c-0.2-0.1-0.5-0.2-0.8-0.2c-0.3-0.1-0.5-0.1-0.8-0.1c-0.5,0-0.9,0.1-1.2,0.3C377,79.6,376.8,79.9,376.8,80.2z"/>
<path class="st0" d="M236.2,81.4c1,0,1.8,0.8,1.8,1.8v2.5c0,1-0.8,1.8-1.8,1.8h-2.5c-1,0-1.8-0.8-1.8-1.8v-2.5c0-1,0.8-1.8,1.8-1.8
	H236.2z M236.2,82.9h-2.5c-0.1,0-0.2,0.1-0.2,0.2v2.5c0,0.1,0.1,0.2,0.2,0.2h2.5c0.1,0,0.2-0.1,0.2-0.2v-2.5
	C236.5,83,236.4,82.9,236.2,82.9z M239.7,83.4h11.5c0.4,0,0.7,0.3,0.7,0.8c0,0.4-0.3,0.7-0.6,0.7l-0.1,0h-11.5
	c-0.4,0-0.8-0.3-0.8-0.8c0-0.4,0.3-0.7,0.6-0.7L239.7,83.4h11.5H239.7z M236.2,74.4c1,0,1.8,0.8,1.8,1.8v2.5c0,1-0.8,1.8-1.8,1.8
	h-2.5c-1,0-1.8-0.8-1.8-1.8v-2.5c0-1,0.8-1.8,1.8-1.8H236.2z M236.2,75.9h-2.5c-0.1,0-0.2,0.1-0.2,0.2v2.5c0,0.1,0.1,0.2,0.2,0.2
	h2.5c0.1,0,0.2-0.1,0.2-0.2v-2.5C236.5,76,236.4,75.9,236.2,75.9z M239.7,76.4h11.5c0.4,0,0.7,0.3,0.7,0.8c0,0.4-0.3,0.7-0.6,0.7
	l-0.1,0h-11.5c-0.4,0-0.8-0.3-0.8-0.8c0-0.4,0.3-0.7,0.6-0.7L239.7,76.4h11.5H239.7z M236.2,67.4c1,0,1.8,0.8,1.8,1.8v2.5
	c0,1-0.8,1.8-1.8,1.8h-2.5c-1,0-1.8-0.8-1.8-1.8v-2.5c0-1,0.8-1.8,1.8-1.8H236.2z M236.2,68.9h-2.5c-0.1,0-0.2,0.1-0.2,0.2v2.5
	c0,0.1,0.1,0.2,0.2,0.2h2.5c0.1,0,0.2-0.1,0.2-0.2v-2.5C236.5,69,236.4,68.9,236.2,68.9z M239.7,69.4h11.5c0.4,0,0.7,0.3,0.7,0.8
	c0,0.4-0.3,0.7-0.6,0.7l-0.1,0h-11.5c-0.4,0-0.8-0.3-0.8-0.8c0-0.4,0.3-0.7,0.6-0.7L239.7,69.4h11.5H239.7z"/>
</svg>
