<?xml version="1.0" encoding="utf-8"?>
<!-- Generator: Adobe Illustrator 24.0.2, SVG Export Plug-In . SVG Version: 6.00 Build 0)  -->
<svg version="1.1" id="Layer_1" xmlns="http://www.w3.org/2000/svg" xmlns:xlink="http://www.w3.org/1999/xlink" x="0px" y="0px"
	 viewBox="0 0 66.8 13.2" style="enable-background:new 0 0 66.8 13.2;" xml:space="preserve">
<style type="text/css">
	.st0{fill:#FCC73B;}
</style>
<path class="st0" d="M6.6,0.7l1.9,3.9l4.3,0.6l-3.1,3l0.8,4.3l-3.8-2l-3.8,2l0.8-4.3l-3.1-3l4.3-0.6L6.6,0.7z"/>
<path class="st0" d="M20.1,0.7L22,4.6l4.3,0.6l-3.1,3l0.8,4.3l-3.8-2l-3.8,2l0.8-4.3l-3.1-3l4.3-0.6L20.1,0.7z"/>
<path class="st0" d="M33.6,0.7l1.9,3.9l4.3,0.6l-3.1,3l0.8,4.3l-3.8-2l-3.8,2l0.8-4.3l-3.1-3l4.3-0.6L33.6,0.7z"/>
<path class="st0" d="M47.1,0.7L49,4.6l4.3,0.6l-3.1,3l0.8,4.3l-3.8-2l-3.8,2l0.8-4.3l-3.1-3l4.3-0.6L47.1,0.7z"/>
<path class="st0" d="M60.7,0.7l1.9,3.9l4.3,0.6l-3.1,3l0.8,4.3l-3.8-2l-3.8,2l0.8-4.3l-3.1-3l4.3-0.6L60.7,0.7z"/>
</svg>
