<?xml version="1.0" encoding="utf-8"?>
<!-- Generator: Adobe Illustrator 24.0.2, SVG Export Plug-In . SVG Version: 6.00 Build 0)  -->
<svg version="1.1" id="Layer_1" xmlns="http://www.w3.org/2000/svg" xmlns:xlink="http://www.w3.org/1999/xlink" x="0px" y="0px"
	 viewBox="0 0 19.2 20.6" style="enable-background:new 0 0 19.2 20.6;" xml:space="preserve">
<style type="text/css">
	.st0{fill:#FFFFFF;}
</style>
<path class="st0" d="M4.1,1.1c-1.8,0-3.2,1.5-3.2,3.2v11.5c0,1.8,1.5,3.2,3.2,3.2h11.5c1.8,0,3.2-1.5,3.2-3.2V4.3
	c0-1.8-1.5-3.2-3.2-3.2H4.1z M2.4,6.6h15v9.2c0,1-0.8,1.7-1.8,1.7H4.1c-1,0-1.8-0.8-1.8-1.7V6.6z M14.1,12.6c-0.7,0-1.2,0.6-1.2,1.2
	c0,0.7,0.6,1.2,1.2,1.2c0.7,0,1.2-0.6,1.2-1.2C15.4,13.1,14.8,12.6,14.1,12.6z M9.9,12.6c-0.7,0-1.2,0.6-1.2,1.2
	c0,0.7,0.6,1.2,1.2,1.2s1.2-0.6,1.2-1.2C11.1,13.1,10.5,12.6,9.9,12.6z M14.1,8.6c-0.7,0-1.2,0.6-1.2,1.2s0.6,1.2,1.2,1.2
	c0.7,0,1.2-0.6,1.2-1.2S14.8,8.6,14.1,8.6z M9.9,8.6c-0.7,0-1.2,0.6-1.2,1.2s0.6,1.2,1.2,1.2s1.2-0.6,1.2-1.2S10.5,8.6,9.9,8.6z
	 M5.6,8.6c-0.7,0-1.2,0.6-1.2,1.2s0.6,1.2,1.2,1.2s1.2-0.6,1.2-1.2S6.3,8.6,5.6,8.6z M4.1,2.6h11.5c1,0,1.8,0.8,1.8,1.8v0.8h-15V4.3
	C2.4,3.3,3.1,2.6,4.1,2.6z"/>
</svg>
