<?xml version="1.0" encoding="utf-8"?>
<!-- Generator: Adobe Illustrator 24.0.2, SVG Export Plug-In . SVG Version: 6.00 Build 0)  -->
<svg version="1.1" id="Layer_1" xmlns="http://www.w3.org/2000/svg" xmlns:xlink="http://www.w3.org/1999/xlink" x="0px" y="0px"
	 viewBox="0 0 248.3 218.8" style="enable-background:new 0 0 248.3 218.8;" xml:space="preserve">
<style type="text/css">
	.st0{fill:#FFFFFF;}
</style>
<path class="st0" d="M64.9,9.5c-18.3,0-33.1,14.8-33.1,33.1v117c0,18.3,14.8,33.1,33.1,33.1h117c18.3,0,33.1-14.8,33.1-33.1v-117
	c0-18.3-14.8-33.1-33.1-33.1H64.9z M47.1,65.4h152.6v94.1c0,9.8-8,17.8-17.8,17.8h-117c-9.8,0-17.8-8-17.8-17.8V65.4z M166.7,126.5
	c-7,0-12.7,5.7-12.7,12.7c0,7,5.7,12.7,12.7,12.7c7,0,12.7-5.7,12.7-12.7C179.4,132.2,173.7,126.5,166.7,126.5z M123.4,126.5
	c-7,0-12.7,5.7-12.7,12.7c0,7,5.7,12.7,12.7,12.7c7,0,12.7-5.7,12.7-12.7C136.1,132.2,130.4,126.5,123.4,126.5z M166.7,85.8
	c-7,0-12.7,5.7-12.7,12.7s5.7,12.7,12.7,12.7c7,0,12.7-5.7,12.7-12.7S173.7,85.8,166.7,85.8z M123.4,85.8c-7,0-12.7,5.7-12.7,12.7
	s5.7,12.7,12.7,12.7c7,0,12.7-5.7,12.7-12.7S130.4,85.8,123.4,85.8z M80.2,85.8c-7,0-12.7,5.7-12.7,12.7s5.7,12.7,12.7,12.7
	c7,0,12.7-5.7,12.7-12.7S87.2,85.8,80.2,85.8z M64.9,24.8h117c9.8,0,17.8,8,17.8,17.8v7.6H47.1v-7.6C47.1,32.7,55.1,24.8,64.9,24.8z
	"/>
</svg>
