<?xml version="1.0" encoding="utf-8"?>
<!-- Generator: Adobe Illustrator 24.0.2, SVG Export Plug-In . SVG Version: 6.00 Build 0)  -->
<svg version="1.1" id="Layer_1" xmlns="http://www.w3.org/2000/svg" xmlns:xlink="http://www.w3.org/1999/xlink" x="0px" y="0px"
	 viewBox="0 0 248.3 218.8" style="enable-background:new 0 0 248.3 218.8;" xml:space="preserve">
<style type="text/css">
	.st0{fill:#FFFFFF;}
</style>
<path class="st0" d="M78.9,15.1C69,15.1,61,23.1,61,33v123.4c0,9.9,8,17.9,17.9,17.9h59.7c9.8,0,17.8-7.9,17.9-17.7l0-0.2v-11.9
	c0-3.3-2.7-6-6-6c-3.6,0-5.9-1-7.5-2.2c-1.7-1.3-3-3.4-4.1-6.3c-2.2-6-2.4-13.9-2.4-21.3c0-1.5-0.6-3-1.6-4.1
	c-0.6-0.7-1-1.1-1.3-1.4c-0.7-0.8-0.8-0.8-1.4-1.4c-0.6-0.6-2.4-2.3-9.4-9.3c-3.7-3.7-5.8-6.9-6.5-9.3c-0.3-1.1-0.3-1.9-0.1-2.6
	c0.2-0.7,0.6-1.5,1.6-2.6c1-1,1.9-1.5,2.6-1.6c0.7-0.2,1.5-0.2,2.6,0.1c2.4,0.7,5.6,2.8,9.3,6.5c4.3,4.3,8.4,8.3,12,12
	c6,6,10.9,10.8,13.7,13.8c2.2,2.4,6,2.5,8.4,0.3c2.4-2.2,2.5-6,0.3-8.4c-2.3-2.4-5.9-6.1-10.3-10.5V63.3l22.6,22.6
	c3.4,3.4,5.2,7.9,5.2,12.7v69.7c0,3.3,2.7,6,6,6c3.3,0,6-2.7,6-6V98.6c0-7.9-3.1-15.5-8.7-21.1l-31.1-31.1V33
	c0-9.9-8-17.9-17.9-17.9H78.9z M127.8,134c0.8,2.1,1.8,4.3,3.1,6.2c-6,2.9-10.2,9-10.2,16.1v6H96.8v-6c0-9.9-8-17.9-17.9-17.9h-6
	V50.9h6c9.9,0,17.9-8,17.9-17.9v-6h23.9v6c0,9.9,8,17.9,17.9,17.9h6l0,27.4c-1.2-1.2-2.5-2.5-3.7-3.7c-4.2-4.2-9.1-8-14.5-9.5
	c-2.8-0.8-5.8-1-8.8-0.2c-1.8,0.5-3.5,1.2-5,2.3c-1.2-0.2-2.5-0.3-3.8-0.3c-15.4,0-27.9,12.5-27.9,27.9s12.5,27.9,27.9,27.9
	c6,0,11.6-1.9,16.1-5.1C125.1,122.9,125.9,128.8,127.8,134z M92.8,94.7c0-7.3,4.9-13.4,11.6-15.3c-0.3,2.4-0.1,4.8,0.5,7
	c1.5,5.4,5.3,10.3,9.5,14.5c2.2,2.2,4,4,5.3,5.3c-2.9,2.7-6.7,4.4-11,4.4C99.9,110.6,92.8,103.5,92.8,94.7z M72.9,33
	c0-3.3,2.7-6,6-6h6v6c0,3.3-2.7,6-6,6h-6V33z M132.6,27h6c3.3,0,6,2.7,6,6v6h-6c-3.3,0-6-2.7-6-6V27z M144.6,150.4l0,6
	c0,3.3-2.7,6-6,6h-6v-6c0-3.3,2.7-6,6-6H144.6z M84.9,162.3h-6c-3.3,0-6-2.7-6-6v-6h6c3.3,0,6,2.7,6,6V162.3z"/>
</svg>
