<?xml version="1.0" encoding="utf-8"?>
<!-- Generator: Adobe Illustrator 24.0.2, SVG Export Plug-In . SVG Version: 6.00 Build 0)  -->
<svg version="1.1" id="Layer_1" xmlns="http://www.w3.org/2000/svg" xmlns:xlink="http://www.w3.org/1999/xlink" x="0px" y="0px"
	 viewBox="0 0 22.2 19.5" style="enable-background:new 0 0 22.2 19.5;" xml:space="preserve">
<style type="text/css">
	.st0{fill:#FFFFFF;}
</style>
<path class="st0" d="M18.4,0.3c1.2,0,2.2,1,2.2,2.2v5.5c-0.4-0.3-1-0.5-1.5-0.6V2.6c0-0.4-0.3-0.7-0.8-0.7H2.9
	c-0.4,0-0.8,0.3-0.8,0.7v11.5c0,0.4,0.3,0.8,0.8,0.8h11.8v1.5H2.9c-1.2,0-2.2-1-2.2-2.2V2.6c0-1.2,1-2.2,2.2-2.2H18.4z M11.9,9.3
	h2.5c-0.3,0.4-0.5,1-0.6,1.5h-1.9c-0.4,0-0.8-0.3-0.8-0.8c0-0.4,0.3-0.7,0.6-0.7L11.9,9.3z M8.4,8.8c0.4,0,0.8,0.3,0.8,0.8V10l0,0.1
	c-0.2,1.1-1.1,1.6-2.5,1.6c-1.4,0-2.3-0.5-2.5-1.7l0-0.1V9.6c0-0.4,0.3-0.8,0.8-0.8H8.4z M6.7,4.8c0.8,0,1.5,0.7,1.5,1.5
	c0,0.8-0.7,1.5-1.5,1.5S5.2,7.1,5.2,6.3C5.2,5.5,5.8,4.8,6.7,4.8z M11.9,5.8h4.5c0.4,0,0.8,0.3,0.8,0.8c0,0.4-0.3,0.7-0.6,0.7
	l-0.1,0h-4.5c-0.4,0-0.8-0.3-0.8-0.8c0-0.4,0.3-0.7,0.6-0.7L11.9,5.8z M21.7,11.8c0,1.9-1.6,3.5-3.5,3.5s-3.5-1.6-3.5-3.5
	s1.6-3.5,3.5-3.5S21.7,9.9,21.7,11.8z M15.7,15.5v3c0,0.6,0.8,0.9,1.2,0.5l1.3-1.3l1.3,1.3c0.4,0.4,1.2,0.1,1.2-0.5v-3
	c-0.7,0.5-1.6,0.8-2.5,0.8S16.4,16,15.7,15.5z"/>
</svg>
