<?xml version="1.0" encoding="utf-8"?>
<!-- Generator: Adobe Illustrator 24.0.2, SVG Export Plug-In . SVG Version: 6.00 Build 0)  -->
<svg version="1.1" id="Layer_1" xmlns="http://www.w3.org/2000/svg" xmlns:xlink="http://www.w3.org/1999/xlink" x="0px" y="0px"
	 viewBox="0 0 248.3 218.8" style="enable-background:new 0 0 248.3 218.8;" xml:space="preserve">
<style type="text/css">
	.st0{fill:#FFFFFF;}
</style>
<path class="st0" d="M166.2,53.4c8.5,0,15.3,6.9,15.3,15.3v37.5c-3.1-2-6.5-3.6-10.2-4.4V68.7c0-2.8-2.3-5.1-5.1-5.1H60.7
	c-2.8,0-5.1,2.3-5.1,5.1v78.4c0,2.8,2.3,5.1,5.1,5.1h80v10.2h-80c-8.5,0-15.3-6.9-15.3-15.3V68.7c0-8.5,6.9-15.3,15.3-15.3H166.2z
	 M122,114.7h17.1c-2.1,3.1-3.6,6.5-4.4,10.2H122c-2.8,0-5.1-2.3-5.1-5.1c0-2.6,1.9-4.7,4.4-5.1L122,114.7z M98.1,111.3
	c2.8,0,5.1,2.3,5.1,5.1v3.4l-0.1,0.7c-1.1,7.6-7.5,11.2-17,11.2c-9.5,0-15.9-3.7-17-11.2l-0.1-0.7v-3.4c0-2.8,2.3-5.1,5.1-5.1H98.1z
	 M86.2,84.1c5.6,0,10.2,4.6,10.2,10.2c0,5.6-4.6,10.2-10.2,10.2S76,99.9,76,94.3C76,88.6,80.6,84.1,86.2,84.1z M122,90.9h30.6
	c2.8,0,5.1,2.3,5.1,5.1c0,2.6-1.9,4.7-4.4,5.1l-0.7,0H122c-2.8,0-5.1-2.3-5.1-5.1c0-2.6,1.9-4.7,4.4-5.1L122,90.9z M188.4,131.7
	c0,13.2-10.7,23.8-23.8,23.8s-23.8-10.7-23.8-23.8s10.7-23.8,23.8-23.8S188.4,118.6,188.4,131.7z M147.5,157.2V178
	c0,4.3,5.2,6.5,8.3,3.4l8.8-8.8l8.8,8.8c3,3,8.3,0.9,8.3-3.4v-20.7c-4.9,3.3-10.7,5.2-17,5.2C158.2,162.4,152.4,160.5,147.5,157.2z"
	/>
</svg>
