<?xml version="1.0" encoding="utf-8"?>
<!-- Generator: Adobe Illustrator 24.0.2, SVG Export Plug-In . SVG Version: 6.00 Build 0)  -->
<svg version="1.1" id="Layer_1" xmlns="http://www.w3.org/2000/svg" xmlns:xlink="http://www.w3.org/1999/xlink" x="0px" y="0px"
	 viewBox="0 0 22.5 20.6" style="enable-background:new 0 0 22.5 20.6;" xml:space="preserve">
<style type="text/css">
	.st0{fill:#FFFFFF;}
</style>
<path class="st0" d="M7.4,0.4c-1.2,0-2.2,1-2.2,2.2v15.5c0,1.2,1,2.2,2.2,2.2h7.5c1.2,0,2.2-1,2.2-2.2l0,0v-1.5
	c0-0.4-0.3-0.8-0.8-0.8c-0.5,0-0.7-0.1-0.9-0.3c-0.2-0.2-0.4-0.4-0.5-0.8c-0.3-0.8-0.3-1.8-0.3-2.7c0-0.2-0.1-0.4-0.2-0.5
	c-0.1-0.1-0.1-0.1-0.2-0.2c-0.1-0.1-0.1-0.1-0.2-0.2c-0.1-0.1-0.3-0.3-1.2-1.2c-0.5-0.5-0.7-0.9-0.8-1.2c0-0.1,0-0.2,0-0.3
	c0-0.1,0.1-0.2,0.2-0.3c0.1-0.1,0.2-0.2,0.3-0.2c0.1,0,0.2,0,0.3,0c0.3,0.1,0.7,0.3,1.2,0.8c0.5,0.5,1.1,1,1.5,1.5
	c0.8,0.8,1.4,1.4,1.7,1.7c0.3,0.3,0.8,0.3,1.1,0c0.3-0.3,0.3-0.8,0-1.1c-0.3-0.3-0.7-0.8-1.3-1.3V6.4L20,9.3c0.4,0.4,0.7,1,0.7,1.6
	v8.8c0,0.4,0.3,0.8,0.8,0.8s0.8-0.3,0.8-0.8v-8.8c0-1-0.4-1.9-1.1-2.7l-3.9-3.9V2.6c0-1.2-1-2.2-2.2-2.2H7.4z M13.6,15.3
	c0.1,0.3,0.2,0.5,0.4,0.8c-0.8,0.4-1.3,1.1-1.3,2v0.7h-3v-0.7c0-1.2-1-2.3-2.2-2.3H6.7v-11h0.8c1.2,0,2.2-1,2.2-2.3V1.9h3v0.7
	c0,1.2,1,2.3,2.2,2.3h0.7l0,3.4c-0.2-0.2-0.3-0.3-0.5-0.5c-0.5-0.5-1.1-1-1.8-1.2c-0.3-0.1-0.7-0.1-1.1,0c-0.2,0.1-0.4,0.2-0.6,0.3
	c-0.2,0-0.3,0-0.5,0c-1.9,0-3.5,1.6-3.5,3.5s1.6,3.5,3.5,3.5c0.8,0,1.5-0.2,2-0.6C13.2,13.9,13.3,14.6,13.6,15.3z M9.2,10.4
	c0-0.9,0.6-1.7,1.5-1.9c0,0.3,0,0.6,0.1,0.9c0.2,0.7,0.7,1.3,1.2,1.8c0.3,0.3,0.5,0.5,0.7,0.7c-0.4,0.3-0.8,0.6-1.4,0.6
	C10.1,12.4,9.2,11.5,9.2,10.4z M6.7,2.6c0-0.4,0.3-0.7,0.8-0.7h0.8v0.7c0,0.4-0.3,0.8-0.8,0.8H6.7V2.6z M14.2,1.9h0.7
	c0.4,0,0.7,0.3,0.8,0.7v0.7h-0.7c-0.4,0-0.8-0.3-0.8-0.8V1.9z M15.7,17.4l0,0.7c0,0.4-0.3,0.8-0.8,0.8h-0.7v-0.7
	c0-0.4,0.3-0.8,0.8-0.8H15.7z M8.2,18.9H7.4c-0.4,0-0.8-0.3-0.8-0.8v-0.7h0.8c0.4,0,0.8,0.3,0.8,0.8V18.9z"/>
</svg>
