<?xml version="1.0" encoding="utf-8"?>
<!-- Generator: Adobe Illustrator 24.0.2, SVG Export Plug-In . SVG Version: 6.00 Build 0)  -->
<svg version="1.1" id="Layer_1" xmlns="http://www.w3.org/2000/svg" xmlns:xlink="http://www.w3.org/1999/xlink" x="0px" y="0px"
	 viewBox="0 0 13.2 13.2" style="enable-background:new 0 0 13.2 13.2;" xml:space="preserve">
<style type="text/css">
	.st0{fill:#657FF6;}
</style>
<path class="st0" d="M0.5,4.4h2.6v8.4H0.5V4.4z M1.8,0.2c0.8,0,1.5,0.7,1.5,1.5c0,0.8-0.7,1.5-1.5,1.5c-0.8,0-1.5-0.7-1.5-1.5
	C0.2,0.9,0.9,0.2,1.8,0.2z"/>
<path class="st0" d="M4.7,4.4h2.5v1.2h0c0.3-0.7,1.2-1.4,2.5-1.4c2.7,0,3.1,1.7,3.1,4v4.6h-2.6V8.7c0-1,0-2.2-1.4-2.2
	c-1.4,0-1.6,1.1-1.6,2.2v4.2H4.7V4.4z"/>
</svg>
