<?xml version="1.0" encoding="utf-8"?>
<!-- Generator: Adobe Illustrator 24.0.2, SVG Export Plug-In . SVG Version: 6.00 Build 0)  -->
<svg version="1.1" id="Layer_1" xmlns="http://www.w3.org/2000/svg" xmlns:xlink="http://www.w3.org/1999/xlink" x="0px" y="0px"
	 viewBox="0 0 56.5 56.5" style="enable-background:new 0 0 56.5 56.5;" xml:space="preserve">
<style type="text/css">
	.st0{fill:none;stroke:#FFFFFF;}
	.st1{fill:#FFFFFF;}
</style>
<circle class="st0" cx="28.3" cy="28.3" r="24.5"/>
<path class="st1" d="M21.4,37.3v-2.1c0.8-0.7,1.5-1.3,2.1-1.8c0.6-0.5,1.2-1,1.7-1.5s0.9-0.9,1.3-1.3c0.7-0.7,1.3-1.4,1.7-1.9
	c0.4-0.5,0.8-1.1,1-1.5s0.3-1,0.3-1.5c0-0.6-0.1-1-0.3-1.5c-0.2-0.4-0.5-0.7-0.9-1c-0.4-0.2-0.8-0.4-1.4-0.4c-0.7,0-1.3,0.2-1.9,0.7
	c-0.5,0.4-0.9,1.1-1.1,1.9l-2.6-0.5c0.2-0.9,0.6-1.7,1.1-2.4c0.5-0.7,1.2-1.2,2-1.6c0.8-0.4,1.7-0.6,2.6-0.6c0.8,0,1.5,0.1,2.2,0.4
	c0.7,0.3,1.2,0.6,1.7,1.1c0.5,0.5,0.9,1,1.1,1.7c0.3,0.6,0.4,1.3,0.4,2.1c0,0.7-0.1,1.4-0.4,2c-0.3,0.7-0.7,1.3-1.2,2
	c-0.5,0.7-1.2,1.5-2.1,2.3c-0.9,0.9-1.9,1.8-3.1,2.8h7.1v2.5H21.4z"/>
</svg>
