<?xml version="1.0" encoding="utf-8"?>
<!-- Generator: Adobe Illustrator 24.0.2, SVG Export Plug-In . SVG Version: 6.00 Build 0)  -->
<svg version="1.1" id="Layer_1" xmlns="http://www.w3.org/2000/svg" xmlns:xlink="http://www.w3.org/1999/xlink" x="0px" y="0px"
	 viewBox="0 0 13.2 13.2" style="enable-background:new 0 0 13.2 13.2;" xml:space="preserve">
<style type="text/css">
	.st0{fill:#657FF6;}
</style>
<path class="st0" d="M11.8,0.2H1.4c-0.6,0-1.2,0.5-1.2,1.2v10.5c0,0.6,0.5,1.2,1.2,1.2h10.5c0.6,0,1.2-0.5,1.2-1.2V1.4
	C13,0.7,12.5,0.2,11.8,0.2z M11.1,5.7c-0.1,0-0.2,0-0.2,0c-0.9,0-1.6-0.4-2.1-1.1c0,1.8,0,3.8,0,3.8c0,1.6-1.3,2.8-2.8,2.8
	c-1.6,0-2.8-1.3-2.8-2.8c0-1.6,1.3-2.8,2.8-2.8c0.1,0,0.1,0,0.2,0V7C6.1,7,6,7,5.9,7C5.1,7,4.5,7.6,4.5,8.4s0.6,1.4,1.4,1.4
	s1.5-0.6,1.5-1.4c0,0,0-6.5,0-6.5h1.3c0.1,1.2,1.1,2.1,2.3,2.2V5.7z"/>
</svg>
