<?xml version="1.0" encoding="utf-8"?>
<!-- Generator: Adobe Illustrator 24.0.2, SVG Export Plug-In . SVG Version: 6.00 Build 0)  -->
<svg version="1.1" id="Layer_1" xmlns="http://www.w3.org/2000/svg" xmlns:xlink="http://www.w3.org/1999/xlink" x="0px" y="0px"
	 viewBox="0 0 13.2 13.2" style="enable-background:new 0 0 13.2 13.2;" xml:space="preserve">
<style type="text/css">
	.st0{fill:#657FF6;}
</style>
<path class="st0" d="M13.2,2.5c-0.5,0.2-1,0.4-1.5,0.4c0.6-0.3,1-0.9,1.2-1.5c-0.5,0.3-1.1,0.5-1.7,0.6C10.7,1.6,10,1.2,9.2,1.2
	c-1.5,0-2.7,1.2-2.7,2.7c0,0.2,0,0.4,0.1,0.6C4.4,4.4,2.4,3.3,1.1,1.7C0.9,2.1,0.7,2.6,0.7,3.1c0,0.9,0.5,1.7,1.2,2.2
	c-0.4,0-0.8-0.1-1.2-0.3c0,0,0,0,0,0c0,1.3,0.9,2.4,2.1,2.6C2.6,7.7,2.4,7.7,2.2,7.7c-0.2,0-0.3,0-0.5,0C2,8.7,3,9.5,4.1,9.5
	c-0.9,0.7-2.1,1.1-3.3,1.1c-0.2,0-0.4,0-0.6,0c1.2,0.8,2.6,1.2,4.1,1.2c4.9,0,7.6-4.1,7.6-7.6c0-0.1,0-0.2,0-0.3
	C12.4,3.5,12.8,3,13.2,2.5z"/>
</svg>
