<?xml version="1.0" encoding="utf-8"?>
<!-- Generator: Adobe Illustrator 24.0.2, SVG Export Plug-In . SVG Version: 6.00 Build 0)  -->
<svg version="1.1" id="Layer_1" xmlns="http://www.w3.org/2000/svg" xmlns:xlink="http://www.w3.org/1999/xlink" x="0px" y="0px"
	 viewBox="0 0 13.2 13.2" style="enable-background:new 0 0 13.2 13.2;" xml:space="preserve">
<style type="text/css">
	.st0{fill:#FFFFFF;}
</style>
<path class="st0" d="M9.8,7.5c0-0.5-0.4-1-1-1H4.4c-0.5,0-1,0.4-1,1v0.3c0,1.3,1.2,2.6,3.2,2.6c2,0,3.2-1.3,3.2-2.6V7.5z M8.4,4.2
	c0-1-0.8-1.8-1.8-1.8c-1,0-1.8,0.8-1.8,1.8s0.8,1.8,1.8,1.8C7.6,5.9,8.4,5.2,8.4,4.2z M13,6.6c0,3.5-2.9,6.4-6.4,6.4
	c-3.5,0-6.4-2.9-6.4-6.4c0-3.5,2.9-6.4,6.4-6.4C10.1,0.2,13,3,13,6.6z M12.1,6.6c0-3-2.4-5.5-5.5-5.5c-3,0-5.5,2.4-5.5,5.5
	c0,3,2.4,5.5,5.5,5.5C9.6,12,12.1,9.6,12.1,6.6z"/>
</svg>
